solid mesh
  facet normal 0.000000 1.000000 0.000000
    outer loop
      vertex -0.971444 -1.020000 0.421544
      vertex -0.969164 -1.020000 0.419926
      vertex -0.986045 -1.020000 0.099735
    endloop
  endfacet
  facet normal -0.000000 -1.000000 -0.000000
    outer loop
      vertex -0.986045 -1.020000 0.099735
      vertex -0.969164 -1.020000 0.419926
      vertex -0.971444 -1.020000 0.421544
    endloop
  endfacet
  facet normal 0.000000 -1.000000 -0.000000
    outer loop
      vertex -0.971444 1.020000 0.421544
      vertex -0.986045 1.020000 0.099735
      vertex -0.969164 1.020000 0.419926
    endloop
  endfacet
  facet normal -0.000000 1.000000 0.000000
    outer loop
      vertex -0.969164 1.020000 0.419926
      vertex -0.986045 1.020000 0.099735
      vertex -0.971444 1.020000 0.421544
    endloop
  endfacet
  facet normal 0.000000 1.000000 0.000000
    outer loop
      vertex -0.870000 -1.020000 0.403568
      vertex -0.870000 -1.020000 0.099735
      vertex -0.871072 -1.020000 0.403259
    endloop
  endfacet
  facet normal -0.000000 -1.000000 -0.000000
    outer loop
      vertex -0.871072 -1.020000 0.403259
      vertex -0.870000 -1.020000 0.099735
      vertex -0.870000 -1.020000 0.403568
    endloop
  endfacet
  facet normal 0.000000 -1.000000 -0.000000
    outer loop
      vertex -0.870000 1.020000 0.403568
      vertex -0.871072 1.020000 0.403259
      vertex -0.870000 1.020000 0.099735
    endloop
  endfacet
  facet normal -0.000000 1.000000 0.000000
    outer loop
      vertex -0.870000 1.020000 0.099735
      vertex -0.871072 1.020000 0.403259
      vertex -0.870000 1.020000 0.403568
    endloop
  endfacet
  facet normal 0.000000 1.000000 0.000000
    outer loop
      vertex -0.870000 -1.020000 0.099735
      vertex -0.885445 -1.020000 0.400817
      vertex -0.871072 -1.020000 0.403259
    endloop
  endfacet
  facet normal -0.000000 -1.000000 -0.000000
    outer loop
      vertex -0.871072 -1.020000 0.403259
      vertex -0.885445 -1.020000 0.400817
      vertex -0.870000 -1.020000 0.099735
    endloop
  endfacet
  facet normal 0.000000 -1.000000 0.000000
    outer loop
      vertex -0.870000 1.020000 0.099735
      vertex -0.871072 1.020000 0.403259
      vertex -0.885445 1.020000 0.400817
    endloop
  endfacet
  facet normal -0.000000 1.000000 -0.000000
    outer loop
      vertex -0.885445 1.020000 0.400817
      vertex -0.871072 1.020000 0.403259
      vertex -0.870000 1.020000 0.099735
    endloop
  endfacet
  facet normal 0.000000 1.000000 0.000000
    outer loop
      vertex -0.870000 -1.020000 0.099735
      vertex -0.900000 -1.020000 0.400000
      vertex -0.885445 -1.020000 0.400817
    endloop
  endfacet
  facet normal -0.000000 -1.000000 -0.000000
    outer loop
      vertex -0.885445 -1.020000 0.400817
      vertex -0.900000 -1.020000 0.400000
      vertex -0.870000 -1.020000 0.099735
    endloop
  endfacet
  facet normal 0.000000 -1.000000 0.000000
    outer loop
      vertex -0.870000 1.020000 0.099735
      vertex -0.885445 1.020000 0.400817
      vertex -0.900000 1.020000 0.400000
    endloop
  endfacet
  facet normal -0.000000 1.000000 -0.000000
    outer loop
      vertex -0.900000 1.020000 0.400000
      vertex -0.885445 1.020000 0.400817
      vertex -0.870000 1.020000 0.099735
    endloop
  endfacet
  facet normal 0.000000 1.000000 0.000000
    outer loop
      vertex -0.870000 -1.020000 0.099735
      vertex -0.914555 -1.020000 0.400817
      vertex -0.900000 -1.020000 0.400000
    endloop
  endfacet
  facet normal -0.000000 -1.000000 -0.000000
    outer loop
      vertex -0.900000 -1.020000 0.400000
      vertex -0.914555 -1.020000 0.400817
      vertex -0.870000 -1.020000 0.099735
    endloop
  endfacet
  facet normal 0.000000 -1.000000 0.000000
    outer loop
      vertex -0.870000 1.020000 0.099735
      vertex -0.900000 1.020000 0.400000
      vertex -0.914555 1.020000 0.400817
    endloop
  endfacet
  facet normal -0.000000 1.000000 -0.000000
    outer loop
      vertex -0.914555 1.020000 0.400817
      vertex -0.900000 1.020000 0.400000
      vertex -0.870000 1.020000 0.099735
    endloop
  endfacet
  facet normal 0.000000 1.000000 0.000000
    outer loop
      vertex -0.870000 -1.020000 0.099735
      vertex -0.986045 -1.020000 0.099735
      vertex -0.914555 -1.020000 0.400817
    endloop
  endfacet
  facet normal -0.000000 -1.000000 -0.000000
    outer loop
      vertex -0.914555 -1.020000 0.400817
      vertex -0.986045 -1.020000 0.099735
      vertex -0.870000 -1.020000 0.099735
    endloop
  endfacet
  facet normal 0.000000 -1.000000 0.000000
    outer loop
      vertex -0.870000 1.020000 0.099735
      vertex -0.914555 1.020000 0.400817
      vertex -0.986045 1.020000 0.099735
    endloop
  endfacet
  facet normal -0.000000 1.000000 -0.000000
    outer loop
      vertex -0.986045 1.020000 0.099735
      vertex -0.914555 1.020000 0.400817
      vertex -0.870000 1.020000 0.099735
    endloop
  endfacet
  facet normal 0.000000 1.000000 0.000000
    outer loop
      vertex -0.986045 -1.020000 0.099735
      vertex -0.928928 -1.020000 0.403259
      vertex -0.914555 -1.020000 0.400817
    endloop
  endfacet
  facet normal -0.000000 -1.000000 -0.000000
    outer loop
      vertex -0.914555 -1.020000 0.400817
      vertex -0.928928 -1.020000 0.403259
      vertex -0.986045 -1.020000 0.099735
    endloop
  endfacet
  facet normal 0.000000 -1.000000 0.000000
    outer loop
      vertex -0.986045 1.020000 0.099735
      vertex -0.914555 1.020000 0.400817
      vertex -0.928928 1.020000 0.403259
    endloop
  endfacet
  facet normal -0.000000 1.000000 -0.000000
    outer loop
      vertex -0.928928 1.020000 0.403259
      vertex -0.914555 1.020000 0.400817
      vertex -0.986045 1.020000 0.099735
    endloop
  endfacet
  facet normal 0.000000 1.000000 0.000000
    outer loop
      vertex -0.986045 -1.020000 0.099735
      vertex -0.942936 -1.020000 0.407295
      vertex -0.928928 -1.020000 0.403259
    endloop
  endfacet
  facet normal -0.000000 -1.000000 -0.000000
    outer loop
      vertex -0.928928 -1.020000 0.403259
      vertex -0.942936 -1.020000 0.407295
      vertex -0.986045 -1.020000 0.099735
    endloop
  endfacet
  facet normal 0.000000 -1.000000 0.000000
    outer loop
      vertex -0.986045 1.020000 0.099735
      vertex -0.928928 1.020000 0.403259
      vertex -0.942936 1.020000 0.407295
    endloop
  endfacet
  facet normal -0.000000 1.000000 -0.000000
    outer loop
      vertex -0.942936 1.020000 0.407295
      vertex -0.928928 1.020000 0.403259
      vertex -0.986045 1.020000 0.099735
    endloop
  endfacet
  facet normal 0.000000 1.000000 0.000000
    outer loop
      vertex -0.986045 -1.020000 0.099735
      vertex -0.956405 -1.020000 0.412874
      vertex -0.942936 -1.020000 0.407295
    endloop
  endfacet
  facet normal -0.000000 -1.000000 -0.000000
    outer loop
      vertex -0.942936 -1.020000 0.407295
      vertex -0.956405 -1.020000 0.412874
      vertex -0.986045 -1.020000 0.099735
    endloop
  endfacet
  facet normal 0.000000 -1.000000 0.000000
    outer loop
      vertex -0.986045 1.020000 0.099735
      vertex -0.942936 1.020000 0.407295
      vertex -0.956405 1.020000 0.412874
    endloop
  endfacet
  facet normal -0.000000 1.000000 -0.000000
    outer loop
      vertex -0.956405 1.020000 0.412874
      vertex -0.942936 1.020000 0.407295
      vertex -0.986045 1.020000 0.099735
    endloop
  endfacet
  facet normal 0.000000 1.000000 0.000000
    outer loop
      vertex -0.986045 -1.020000 0.099735
      vertex -0.969164 -1.020000 0.419926
      vertex -0.956405 -1.020000 0.412874
    endloop
  endfacet
  facet normal -0.000000 -1.000000 -0.000000
    outer loop
      vertex -0.956405 -1.020000 0.412874
      vertex -0.969164 -1.020000 0.419926
      vertex -0.986045 -1.020000 0.099735
    endloop
  endfacet
  facet normal 0.000000 -1.000000 0.000000
    outer loop
      vertex -0.986045 1.020000 0.099735
      vertex -0.956405 1.020000 0.412874
      vertex -0.969164 1.020000 0.419926
    endloop
  endfacet
  facet normal -0.000000 1.000000 -0.000000
    outer loop
      vertex -0.969164 1.020000 0.419926
      vertex -0.956405 1.020000 0.412874
      vertex -0.986045 1.020000 0.099735
    endloop
  endfacet
  facet normal 0.578671 0.000000 0.815561
    outer loop
      vertex -0.971444 -1.020000 0.421544
      vertex -0.969164 -1.020000 0.419926
      vertex -0.969164 1.020000 0.419926
    endloop
  endfacet
  facet normal -0.578671 -0.000000 -0.815561
    outer loop
      vertex -0.969164 1.020000 0.419926
      vertex -0.969164 -1.020000 0.419926
      vertex -0.971444 -1.020000 0.421544
    endloop
  endfacet
  facet normal 0.578671 -0.000000 0.815561
    outer loop
      vertex -0.971444 -1.020000 0.421544
      vertex -0.969164 1.020000 0.419926
      vertex -0.971444 1.020000 0.421544
    endloop
  endfacet
  facet normal -0.578671 0.000000 -0.815561
    outer loop
      vertex -0.971444 1.020000 0.421544
      vertex -0.969164 1.020000 0.419926
      vertex -0.971444 -1.020000 0.421544
    endloop
  endfacet
  facet normal 0.483719 0.000000 0.875223
    outer loop
      vertex -0.969164 -1.020000 0.419926
      vertex -0.956405 -1.020000 0.412874
      vertex -0.956405 1.020000 0.412874
    endloop
  endfacet
  facet normal -0.483719 -0.000000 -0.875223
    outer loop
      vertex -0.956405 1.020000 0.412874
      vertex -0.956405 -1.020000 0.412874
      vertex -0.969164 -1.020000 0.419926
    endloop
  endfacet
  facet normal 0.483719 -0.000000 0.875223
    outer loop
      vertex -0.969164 -1.020000 0.419926
      vertex -0.956405 1.020000 0.412874
      vertex -0.969164 1.020000 0.419926
    endloop
  endfacet
  facet normal -0.483719 0.000000 -0.875223
    outer loop
      vertex -0.969164 1.020000 0.419926
      vertex -0.956405 1.020000 0.412874
      vertex -0.969164 -1.020000 0.419926
    endloop
  endfacet
  facet normal 0.382683 0.000000 0.923880
    outer loop
      vertex -0.956405 -1.020000 0.412874
      vertex -0.942936 -1.020000 0.407295
      vertex -0.942936 1.020000 0.407295
    endloop
  endfacet
  facet normal -0.382683 -0.000000 -0.923880
    outer loop
      vertex -0.942936 1.020000 0.407295
      vertex -0.942936 -1.020000 0.407295
      vertex -0.956405 -1.020000 0.412874
    endloop
  endfacet
  facet normal 0.382683 -0.000000 0.923880
    outer loop
      vertex -0.956405 -1.020000 0.412874
      vertex -0.942936 1.020000 0.407295
      vertex -0.956405 1.020000 0.412874
    endloop
  endfacet
  facet normal -0.382683 0.000000 -0.923880
    outer loop
      vertex -0.956405 1.020000 0.412874
      vertex -0.942936 1.020000 0.407295
      vertex -0.956405 -1.020000 0.412874
    endloop
  endfacet
  facet normal 0.276836 0.000000 0.960917
    outer loop
      vertex -0.942936 -1.020000 0.407295
      vertex -0.928928 -1.020000 0.403259
      vertex -0.928928 1.020000 0.403259
    endloop
  endfacet
  facet normal -0.276836 -0.000000 -0.960917
    outer loop
      vertex -0.928928 1.020000 0.403259
      vertex -0.928928 -1.020000 0.403259
      vertex -0.942936 -1.020000 0.407295
    endloop
  endfacet
  facet normal 0.276836 -0.000000 0.960917
    outer loop
      vertex -0.942936 -1.020000 0.407295
      vertex -0.928928 1.020000 0.403259
      vertex -0.942936 1.020000 0.407295
    endloop
  endfacet
  facet normal -0.276836 0.000000 -0.960917
    outer loop
      vertex -0.942936 1.020000 0.407295
      vertex -0.928928 1.020000 0.403259
      vertex -0.942936 -1.020000 0.407295
    endloop
  endfacet
  facet normal 0.167506 0.000000 0.985871
    outer loop
      vertex -0.928928 -1.020000 0.403259
      vertex -0.914555 -1.020000 0.400817
      vertex -0.914555 1.020000 0.400817
    endloop
  endfacet
  facet normal -0.167506 -0.000000 -0.985871
    outer loop
      vertex -0.914555 1.020000 0.400817
      vertex -0.914555 -1.020000 0.400817
      vertex -0.928928 -1.020000 0.403259
    endloop
  endfacet
  facet normal 0.167506 -0.000000 0.985871
    outer loop
      vertex -0.928928 -1.020000 0.403259
      vertex -0.914555 1.020000 0.400817
      vertex -0.928928 1.020000 0.403259
    endloop
  endfacet
  facet normal -0.167506 0.000000 -0.985871
    outer loop
      vertex -0.928928 1.020000 0.403259
      vertex -0.914555 1.020000 0.400817
      vertex -0.928928 -1.020000 0.403259
    endloop
  endfacet
  facet normal 0.056070 0.000000 0.998427
    outer loop
      vertex -0.914555 -1.020000 0.400817
      vertex -0.900000 -1.020000 0.400000
      vertex -0.900000 1.020000 0.400000
    endloop
  endfacet
  facet normal -0.056070 -0.000000 -0.998427
    outer loop
      vertex -0.900000 1.020000 0.400000
      vertex -0.900000 -1.020000 0.400000
      vertex -0.914555 -1.020000 0.400817
    endloop
  endfacet
  facet normal 0.056070 -0.000000 0.998427
    outer loop
      vertex -0.914555 -1.020000 0.400817
      vertex -0.900000 1.020000 0.400000
      vertex -0.914555 1.020000 0.400817
    endloop
  endfacet
  facet normal -0.056070 0.000000 -0.998427
    outer loop
      vertex -0.914555 1.020000 0.400817
      vertex -0.900000 1.020000 0.400000
      vertex -0.914555 -1.020000 0.400817
    endloop
  endfacet
  facet normal -0.056070 0.000000 0.998427
    outer loop
      vertex -0.900000 -1.020000 0.400000
      vertex -0.885445 -1.020000 0.400817
      vertex -0.885445 1.020000 0.400817
    endloop
  endfacet
  facet normal 0.056070 -0.000000 -0.998427
    outer loop
      vertex -0.885445 1.020000 0.400817
      vertex -0.885445 -1.020000 0.400817
      vertex -0.900000 -1.020000 0.400000
    endloop
  endfacet
  facet normal -0.056070 0.000000 0.998427
    outer loop
      vertex -0.900000 -1.020000 0.400000
      vertex -0.885445 1.020000 0.400817
      vertex -0.900000 1.020000 0.400000
    endloop
  endfacet
  facet normal 0.056070 -0.000000 -0.998427
    outer loop
      vertex -0.900000 1.020000 0.400000
      vertex -0.885445 1.020000 0.400817
      vertex -0.900000 -1.020000 0.400000
    endloop
  endfacet
  facet normal -0.167506 0.000000 0.985871
    outer loop
      vertex -0.885445 -1.020000 0.400817
      vertex -0.871072 -1.020000 0.403259
      vertex -0.871072 1.020000 0.403259
    endloop
  endfacet
  facet normal 0.167506 -0.000000 -0.985871
    outer loop
      vertex -0.871072 1.020000 0.403259
      vertex -0.871072 -1.020000 0.403259
      vertex -0.885445 -1.020000 0.400817
    endloop
  endfacet
  facet normal -0.167506 0.000000 0.985871
    outer loop
      vertex -0.885445 -1.020000 0.400817
      vertex -0.871072 1.020000 0.403259
      vertex -0.885445 1.020000 0.400817
    endloop
  endfacet
  facet normal 0.167506 -0.000000 -0.985871
    outer loop
      vertex -0.885445 1.020000 0.400817
      vertex -0.871072 1.020000 0.403259
      vertex -0.885445 -1.020000 0.400817
    endloop
  endfacet
  facet normal -0.276836 0.000000 0.960917
    outer loop
      vertex -0.871072 -1.020000 0.403259
      vertex -0.870000 -1.020000 0.403568
      vertex -0.870000 1.020000 0.403568
    endloop
  endfacet
  facet normal 0.276836 -0.000000 -0.960917
    outer loop
      vertex -0.870000 1.020000 0.403568
      vertex -0.870000 -1.020000 0.403568
      vertex -0.871072 -1.020000 0.403259
    endloop
  endfacet
  facet normal -0.276836 0.000000 0.960917
    outer loop
      vertex -0.871072 -1.020000 0.403259
      vertex -0.870000 1.020000 0.403568
      vertex -0.871072 1.020000 0.403259
    endloop
  endfacet
  facet normal 0.276836 -0.000000 -0.960917
    outer loop
      vertex -0.871072 1.020000 0.403259
      vertex -0.870000 1.020000 0.403568
      vertex -0.871072 -1.020000 0.403259
    endloop
  endfacet
  facet normal 1.000000 0.000000 0.000000
    outer loop
      vertex -0.870000 -1.020000 0.403568
      vertex -0.870000 -1.020000 0.099735
      vertex -0.870000 1.020000 0.099735
    endloop
  endfacet
  facet normal -1.000000 -0.000000 -0.000000
    outer loop
      vertex -0.870000 1.020000 0.099735
      vertex -0.870000 -1.020000 0.099735
      vertex -0.870000 -1.020000 0.403568
    endloop
  endfacet
  facet normal 1.000000 -0.000000 0.000000
    outer loop
      vertex -0.870000 -1.020000 0.403568
      vertex -0.870000 1.020000 0.099735
      vertex -0.870000 1.020000 0.403568
    endloop
  endfacet
  facet normal -1.000000 0.000000 -0.000000
    outer loop
      vertex -0.870000 1.020000 0.403568
      vertex -0.870000 1.020000 0.099735
      vertex -0.870000 -1.020000 0.403568
    endloop
  endfacet
  facet normal 0.000000 0.000000 -1.000000
    outer loop
      vertex -0.870000 -1.020000 0.099735
      vertex -0.986045 -1.020000 0.099735
      vertex -0.986045 1.020000 0.099735
    endloop
  endfacet
  facet normal -0.000000 -0.000000 1.000000
    outer loop
      vertex -0.986045 1.020000 0.099735
      vertex -0.986045 -1.020000 0.099735
      vertex -0.870000 -1.020000 0.099735
    endloop
  endfacet
  facet normal 0.000000 0.000000 -1.000000
    outer loop
      vertex -0.870000 -1.020000 0.099735
      vertex -0.986045 1.020000 0.099735
      vertex -0.870000 1.020000 0.099735
    endloop
  endfacet
  facet normal -0.000000 -0.000000 1.000000
    outer loop
      vertex -0.870000 1.020000 0.099735
      vertex -0.986045 1.020000 0.099735
      vertex -0.870000 -1.020000 0.099735
    endloop
  endfacet
  facet normal -0.998972 0.000000 0.045325
    outer loop
      vertex -0.986045 -1.020000 0.099735
      vertex -0.971444 -1.020000 0.421544
      vertex -0.971444 1.020000 0.421544
    endloop
  endfacet
  facet normal 0.998972 -0.000000 -0.045325
    outer loop
      vertex -0.971444 1.020000 0.421544
      vertex -0.971444 -1.020000 0.421544
      vertex -0.986045 -1.020000 0.099735
    endloop
  endfacet
  facet normal -0.998972 0.000000 0.045325
    outer loop
      vertex -0.986045 -1.020000 0.099735
      vertex -0.971444 1.020000 0.421544
      vertex -0.986045 1.020000 0.099735
    endloop
  endfacet
  facet normal 0.998972 -0.000000 -0.045325
    outer loop
      vertex -0.986045 1.020000 0.099735
      vertex -0.971444 1.020000 0.421544
      vertex -0.986045 -1.020000 0.099735
    endloop
  endfacet
endsolid mesh
