solid mesh
  facet normal 0.000000 1.000000 0.000000
    outer loop
      vertex -0.780172 -1.020000 1.242787
      vertex -0.787301 -1.020000 1.233183
      vertex -0.783976 -1.020000 1.238163
    endloop
  endfacet
  facet normal -0.000000 -1.000000 -0.000000
    outer loop
      vertex -0.783976 -1.020000 1.238163
      vertex -0.787301 -1.020000 1.233183
      vertex -0.780172 -1.020000 1.242787
    endloop
  endfacet
  facet normal 0.000000 -1.000000 0.000000
    outer loop
      vertex -0.780172 1.020000 1.242787
      vertex -0.783976 1.020000 1.238163
      vertex -0.787301 1.020000 1.233183
    endloop
  endfacet
  facet normal -0.000000 1.000000 -0.000000
    outer loop
      vertex -0.787301 1.020000 1.233183
      vertex -0.783976 1.020000 1.238163
      vertex -0.780172 1.020000 1.242787
    endloop
  endfacet
  facet normal -0.000000 1.000000 0.000000
    outer loop
      vertex -0.780172 -1.020000 1.242787
      vertex -0.760976 -1.020000 1.256863
      vertex -0.787301 -1.020000 1.233183
    endloop
  endfacet
  facet normal 0.000000 -1.000000 -0.000000
    outer loop
      vertex -0.787301 -1.020000 1.233183
      vertex -0.760976 -1.020000 1.256863
      vertex -0.780172 -1.020000 1.242787
    endloop
  endfacet
  facet normal 0.000000 -1.000000 -0.000000
    outer loop
      vertex -0.780172 1.020000 1.242787
      vertex -0.787301 1.020000 1.233183
      vertex -0.760976 1.020000 1.256863
    endloop
  endfacet
  facet normal -0.000000 1.000000 0.000000
    outer loop
      vertex -0.760976 1.020000 1.256863
      vertex -0.787301 1.020000 1.233183
      vertex -0.780172 1.020000 1.242787
    endloop
  endfacet
  facet normal 0.000000 1.000000 0.000000
    outer loop
      vertex -0.780172 -1.020000 1.242787
      vertex -0.771279 -1.020000 1.250786
      vertex -0.760976 -1.020000 1.256863
    endloop
  endfacet
  facet normal -0.000000 -1.000000 -0.000000
    outer loop
      vertex -0.760976 -1.020000 1.256863
      vertex -0.771279 -1.020000 1.250786
      vertex -0.780172 -1.020000 1.242787
    endloop
  endfacet
  facet normal 0.000000 -1.000000 0.000000
    outer loop
      vertex -0.780172 1.020000 1.242787
      vertex -0.760976 1.020000 1.256863
      vertex -0.771279 1.020000 1.250786
    endloop
  endfacet
  facet normal -0.000000 1.000000 -0.000000
    outer loop
      vertex -0.771279 1.020000 1.250786
      vertex -0.760976 1.020000 1.256863
      vertex -0.780172 1.020000 1.242787
    endloop
  endfacet
  facet normal 0.000000 1.000000 0.000000
    outer loop
      vertex -0.780172 -1.020000 1.242787
      vertex -0.775925 -1.020000 1.247009
      vertex -0.771279 -1.020000 1.250786
    endloop
  endfacet
  facet normal -0.000000 -1.000000 -0.000000
    outer loop
      vertex -0.771279 -1.020000 1.250786
      vertex -0.775925 -1.020000 1.247009
      vertex -0.780172 -1.020000 1.242787
    endloop
  endfacet
  facet normal 0.000000 -1.000000 0.000000
    outer loop
      vertex -0.780172 1.020000 1.242787
      vertex -0.771279 1.020000 1.250786
      vertex -0.775925 1.020000 1.247009
    endloop
  endfacet
  facet normal -0.000000 1.000000 -0.000000
    outer loop
      vertex -0.775925 1.020000 1.247009
      vertex -0.771279 1.020000 1.250786
      vertex -0.780172 1.020000 1.242787
    endloop
  endfacet
  facet normal 0.000000 1.000000 0.000000
    outer loop
      vertex -0.771279 -1.020000 1.250786
      vertex -0.766279 -1.020000 1.254082
      vertex -0.760976 -1.020000 1.256863
    endloop
  endfacet
  facet normal -0.000000 -1.000000 -0.000000
    outer loop
      vertex -0.760976 -1.020000 1.256863
      vertex -0.766279 -1.020000 1.254082
      vertex -0.771279 -1.020000 1.250786
    endloop
  endfacet
  facet normal 0.000000 -1.000000 0.000000
    outer loop
      vertex -0.771279 1.020000 1.250786
      vertex -0.760976 1.020000 1.256863
      vertex -0.766279 1.020000 1.254082
    endloop
  endfacet
  facet normal -0.000000 1.000000 -0.000000
    outer loop
      vertex -0.766279 1.020000 1.254082
      vertex -0.760976 1.020000 1.256863
      vertex -0.771279 1.020000 1.250786
    endloop
  endfacet
  facet normal 0.000000 1.000000 0.000000
    outer loop
      vertex -0.760976 -1.020000 1.256863
      vertex -0.795753 -1.020000 1.204771
      vertex -0.787301 -1.020000 1.233183
    endloop
  endfacet
  facet normal -0.000000 -1.000000 -0.000000
    outer loop
      vertex -0.787301 -1.020000 1.233183
      vertex -0.795753 -1.020000 1.204771
      vertex -0.760976 -1.020000 1.256863
    endloop
  endfacet
  facet normal 0.000000 -1.000000 0.000000
    outer loop
      vertex -0.760976 1.020000 1.256863
      vertex -0.787301 1.020000 1.233183
      vertex -0.795753 1.020000 1.204771
    endloop
  endfacet
  facet normal -0.000000 1.000000 -0.000000
    outer loop
      vertex -0.795753 1.020000 1.204771
      vertex -0.787301 1.020000 1.233183
      vertex -0.760976 1.020000 1.256863
    endloop
  endfacet
  facet normal -0.000000 1.000000 0.000000
    outer loop
      vertex -0.760976 -1.020000 1.256863
      vertex -0.743785 -1.020000 1.261866
      vertex -0.795753 -1.020000 1.204771
    endloop
  endfacet
  facet normal 0.000000 -1.000000 -0.000000
    outer loop
      vertex -0.795753 -1.020000 1.204771
      vertex -0.743785 -1.020000 1.261866
      vertex -0.760976 -1.020000 1.256863
    endloop
  endfacet
  facet normal 0.000000 -1.000000 -0.000000
    outer loop
      vertex -0.760976 1.020000 1.256863
      vertex -0.795753 1.020000 1.204771
      vertex -0.743785 1.020000 1.261866
    endloop
  endfacet
  facet normal -0.000000 1.000000 0.000000
    outer loop
      vertex -0.743785 1.020000 1.261866
      vertex -0.795753 1.020000 1.204771
      vertex -0.760976 1.020000 1.256863
    endloop
  endfacet
  facet normal 0.000000 1.000000 0.000000
    outer loop
      vertex -0.760976 -1.020000 1.256863
      vertex -0.755422 -1.020000 1.259101
      vertex -0.743785 -1.020000 1.261866
    endloop
  endfacet
  facet normal -0.000000 -1.000000 -0.000000
    outer loop
      vertex -0.743785 -1.020000 1.261866
      vertex -0.755422 -1.020000 1.259101
      vertex -0.760976 -1.020000 1.256863
    endloop
  endfacet
  facet normal 0.000000 -1.000000 0.000000
    outer loop
      vertex -0.760976 1.020000 1.256863
      vertex -0.743785 1.020000 1.261866
      vertex -0.755422 1.020000 1.259101
    endloop
  endfacet
  facet normal -0.000000 1.000000 -0.000000
    outer loop
      vertex -0.755422 1.020000 1.259101
      vertex -0.743785 1.020000 1.261866
      vertex -0.760976 1.020000 1.256863
    endloop
  endfacet
  facet normal 0.000000 1.000000 0.000000
    outer loop
      vertex -0.755422 -1.020000 1.259101
      vertex -0.749673 -1.020000 1.260774
      vertex -0.743785 -1.020000 1.261866
    endloop
  endfacet
  facet normal -0.000000 -1.000000 -0.000000
    outer loop
      vertex -0.743785 -1.020000 1.261866
      vertex -0.749673 -1.020000 1.260774
      vertex -0.755422 -1.020000 1.259101
    endloop
  endfacet
  facet normal 0.000000 -1.000000 0.000000
    outer loop
      vertex -0.755422 1.020000 1.259101
      vertex -0.743785 1.020000 1.261866
      vertex -0.749673 1.020000 1.260774
    endloop
  endfacet
  facet normal -0.000000 1.000000 -0.000000
    outer loop
      vertex -0.749673 1.020000 1.260774
      vertex -0.743785 1.020000 1.261866
      vertex -0.755422 1.020000 1.259101
    endloop
  endfacet
  facet normal 0.000000 1.000000 0.000000
    outer loop
      vertex -0.743785 -1.020000 1.261866
      vertex -0.375000 -1.020000 0.900000
      vertex -0.795753 -1.020000 1.204771
    endloop
  endfacet
  facet normal -0.000000 -1.000000 -0.000000
    outer loop
      vertex -0.795753 -1.020000 1.204771
      vertex -0.375000 -1.020000 0.900000
      vertex -0.743785 -1.020000 1.261866
    endloop
  endfacet
  facet normal 0.000000 -1.000000 -0.000000
    outer loop
      vertex -0.743785 1.020000 1.261866
      vertex -0.795753 1.020000 1.204771
      vertex -0.375000 1.020000 0.900000
    endloop
  endfacet
  facet normal -0.000000 1.000000 0.000000
    outer loop
      vertex -0.375000 1.020000 0.900000
      vertex -0.795753 1.020000 1.204771
      vertex -0.743785 1.020000 1.261866
    endloop
  endfacet
  facet normal -0.000000 1.000000 0.000000
    outer loop
      vertex -0.743785 -1.020000 1.261866
      vertex -0.020000 -1.020000 1.359054
      vertex -0.375000 -1.020000 0.900000
    endloop
  endfacet
  facet normal 0.000000 -1.000000 -0.000000
    outer loop
      vertex -0.375000 -1.020000 0.900000
      vertex -0.020000 -1.020000 1.359054
      vertex -0.743785 -1.020000 1.261866
    endloop
  endfacet
  facet normal 0.000000 -1.000000 0.000000
    outer loop
      vertex -0.743785 1.020000 1.261866
      vertex -0.375000 1.020000 0.900000
      vertex -0.020000 1.020000 1.359054
    endloop
  endfacet
  facet normal -0.000000 1.000000 -0.000000
    outer loop
      vertex -0.020000 1.020000 1.359054
      vertex -0.375000 1.020000 0.900000
      vertex -0.743785 1.020000 1.261866
    endloop
  endfacet
  facet normal 0.000000 1.000000 0.000000
    outer loop
      vertex -0.020000 -1.020000 1.359054
      vertex -0.020000 -1.020000 0.900000
      vertex -0.375000 -1.020000 0.900000
    endloop
  endfacet
  facet normal -0.000000 -1.000000 -0.000000
    outer loop
      vertex -0.375000 -1.020000 0.900000
      vertex -0.020000 -1.020000 0.900000
      vertex -0.020000 -1.020000 1.359054
    endloop
  endfacet
  facet normal 0.000000 -1.000000 -0.000000
    outer loop
      vertex -0.020000 1.020000 1.359054
      vertex -0.375000 1.020000 0.900000
      vertex -0.020000 1.020000 0.900000
    endloop
  endfacet
  facet normal -0.000000 1.000000 0.000000
    outer loop
      vertex -0.020000 1.020000 0.900000
      vertex -0.375000 1.020000 0.900000
      vertex -0.020000 1.020000 1.359054
    endloop
  endfacet
  facet normal 0.000000 1.000000 -0.000000
    outer loop
      vertex -0.375000 -1.020000 0.049542
      vertex -0.632295 -1.020000 0.637064
      vertex -0.375000 -1.020000 0.900000
    endloop
  endfacet
  facet normal -0.000000 -1.000000 0.000000
    outer loop
      vertex -0.375000 -1.020000 0.900000
      vertex -0.632295 -1.020000 0.637064
      vertex -0.375000 -1.020000 0.049542
    endloop
  endfacet
  facet normal 0.000000 -1.000000 0.000000
    outer loop
      vertex -0.375000 1.020000 0.049542
      vertex -0.375000 1.020000 0.900000
      vertex -0.632295 1.020000 0.637064
    endloop
  endfacet
  facet normal -0.000000 1.000000 -0.000000
    outer loop
      vertex -0.632295 1.020000 0.637064
      vertex -0.375000 1.020000 0.900000
      vertex -0.375000 1.020000 0.049542
    endloop
  endfacet
  facet normal 0.000000 1.000000 0.000000
    outer loop
      vertex -0.375000 -1.020000 0.049542
      vertex -0.637874 -1.020000 0.623595
      vertex -0.632295 -1.020000 0.637064
    endloop
  endfacet
  facet normal -0.000000 -1.000000 -0.000000
    outer loop
      vertex -0.632295 -1.020000 0.637064
      vertex -0.637874 -1.020000 0.623595
      vertex -0.375000 -1.020000 0.049542
    endloop
  endfacet
  facet normal 0.000000 -1.000000 0.000000
    outer loop
      vertex -0.375000 1.020000 0.049542
      vertex -0.632295 1.020000 0.637064
      vertex -0.637874 1.020000 0.623595
    endloop
  endfacet
  facet normal -0.000000 1.000000 -0.000000
    outer loop
      vertex -0.637874 1.020000 0.623595
      vertex -0.632295 1.020000 0.637064
      vertex -0.375000 1.020000 0.049542
    endloop
  endfacet
  facet normal 0.000000 1.000000 0.000000
    outer loop
      vertex -0.375000 -1.020000 0.049542
      vertex -0.644926 -1.020000 0.610836
      vertex -0.637874 -1.020000 0.623595
    endloop
  endfacet
  facet normal -0.000000 -1.000000 -0.000000
    outer loop
      vertex -0.637874 -1.020000 0.623595
      vertex -0.644926 -1.020000 0.610836
      vertex -0.375000 -1.020000 0.049542
    endloop
  endfacet
  facet normal 0.000000 -1.000000 0.000000
    outer loop
      vertex -0.375000 1.020000 0.049542
      vertex -0.637874 1.020000 0.623595
      vertex -0.644926 1.020000 0.610836
    endloop
  endfacet
  facet normal -0.000000 1.000000 -0.000000
    outer loop
      vertex -0.644926 1.020000 0.610836
      vertex -0.637874 1.020000 0.623595
      vertex -0.375000 1.020000 0.049542
    endloop
  endfacet
  facet normal 0.000000 1.000000 0.000000
    outer loop
      vertex -0.375000 -1.020000 0.049542
      vertex -0.645000 -1.020000 0.610731
      vertex -0.644926 -1.020000 0.610836
    endloop
  endfacet
  facet normal -0.000000 -1.000000 -0.000000
    outer loop
      vertex -0.644926 -1.020000 0.610836
      vertex -0.645000 -1.020000 0.610731
      vertex -0.375000 -1.020000 0.049542
    endloop
  endfacet
  facet normal 0.000000 -1.000000 0.000000
    outer loop
      vertex -0.375000 1.020000 0.049542
      vertex -0.644926 1.020000 0.610836
      vertex -0.645000 1.020000 0.610731
    endloop
  endfacet
  facet normal -0.000000 1.000000 -0.000000
    outer loop
      vertex -0.645000 1.020000 0.610731
      vertex -0.644926 1.020000 0.610836
      vertex -0.375000 1.020000 0.049542
    endloop
  endfacet
  facet normal 0.000000 1.000000 0.000000
    outer loop
      vertex -0.375000 -1.020000 0.049542
      vertex -0.645000 -1.020000 0.049542
      vertex -0.645000 -1.020000 0.610731
    endloop
  endfacet
  facet normal -0.000000 -1.000000 -0.000000
    outer loop
      vertex -0.645000 -1.020000 0.610731
      vertex -0.645000 -1.020000 0.049542
      vertex -0.375000 -1.020000 0.049542
    endloop
  endfacet
  facet normal 0.000000 -1.000000 0.000000
    outer loop
      vertex -0.375000 1.020000 0.049542
      vertex -0.645000 1.020000 0.610731
      vertex -0.645000 1.020000 0.049542
    endloop
  endfacet
  facet normal -0.000000 1.000000 -0.000000
    outer loop
      vertex -0.645000 1.020000 0.049542
      vertex -0.645000 1.020000 0.610731
      vertex -0.375000 1.020000 0.049542
    endloop
  endfacet
  facet normal 0.000000 1.000000 0.000000
    outer loop
      vertex -0.811887 -1.020000 0.796859
      vertex -0.795753 -1.020000 1.204771
      vertex -0.811405 -1.020000 0.797126
    endloop
  endfacet
  facet normal -0.000000 -1.000000 -0.000000
    outer loop
      vertex -0.811405 -1.020000 0.797126
      vertex -0.795753 -1.020000 1.204771
      vertex -0.811887 -1.020000 0.796859
    endloop
  endfacet
  facet normal 0.000000 -1.000000 0.000000
    outer loop
      vertex -0.811887 1.020000 0.796859
      vertex -0.811405 1.020000 0.797126
      vertex -0.795753 1.020000 1.204771
    endloop
  endfacet
  facet normal -0.000000 1.000000 -0.000000
    outer loop
      vertex -0.795753 1.020000 1.204771
      vertex -0.811405 1.020000 0.797126
      vertex -0.811887 1.020000 0.796859
    endloop
  endfacet
  facet normal 0.000000 1.000000 0.000000
    outer loop
      vertex -0.795753 -1.020000 1.204771
      vertex -0.797936 -1.020000 0.802705
      vertex -0.811405 -1.020000 0.797126
    endloop
  endfacet
  facet normal -0.000000 -1.000000 -0.000000
    outer loop
      vertex -0.811405 -1.020000 0.797126
      vertex -0.797936 -1.020000 0.802705
      vertex -0.795753 -1.020000 1.204771
    endloop
  endfacet
  facet normal 0.000000 -1.000000 0.000000
    outer loop
      vertex -0.795753 1.020000 1.204771
      vertex -0.811405 1.020000 0.797126
      vertex -0.797936 1.020000 0.802705
    endloop
  endfacet
  facet normal -0.000000 1.000000 -0.000000
    outer loop
      vertex -0.797936 1.020000 0.802705
      vertex -0.811405 1.020000 0.797126
      vertex -0.795753 1.020000 1.204771
    endloop
  endfacet
  facet normal 0.000000 1.000000 0.000000
    outer loop
      vertex -0.795753 -1.020000 1.204771
      vertex -0.783928 -1.020000 0.806741
      vertex -0.797936 -1.020000 0.802705
    endloop
  endfacet
  facet normal -0.000000 -1.000000 -0.000000
    outer loop
      vertex -0.797936 -1.020000 0.802705
      vertex -0.783928 -1.020000 0.806741
      vertex -0.795753 -1.020000 1.204771
    endloop
  endfacet
  facet normal 0.000000 -1.000000 -0.000000
    outer loop
      vertex -0.795753 1.020000 1.204771
      vertex -0.797936 1.020000 0.802705
      vertex -0.783928 1.020000 0.806741
    endloop
  endfacet
  facet normal -0.000000 1.000000 0.000000
    outer loop
      vertex -0.783928 1.020000 0.806741
      vertex -0.797936 1.020000 0.802705
      vertex -0.795753 1.020000 1.204771
    endloop
  endfacet
  facet normal 0.000000 1.000000 0.000000
    outer loop
      vertex -0.795753 -1.020000 1.204771
      vertex -0.769555 -1.020000 0.809183
      vertex -0.783928 -1.020000 0.806741
    endloop
  endfacet
  facet normal -0.000000 -1.000000 -0.000000
    outer loop
      vertex -0.783928 -1.020000 0.806741
      vertex -0.769555 -1.020000 0.809183
      vertex -0.795753 -1.020000 1.204771
    endloop
  endfacet
  facet normal 0.000000 -1.000000 0.000000
    outer loop
      vertex -0.795753 1.020000 1.204771
      vertex -0.783928 1.020000 0.806741
      vertex -0.769555 1.020000 0.809183
    endloop
  endfacet
  facet normal -0.000000 1.000000 -0.000000
    outer loop
      vertex -0.769555 1.020000 0.809183
      vertex -0.783928 1.020000 0.806741
      vertex -0.795753 1.020000 1.204771
    endloop
  endfacet
  facet normal 0.000000 1.000000 0.000000
    outer loop
      vertex -0.795753 -1.020000 1.204771
      vertex -0.755000 -1.020000 0.810000
      vertex -0.769555 -1.020000 0.809183
    endloop
  endfacet
  facet normal -0.000000 -1.000000 -0.000000
    outer loop
      vertex -0.769555 -1.020000 0.809183
      vertex -0.755000 -1.020000 0.810000
      vertex -0.795753 -1.020000 1.204771
    endloop
  endfacet
  facet normal 0.000000 -1.000000 0.000000
    outer loop
      vertex -0.795753 1.020000 1.204771
      vertex -0.769555 1.020000 0.809183
      vertex -0.755000 1.020000 0.810000
    endloop
  endfacet
  facet normal -0.000000 1.000000 -0.000000
    outer loop
      vertex -0.755000 1.020000 0.810000
      vertex -0.769555 1.020000 0.809183
      vertex -0.795753 1.020000 1.204771
    endloop
  endfacet
  facet normal 0.000000 1.000000 0.000000
    outer loop
      vertex -0.795753 -1.020000 1.204771
      vertex -0.740445 -1.020000 0.809183
      vertex -0.755000 -1.020000 0.810000
    endloop
  endfacet
  facet normal -0.000000 -1.000000 -0.000000
    outer loop
      vertex -0.755000 -1.020000 0.810000
      vertex -0.740445 -1.020000 0.809183
      vertex -0.795753 -1.020000 1.204771
    endloop
  endfacet
  facet normal 0.000000 -1.000000 0.000000
    outer loop
      vertex -0.795753 1.020000 1.204771
      vertex -0.755000 1.020000 0.810000
      vertex -0.740445 1.020000 0.809183
    endloop
  endfacet
  facet normal -0.000000 1.000000 -0.000000
    outer loop
      vertex -0.740445 1.020000 0.809183
      vertex -0.755000 1.020000 0.810000
      vertex -0.795753 1.020000 1.204771
    endloop
  endfacet
  facet normal 0.000000 1.000000 0.000000
    outer loop
      vertex -0.795753 -1.020000 1.204771
      vertex -0.726072 -1.020000 0.806741
      vertex -0.740445 -1.020000 0.809183
    endloop
  endfacet
  facet normal -0.000000 -1.000000 -0.000000
    outer loop
      vertex -0.740445 -1.020000 0.809183
      vertex -0.726072 -1.020000 0.806741
      vertex -0.795753 -1.020000 1.204771
    endloop
  endfacet
  facet normal 0.000000 -1.000000 0.000000
    outer loop
      vertex -0.795753 1.020000 1.204771
      vertex -0.740445 1.020000 0.809183
      vertex -0.726072 1.020000 0.806741
    endloop
  endfacet
  facet normal -0.000000 1.000000 -0.000000
    outer loop
      vertex -0.726072 1.020000 0.806741
      vertex -0.740445 1.020000 0.809183
      vertex -0.795753 1.020000 1.204771
    endloop
  endfacet
  facet normal 0.000000 1.000000 0.000000
    outer loop
      vertex -0.795753 -1.020000 1.204771
      vertex -0.712064 -1.020000 0.802705
      vertex -0.726072 -1.020000 0.806741
    endloop
  endfacet
  facet normal -0.000000 -1.000000 -0.000000
    outer loop
      vertex -0.726072 -1.020000 0.806741
      vertex -0.712064 -1.020000 0.802705
      vertex -0.795753 -1.020000 1.204771
    endloop
  endfacet
  facet normal 0.000000 -1.000000 0.000000
    outer loop
      vertex -0.795753 1.020000 1.204771
      vertex -0.726072 1.020000 0.806741
      vertex -0.712064 1.020000 0.802705
    endloop
  endfacet
  facet normal -0.000000 1.000000 -0.000000
    outer loop
      vertex -0.712064 1.020000 0.802705
      vertex -0.726072 1.020000 0.806741
      vertex -0.795753 1.020000 1.204771
    endloop
  endfacet
  facet normal 0.000000 1.000000 0.000000
    outer loop
      vertex -0.795753 -1.020000 1.204771
      vertex -0.698595 -1.020000 0.797126
      vertex -0.712064 -1.020000 0.802705
    endloop
  endfacet
  facet normal -0.000000 -1.000000 -0.000000
    outer loop
      vertex -0.712064 -1.020000 0.802705
      vertex -0.698595 -1.020000 0.797126
      vertex -0.795753 -1.020000 1.204771
    endloop
  endfacet
  facet normal 0.000000 -1.000000 0.000000
    outer loop
      vertex -0.795753 1.020000 1.204771
      vertex -0.712064 1.020000 0.802705
      vertex -0.698595 1.020000 0.797126
    endloop
  endfacet
  facet normal -0.000000 1.000000 -0.000000
    outer loop
      vertex -0.698595 1.020000 0.797126
      vertex -0.712064 1.020000 0.802705
      vertex -0.795753 1.020000 1.204771
    endloop
  endfacet
  facet normal 0.000000 1.000000 0.000000
    outer loop
      vertex -0.795753 -1.020000 1.204771
      vertex -0.375000 -1.020000 0.900000
      vertex -0.698595 -1.020000 0.797126
    endloop
  endfacet
  facet normal -0.000000 -1.000000 -0.000000
    outer loop
      vertex -0.698595 -1.020000 0.797126
      vertex -0.375000 -1.020000 0.900000
      vertex -0.795753 -1.020000 1.204771
    endloop
  endfacet
  facet normal 0.000000 -1.000000 0.000000
    outer loop
      vertex -0.795753 1.020000 1.204771
      vertex -0.698595 1.020000 0.797126
      vertex -0.375000 1.020000 0.900000
    endloop
  endfacet
  facet normal -0.000000 1.000000 -0.000000
    outer loop
      vertex -0.375000 1.020000 0.900000
      vertex -0.698595 1.020000 0.797126
      vertex -0.795753 1.020000 1.204771
    endloop
  endfacet
  facet normal 0.000000 1.000000 0.000000
    outer loop
      vertex -0.375000 -1.020000 0.900000
      vertex -0.685836 -1.020000 0.790074
      vertex -0.698595 -1.020000 0.797126
    endloop
  endfacet
  facet normal -0.000000 -1.000000 -0.000000
    outer loop
      vertex -0.698595 -1.020000 0.797126
      vertex -0.685836 -1.020000 0.790074
      vertex -0.375000 -1.020000 0.900000
    endloop
  endfacet
  facet normal 0.000000 -1.000000 0.000000
    outer loop
      vertex -0.375000 1.020000 0.900000
      vertex -0.698595 1.020000 0.797126
      vertex -0.685836 1.020000 0.790074
    endloop
  endfacet
  facet normal -0.000000 1.000000 -0.000000
    outer loop
      vertex -0.685836 1.020000 0.790074
      vertex -0.698595 1.020000 0.797126
      vertex -0.375000 1.020000 0.900000
    endloop
  endfacet
  facet normal 0.000000 1.000000 0.000000
    outer loop
      vertex -0.375000 -1.020000 0.900000
      vertex -0.673946 -1.020000 0.781638
      vertex -0.685836 -1.020000 0.790074
    endloop
  endfacet
  facet normal -0.000000 -1.000000 -0.000000
    outer loop
      vertex -0.685836 -1.020000 0.790074
      vertex -0.673946 -1.020000 0.781638
      vertex -0.375000 -1.020000 0.900000
    endloop
  endfacet
  facet normal 0.000000 -1.000000 0.000000
    outer loop
      vertex -0.375000 1.020000 0.900000
      vertex -0.685836 1.020000 0.790074
      vertex -0.673946 1.020000 0.781638
    endloop
  endfacet
  facet normal -0.000000 1.000000 -0.000000
    outer loop
      vertex -0.673946 1.020000 0.781638
      vertex -0.685836 1.020000 0.790074
      vertex -0.375000 1.020000 0.900000
    endloop
  endfacet
  facet normal 0.000000 1.000000 0.000000
    outer loop
      vertex -0.375000 -1.020000 0.900000
      vertex -0.663076 -1.020000 0.771924
      vertex -0.673946 -1.020000 0.781638
    endloop
  endfacet
  facet normal -0.000000 -1.000000 -0.000000
    outer loop
      vertex -0.673946 -1.020000 0.781638
      vertex -0.663076 -1.020000 0.771924
      vertex -0.375000 -1.020000 0.900000
    endloop
  endfacet
  facet normal 0.000000 -1.000000 0.000000
    outer loop
      vertex -0.375000 1.020000 0.900000
      vertex -0.673946 1.020000 0.781638
      vertex -0.663076 1.020000 0.771924
    endloop
  endfacet
  facet normal -0.000000 1.000000 -0.000000
    outer loop
      vertex -0.663076 1.020000 0.771924
      vertex -0.673946 1.020000 0.781638
      vertex -0.375000 1.020000 0.900000
    endloop
  endfacet
  facet normal 0.000000 1.000000 0.000000
    outer loop
      vertex -0.375000 -1.020000 0.900000
      vertex -0.653362 -1.020000 0.761054
      vertex -0.663076 -1.020000 0.771924
    endloop
  endfacet
  facet normal -0.000000 -1.000000 -0.000000
    outer loop
      vertex -0.663076 -1.020000 0.771924
      vertex -0.653362 -1.020000 0.761054
      vertex -0.375000 -1.020000 0.900000
    endloop
  endfacet
  facet normal 0.000000 -1.000000 0.000000
    outer loop
      vertex -0.375000 1.020000 0.900000
      vertex -0.663076 1.020000 0.771924
      vertex -0.653362 1.020000 0.761054
    endloop
  endfacet
  facet normal -0.000000 1.000000 -0.000000
    outer loop
      vertex -0.653362 1.020000 0.761054
      vertex -0.663076 1.020000 0.771924
      vertex -0.375000 1.020000 0.900000
    endloop
  endfacet
  facet normal 0.000000 1.000000 0.000000
    outer loop
      vertex -0.375000 -1.020000 0.900000
      vertex -0.644926 -1.020000 0.749164
      vertex -0.653362 -1.020000 0.761054
    endloop
  endfacet
  facet normal -0.000000 -1.000000 -0.000000
    outer loop
      vertex -0.653362 -1.020000 0.761054
      vertex -0.644926 -1.020000 0.749164
      vertex -0.375000 -1.020000 0.900000
    endloop
  endfacet
  facet normal 0.000000 -1.000000 0.000000
    outer loop
      vertex -0.375000 1.020000 0.900000
      vertex -0.653362 1.020000 0.761054
      vertex -0.644926 1.020000 0.749164
    endloop
  endfacet
  facet normal -0.000000 1.000000 -0.000000
    outer loop
      vertex -0.644926 1.020000 0.749164
      vertex -0.653362 1.020000 0.761054
      vertex -0.375000 1.020000 0.900000
    endloop
  endfacet
  facet normal 0.000000 1.000000 0.000000
    outer loop
      vertex -0.375000 -1.020000 0.900000
      vertex -0.637874 -1.020000 0.736405
      vertex -0.644926 -1.020000 0.749164
    endloop
  endfacet
  facet normal -0.000000 -1.000000 -0.000000
    outer loop
      vertex -0.644926 -1.020000 0.749164
      vertex -0.637874 -1.020000 0.736405
      vertex -0.375000 -1.020000 0.900000
    endloop
  endfacet
  facet normal 0.000000 -1.000000 0.000000
    outer loop
      vertex -0.375000 1.020000 0.900000
      vertex -0.644926 1.020000 0.749164
      vertex -0.637874 1.020000 0.736405
    endloop
  endfacet
  facet normal -0.000000 1.000000 -0.000000
    outer loop
      vertex -0.637874 1.020000 0.736405
      vertex -0.644926 1.020000 0.749164
      vertex -0.375000 1.020000 0.900000
    endloop
  endfacet
  facet normal 0.000000 1.000000 0.000000
    outer loop
      vertex -0.375000 -1.020000 0.900000
      vertex -0.632295 -1.020000 0.722936
      vertex -0.637874 -1.020000 0.736405
    endloop
  endfacet
  facet normal -0.000000 -1.000000 -0.000000
    outer loop
      vertex -0.637874 -1.020000 0.736405
      vertex -0.632295 -1.020000 0.722936
      vertex -0.375000 -1.020000 0.900000
    endloop
  endfacet
  facet normal 0.000000 -1.000000 0.000000
    outer loop
      vertex -0.375000 1.020000 0.900000
      vertex -0.637874 1.020000 0.736405
      vertex -0.632295 1.020000 0.722936
    endloop
  endfacet
  facet normal -0.000000 1.000000 -0.000000
    outer loop
      vertex -0.632295 1.020000 0.722936
      vertex -0.637874 1.020000 0.736405
      vertex -0.375000 1.020000 0.900000
    endloop
  endfacet
  facet normal 0.000000 1.000000 0.000000
    outer loop
      vertex -0.375000 -1.020000 0.900000
      vertex -0.628259 -1.020000 0.708928
      vertex -0.632295 -1.020000 0.722936
    endloop
  endfacet
  facet normal -0.000000 -1.000000 -0.000000
    outer loop
      vertex -0.632295 -1.020000 0.722936
      vertex -0.628259 -1.020000 0.708928
      vertex -0.375000 -1.020000 0.900000
    endloop
  endfacet
  facet normal 0.000000 -1.000000 0.000000
    outer loop
      vertex -0.375000 1.020000 0.900000
      vertex -0.632295 1.020000 0.722936
      vertex -0.628259 1.020000 0.708928
    endloop
  endfacet
  facet normal -0.000000 1.000000 -0.000000
    outer loop
      vertex -0.628259 1.020000 0.708928
      vertex -0.632295 1.020000 0.722936
      vertex -0.375000 1.020000 0.900000
    endloop
  endfacet
  facet normal 0.000000 1.000000 0.000000
    outer loop
      vertex -0.375000 -1.020000 0.900000
      vertex -0.625817 -1.020000 0.694555
      vertex -0.628259 -1.020000 0.708928
    endloop
  endfacet
  facet normal -0.000000 -1.000000 -0.000000
    outer loop
      vertex -0.628259 -1.020000 0.708928
      vertex -0.625817 -1.020000 0.694555
      vertex -0.375000 -1.020000 0.900000
    endloop
  endfacet
  facet normal 0.000000 -1.000000 0.000000
    outer loop
      vertex -0.375000 1.020000 0.900000
      vertex -0.628259 1.020000 0.708928
      vertex -0.625817 1.020000 0.694555
    endloop
  endfacet
  facet normal -0.000000 1.000000 -0.000000
    outer loop
      vertex -0.625817 1.020000 0.694555
      vertex -0.628259 1.020000 0.708928
      vertex -0.375000 1.020000 0.900000
    endloop
  endfacet
  facet normal 0.000000 1.000000 0.000000
    outer loop
      vertex -0.375000 -1.020000 0.900000
      vertex -0.625000 -1.020000 0.680000
      vertex -0.625817 -1.020000 0.694555
    endloop
  endfacet
  facet normal -0.000000 -1.000000 -0.000000
    outer loop
      vertex -0.625817 -1.020000 0.694555
      vertex -0.625000 -1.020000 0.680000
      vertex -0.375000 -1.020000 0.900000
    endloop
  endfacet
  facet normal 0.000000 -1.000000 0.000000
    outer loop
      vertex -0.375000 1.020000 0.900000
      vertex -0.625817 1.020000 0.694555
      vertex -0.625000 1.020000 0.680000
    endloop
  endfacet
  facet normal -0.000000 1.000000 -0.000000
    outer loop
      vertex -0.625000 1.020000 0.680000
      vertex -0.625817 1.020000 0.694555
      vertex -0.375000 1.020000 0.900000
    endloop
  endfacet
  facet normal 0.000000 1.000000 0.000000
    outer loop
      vertex -0.375000 -1.020000 0.900000
      vertex -0.625817 -1.020000 0.665445
      vertex -0.625000 -1.020000 0.680000
    endloop
  endfacet
  facet normal -0.000000 -1.000000 -0.000000
    outer loop
      vertex -0.625000 -1.020000 0.680000
      vertex -0.625817 -1.020000 0.665445
      vertex -0.375000 -1.020000 0.900000
    endloop
  endfacet
  facet normal 0.000000 -1.000000 0.000000
    outer loop
      vertex -0.375000 1.020000 0.900000
      vertex -0.625000 1.020000 0.680000
      vertex -0.625817 1.020000 0.665445
    endloop
  endfacet
  facet normal -0.000000 1.000000 -0.000000
    outer loop
      vertex -0.625817 1.020000 0.665445
      vertex -0.625000 1.020000 0.680000
      vertex -0.375000 1.020000 0.900000
    endloop
  endfacet
  facet normal 0.000000 1.000000 0.000000
    outer loop
      vertex -0.375000 -1.020000 0.900000
      vertex -0.628259 -1.020000 0.651072
      vertex -0.625817 -1.020000 0.665445
    endloop
  endfacet
  facet normal -0.000000 -1.000000 -0.000000
    outer loop
      vertex -0.625817 -1.020000 0.665445
      vertex -0.628259 -1.020000 0.651072
      vertex -0.375000 -1.020000 0.900000
    endloop
  endfacet
  facet normal 0.000000 -1.000000 0.000000
    outer loop
      vertex -0.375000 1.020000 0.900000
      vertex -0.625817 1.020000 0.665445
      vertex -0.628259 1.020000 0.651072
    endloop
  endfacet
  facet normal -0.000000 1.000000 -0.000000
    outer loop
      vertex -0.628259 1.020000 0.651072
      vertex -0.625817 1.020000 0.665445
      vertex -0.375000 1.020000 0.900000
    endloop
  endfacet
  facet normal 0.000000 1.000000 0.000000
    outer loop
      vertex -0.375000 -1.020000 0.900000
      vertex -0.632295 -1.020000 0.637064
      vertex -0.628259 -1.020000 0.651072
    endloop
  endfacet
  facet normal -0.000000 -1.000000 -0.000000
    outer loop
      vertex -0.628259 -1.020000 0.651072
      vertex -0.632295 -1.020000 0.637064
      vertex -0.375000 -1.020000 0.900000
    endloop
  endfacet
  facet normal 0.000000 -1.000000 0.000000
    outer loop
      vertex -0.375000 1.020000 0.900000
      vertex -0.628259 1.020000 0.651072
      vertex -0.632295 1.020000 0.637064
    endloop
  endfacet
  facet normal -0.000000 1.000000 -0.000000
    outer loop
      vertex -0.632295 1.020000 0.637064
      vertex -0.628259 1.020000 0.651072
      vertex -0.375000 1.020000 0.900000
    endloop
  endfacet
  facet normal 0.000000 1.000000 0.000000
    outer loop
      vertex -0.795753 -1.020000 1.204771
      vertex -0.790113 -1.020000 1.227897
      vertex -0.787301 -1.020000 1.233183
    endloop
  endfacet
  facet normal -0.000000 -1.000000 -0.000000
    outer loop
      vertex -0.787301 -1.020000 1.233183
      vertex -0.790113 -1.020000 1.227897
      vertex -0.795753 -1.020000 1.204771
    endloop
  endfacet
  facet normal 0.000000 -1.000000 0.000000
    outer loop
      vertex -0.795753 1.020000 1.204771
      vertex -0.787301 1.020000 1.233183
      vertex -0.790113 1.020000 1.227897
    endloop
  endfacet
  facet normal -0.000000 1.000000 -0.000000
    outer loop
      vertex -0.790113 1.020000 1.227897
      vertex -0.787301 1.020000 1.233183
      vertex -0.795753 1.020000 1.204771
    endloop
  endfacet
  facet normal 0.000000 1.000000 0.000000
    outer loop
      vertex -0.795753 -1.020000 1.204771
      vertex -0.795218 -1.020000 1.210735
      vertex -0.790113 -1.020000 1.227897
    endloop
  endfacet
  facet normal -0.000000 -1.000000 -0.000000
    outer loop
      vertex -0.790113 -1.020000 1.227897
      vertex -0.795218 -1.020000 1.210735
      vertex -0.795753 -1.020000 1.204771
    endloop
  endfacet
  facet normal 0.000000 -1.000000 0.000000
    outer loop
      vertex -0.795753 1.020000 1.204771
      vertex -0.790113 1.020000 1.227897
      vertex -0.795218 1.020000 1.210735
    endloop
  endfacet
  facet normal -0.000000 1.000000 -0.000000
    outer loop
      vertex -0.795218 1.020000 1.210735
      vertex -0.790113 1.020000 1.227897
      vertex -0.795753 1.020000 1.204771
    endloop
  endfacet
  facet normal 0.000000 1.000000 0.000000
    outer loop
      vertex -0.795218 -1.020000 1.210735
      vertex -0.794091 -1.020000 1.216616
      vertex -0.790113 -1.020000 1.227897
    endloop
  endfacet
  facet normal -0.000000 -1.000000 -0.000000
    outer loop
      vertex -0.790113 -1.020000 1.227897
      vertex -0.794091 -1.020000 1.216616
      vertex -0.795218 -1.020000 1.210735
    endloop
  endfacet
  facet normal 0.000000 -1.000000 0.000000
    outer loop
      vertex -0.795218 1.020000 1.210735
      vertex -0.790113 1.020000 1.227897
      vertex -0.794091 1.020000 1.216616
    endloop
  endfacet
  facet normal -0.000000 1.000000 -0.000000
    outer loop
      vertex -0.794091 1.020000 1.216616
      vertex -0.790113 1.020000 1.227897
      vertex -0.795218 1.020000 1.210735
    endloop
  endfacet
  facet normal 0.000000 1.000000 0.000000
    outer loop
      vertex -0.794091 -1.020000 1.216616
      vertex -0.792384 -1.020000 1.222356
      vertex -0.790113 -1.020000 1.227897
    endloop
  endfacet
  facet normal -0.000000 -1.000000 -0.000000
    outer loop
      vertex -0.790113 -1.020000 1.227897
      vertex -0.792384 -1.020000 1.222356
      vertex -0.794091 -1.020000 1.216616
    endloop
  endfacet
  facet normal 0.000000 -1.000000 0.000000
    outer loop
      vertex -0.794091 1.020000 1.216616
      vertex -0.790113 1.020000 1.227897
      vertex -0.792384 1.020000 1.222356
    endloop
  endfacet
  facet normal -0.000000 1.000000 -0.000000
    outer loop
      vertex -0.792384 1.020000 1.222356
      vertex -0.790113 1.020000 1.227897
      vertex -0.794091 1.020000 1.216616
    endloop
  endfacet
  facet normal -0.772198 0.000000 0.635383
    outer loop
      vertex -0.783976 -1.020000 1.238163
      vertex -0.780172 -1.020000 1.242787
      vertex -0.780172 1.020000 1.242787
    endloop
  endfacet
  facet normal 0.772198 -0.000000 -0.635383
    outer loop
      vertex -0.780172 1.020000 1.242787
      vertex -0.780172 -1.020000 1.242787
      vertex -0.783976 -1.020000 1.238163
    endloop
  endfacet
  facet normal -0.772198 0.000000 0.635383
    outer loop
      vertex -0.783976 -1.020000 1.238163
      vertex -0.780172 1.020000 1.242787
      vertex -0.783976 1.020000 1.238163
    endloop
  endfacet
  facet normal 0.772198 -0.000000 -0.635383
    outer loop
      vertex -0.783976 1.020000 1.238163
      vertex -0.780172 1.020000 1.242787
      vertex -0.783976 -1.020000 1.238163
    endloop
  endfacet
  facet normal -0.705020 0.000000 0.709188
    outer loop
      vertex -0.780172 -1.020000 1.242787
      vertex -0.775925 -1.020000 1.247009
      vertex -0.775925 1.020000 1.247009
    endloop
  endfacet
  facet normal 0.705020 -0.000000 -0.709188
    outer loop
      vertex -0.775925 1.020000 1.247009
      vertex -0.775925 -1.020000 1.247009
      vertex -0.780172 -1.020000 1.242787
    endloop
  endfacet
  facet normal -0.705020 0.000000 0.709188
    outer loop
      vertex -0.780172 -1.020000 1.242787
      vertex -0.775925 1.020000 1.247009
      vertex -0.780172 1.020000 1.242787
    endloop
  endfacet
  facet normal 0.705020 -0.000000 -0.709188
    outer loop
      vertex -0.780172 1.020000 1.242787
      vertex -0.775925 1.020000 1.247009
      vertex -0.780172 -1.020000 1.242787
    endloop
  endfacet
  facet normal -0.630819 0.000000 0.775930
    outer loop
      vertex -0.775925 -1.020000 1.247009
      vertex -0.771279 -1.020000 1.250786
      vertex -0.771279 1.020000 1.250786
    endloop
  endfacet
  facet normal 0.630819 -0.000000 -0.775930
    outer loop
      vertex -0.771279 1.020000 1.250786
      vertex -0.771279 -1.020000 1.250786
      vertex -0.775925 -1.020000 1.247009
    endloop
  endfacet
  facet normal -0.630819 0.000000 0.775930
    outer loop
      vertex -0.775925 -1.020000 1.247009
      vertex -0.771279 1.020000 1.250786
      vertex -0.775925 1.020000 1.247009
    endloop
  endfacet
  facet normal 0.630819 -0.000000 -0.775930
    outer loop
      vertex -0.775925 1.020000 1.247009
      vertex -0.771279 1.020000 1.250786
      vertex -0.775925 -1.020000 1.247009
    endloop
  endfacet
  facet normal -0.550336 0.000000 0.834943
    outer loop
      vertex -0.771279 -1.020000 1.250786
      vertex -0.766279 -1.020000 1.254082
      vertex -0.766279 1.020000 1.254082
    endloop
  endfacet
  facet normal 0.550336 -0.000000 -0.834943
    outer loop
      vertex -0.766279 1.020000 1.254082
      vertex -0.766279 -1.020000 1.254082
      vertex -0.771279 -1.020000 1.250786
    endloop
  endfacet
  facet normal -0.550336 0.000000 0.834943
    outer loop
      vertex -0.771279 -1.020000 1.250786
      vertex -0.766279 1.020000 1.254082
      vertex -0.771279 1.020000 1.250786
    endloop
  endfacet
  facet normal 0.550336 -0.000000 -0.834943
    outer loop
      vertex -0.771279 1.020000 1.250786
      vertex -0.766279 1.020000 1.254082
      vertex -0.771279 -1.020000 1.250786
    endloop
  endfacet
  facet normal -0.464372 0.000000 0.885640
    outer loop
      vertex -0.766279 -1.020000 1.254082
      vertex -0.760976 -1.020000 1.256863
      vertex -0.760976 1.020000 1.256863
    endloop
  endfacet
  facet normal 0.464372 -0.000000 -0.885640
    outer loop
      vertex -0.760976 1.020000 1.256863
      vertex -0.760976 -1.020000 1.256863
      vertex -0.766279 -1.020000 1.254082
    endloop
  endfacet
  facet normal -0.464372 0.000000 0.885640
    outer loop
      vertex -0.766279 -1.020000 1.254082
      vertex -0.760976 1.020000 1.256863
      vertex -0.766279 1.020000 1.254082
    endloop
  endfacet
  facet normal 0.464372 -0.000000 -0.885640
    outer loop
      vertex -0.766279 1.020000 1.254082
      vertex -0.760976 1.020000 1.256863
      vertex -0.766279 -1.020000 1.254082
    endloop
  endfacet
  facet normal -0.373782 0.000000 0.927517
    outer loop
      vertex -0.760976 -1.020000 1.256863
      vertex -0.755422 -1.020000 1.259101
      vertex -0.755422 1.020000 1.259101
    endloop
  endfacet
  facet normal 0.373782 -0.000000 -0.927517
    outer loop
      vertex -0.755422 1.020000 1.259101
      vertex -0.755422 -1.020000 1.259101
      vertex -0.760976 -1.020000 1.256863
    endloop
  endfacet
  facet normal -0.373782 0.000000 0.927517
    outer loop
      vertex -0.760976 -1.020000 1.256863
      vertex -0.755422 1.020000 1.259101
      vertex -0.760976 1.020000 1.256863
    endloop
  endfacet
  facet normal 0.373782 -0.000000 -0.927517
    outer loop
      vertex -0.760976 1.020000 1.256863
      vertex -0.755422 1.020000 1.259101
      vertex -0.760976 -1.020000 1.256863
    endloop
  endfacet
  facet normal -0.279470 0.000000 0.960155
    outer loop
      vertex -0.755422 -1.020000 1.259101
      vertex -0.749673 -1.020000 1.260774
      vertex -0.749673 1.020000 1.260774
    endloop
  endfacet
  facet normal 0.279470 -0.000000 -0.960155
    outer loop
      vertex -0.749673 1.020000 1.260774
      vertex -0.749673 -1.020000 1.260774
      vertex -0.755422 -1.020000 1.259101
    endloop
  endfacet
  facet normal -0.279470 0.000000 0.960155
    outer loop
      vertex -0.755422 -1.020000 1.259101
      vertex -0.749673 1.020000 1.260774
      vertex -0.755422 1.020000 1.259101
    endloop
  endfacet
  facet normal 0.279470 -0.000000 -0.960155
    outer loop
      vertex -0.755422 1.020000 1.259101
      vertex -0.749673 1.020000 1.260774
      vertex -0.755422 -1.020000 1.259101
    endloop
  endfacet
  facet normal -0.182373 0.000000 0.983229
    outer loop
      vertex -0.749673 -1.020000 1.260774
      vertex -0.743785 -1.020000 1.261866
      vertex -0.743785 1.020000 1.261866
    endloop
  endfacet
  facet normal 0.182373 -0.000000 -0.983229
    outer loop
      vertex -0.743785 1.020000 1.261866
      vertex -0.743785 -1.020000 1.261866
      vertex -0.749673 -1.020000 1.260774
    endloop
  endfacet
  facet normal -0.182373 0.000000 0.983229
    outer loop
      vertex -0.749673 -1.020000 1.260774
      vertex -0.743785 1.020000 1.261866
      vertex -0.749673 1.020000 1.260774
    endloop
  endfacet
  facet normal 0.182373 -0.000000 -0.983229
    outer loop
      vertex -0.749673 1.020000 1.260774
      vertex -0.743785 1.020000 1.261866
      vertex -0.749673 -1.020000 1.260774
    endloop
  endfacet
  facet normal -0.133083 0.000000 0.991105
    outer loop
      vertex -0.743785 -1.020000 1.261866
      vertex -0.020000 -1.020000 1.359054
      vertex -0.020000 1.020000 1.359054
    endloop
  endfacet
  facet normal 0.133083 -0.000000 -0.991105
    outer loop
      vertex -0.020000 1.020000 1.359054
      vertex -0.020000 -1.020000 1.359054
      vertex -0.743785 -1.020000 1.261866
    endloop
  endfacet
  facet normal -0.133083 0.000000 0.991105
    outer loop
      vertex -0.743785 -1.020000 1.261866
      vertex -0.020000 1.020000 1.359054
      vertex -0.743785 1.020000 1.261866
    endloop
  endfacet
  facet normal 0.133083 -0.000000 -0.991105
    outer loop
      vertex -0.743785 1.020000 1.261866
      vertex -0.020000 1.020000 1.359054
      vertex -0.743785 -1.020000 1.261866
    endloop
  endfacet
  facet normal 1.000000 0.000000 0.000000
    outer loop
      vertex -0.020000 -1.020000 1.359054
      vertex -0.020000 -1.020000 0.900000
      vertex -0.020000 1.020000 0.900000
    endloop
  endfacet
  facet normal -1.000000 -0.000000 -0.000000
    outer loop
      vertex -0.020000 1.020000 0.900000
      vertex -0.020000 -1.020000 0.900000
      vertex -0.020000 -1.020000 1.359054
    endloop
  endfacet
  facet normal 1.000000 -0.000000 0.000000
    outer loop
      vertex -0.020000 -1.020000 1.359054
      vertex -0.020000 1.020000 0.900000
      vertex -0.020000 1.020000 1.359054
    endloop
  endfacet
  facet normal -1.000000 0.000000 -0.000000
    outer loop
      vertex -0.020000 1.020000 1.359054
      vertex -0.020000 1.020000 0.900000
      vertex -0.020000 -1.020000 1.359054
    endloop
  endfacet
  facet normal 0.000000 0.000000 -1.000000
    outer loop
      vertex -0.020000 -1.020000 0.900000
      vertex -0.375000 -1.020000 0.900000
      vertex -0.375000 1.020000 0.900000
    endloop
  endfacet
  facet normal -0.000000 -0.000000 1.000000
    outer loop
      vertex -0.375000 1.020000 0.900000
      vertex -0.375000 -1.020000 0.900000
      vertex -0.020000 -1.020000 0.900000
    endloop
  endfacet
  facet normal 0.000000 0.000000 -1.000000
    outer loop
      vertex -0.020000 -1.020000 0.900000
      vertex -0.375000 1.020000 0.900000
      vertex -0.020000 1.020000 0.900000
    endloop
  endfacet
  facet normal -0.000000 -0.000000 1.000000
    outer loop
      vertex -0.020000 1.020000 0.900000
      vertex -0.375000 1.020000 0.900000
      vertex -0.020000 -1.020000 0.900000
    endloop
  endfacet
  facet normal 1.000000 0.000000 0.000000
    outer loop
      vertex -0.375000 -1.020000 0.900000
      vertex -0.375000 -1.020000 0.049542
      vertex -0.375000 1.020000 0.049542
    endloop
  endfacet
  facet normal -1.000000 -0.000000 -0.000000
    outer loop
      vertex -0.375000 1.020000 0.049542
      vertex -0.375000 -1.020000 0.049542
      vertex -0.375000 -1.020000 0.900000
    endloop
  endfacet
  facet normal 1.000000 -0.000000 0.000000
    outer loop
      vertex -0.375000 -1.020000 0.900000
      vertex -0.375000 1.020000 0.049542
      vertex -0.375000 1.020000 0.900000
    endloop
  endfacet
  facet normal -1.000000 0.000000 -0.000000
    outer loop
      vertex -0.375000 1.020000 0.900000
      vertex -0.375000 1.020000 0.049542
      vertex -0.375000 -1.020000 0.900000
    endloop
  endfacet
  facet normal 0.000000 0.000000 -1.000000
    outer loop
      vertex -0.375000 -1.020000 0.049542
      vertex -0.645000 -1.020000 0.049542
      vertex -0.645000 1.020000 0.049542
    endloop
  endfacet
  facet normal -0.000000 -0.000000 1.000000
    outer loop
      vertex -0.645000 1.020000 0.049542
      vertex -0.645000 -1.020000 0.049542
      vertex -0.375000 -1.020000 0.049542
    endloop
  endfacet
  facet normal 0.000000 0.000000 -1.000000
    outer loop
      vertex -0.375000 -1.020000 0.049542
      vertex -0.645000 1.020000 0.049542
      vertex -0.375000 1.020000 0.049542
    endloop
  endfacet
  facet normal -0.000000 -0.000000 1.000000
    outer loop
      vertex -0.375000 1.020000 0.049542
      vertex -0.645000 1.020000 0.049542
      vertex -0.375000 -1.020000 0.049542
    endloop
  endfacet
  facet normal -1.000000 0.000000 0.000000
    outer loop
      vertex -0.645000 -1.020000 0.049542
      vertex -0.645000 -1.020000 0.610731
      vertex -0.645000 1.020000 0.610731
    endloop
  endfacet
  facet normal 1.000000 -0.000000 -0.000000
    outer loop
      vertex -0.645000 1.020000 0.610731
      vertex -0.645000 -1.020000 0.610731
      vertex -0.645000 -1.020000 0.049542
    endloop
  endfacet
  facet normal -1.000000 0.000000 0.000000
    outer loop
      vertex -0.645000 -1.020000 0.049542
      vertex -0.645000 1.020000 0.610731
      vertex -0.645000 1.020000 0.049542
    endloop
  endfacet
  facet normal 1.000000 -0.000000 -0.000000
    outer loop
      vertex -0.645000 1.020000 0.049542
      vertex -0.645000 1.020000 0.610731
      vertex -0.645000 -1.020000 0.049542
    endloop
  endfacet
  facet normal -0.815561 0.000000 0.578671
    outer loop
      vertex -0.645000 -1.020000 0.610731
      vertex -0.644926 -1.020000 0.610836
      vertex -0.644926 1.020000 0.610836
    endloop
  endfacet
  facet normal 0.815561 -0.000000 -0.578671
    outer loop
      vertex -0.644926 1.020000 0.610836
      vertex -0.644926 -1.020000 0.610836
      vertex -0.645000 -1.020000 0.610731
    endloop
  endfacet
  facet normal -0.815561 0.000000 0.578671
    outer loop
      vertex -0.645000 -1.020000 0.610731
      vertex -0.644926 1.020000 0.610836
      vertex -0.645000 1.020000 0.610731
    endloop
  endfacet
  facet normal 0.815561 -0.000000 -0.578671
    outer loop
      vertex -0.645000 1.020000 0.610731
      vertex -0.644926 1.020000 0.610836
      vertex -0.645000 -1.020000 0.610731
    endloop
  endfacet
  facet normal -0.875223 0.000000 0.483719
    outer loop
      vertex -0.644926 -1.020000 0.610836
      vertex -0.637874 -1.020000 0.623595
      vertex -0.637874 1.020000 0.623595
    endloop
  endfacet
  facet normal 0.875223 -0.000000 -0.483719
    outer loop
      vertex -0.637874 1.020000 0.623595
      vertex -0.637874 -1.020000 0.623595
      vertex -0.644926 -1.020000 0.610836
    endloop
  endfacet
  facet normal -0.875223 0.000000 0.483719
    outer loop
      vertex -0.644926 -1.020000 0.610836
      vertex -0.637874 1.020000 0.623595
      vertex -0.644926 1.020000 0.610836
    endloop
  endfacet
  facet normal 0.875223 -0.000000 -0.483719
    outer loop
      vertex -0.644926 1.020000 0.610836
      vertex -0.637874 1.020000 0.623595
      vertex -0.644926 -1.020000 0.610836
    endloop
  endfacet
  facet normal -0.923880 0.000000 0.382683
    outer loop
      vertex -0.637874 -1.020000 0.623595
      vertex -0.632295 -1.020000 0.637064
      vertex -0.632295 1.020000 0.637064
    endloop
  endfacet
  facet normal 0.923880 -0.000000 -0.382683
    outer loop
      vertex -0.632295 1.020000 0.637064
      vertex -0.632295 -1.020000 0.637064
      vertex -0.637874 -1.020000 0.623595
    endloop
  endfacet
  facet normal -0.923880 0.000000 0.382683
    outer loop
      vertex -0.637874 -1.020000 0.623595
      vertex -0.632295 1.020000 0.637064
      vertex -0.637874 1.020000 0.623595
    endloop
  endfacet
  facet normal 0.923880 -0.000000 -0.382683
    outer loop
      vertex -0.637874 1.020000 0.623595
      vertex -0.632295 1.020000 0.637064
      vertex -0.637874 -1.020000 0.623595
    endloop
  endfacet
  facet normal -0.960917 0.000000 0.276836
    outer loop
      vertex -0.632295 -1.020000 0.637064
      vertex -0.628259 -1.020000 0.651072
      vertex -0.628259 1.020000 0.651072
    endloop
  endfacet
  facet normal 0.960917 -0.000000 -0.276836
    outer loop
      vertex -0.628259 1.020000 0.651072
      vertex -0.628259 -1.020000 0.651072
      vertex -0.632295 -1.020000 0.637064
    endloop
  endfacet
  facet normal -0.960917 0.000000 0.276836
    outer loop
      vertex -0.632295 -1.020000 0.637064
      vertex -0.628259 1.020000 0.651072
      vertex -0.632295 1.020000 0.637064
    endloop
  endfacet
  facet normal 0.960917 -0.000000 -0.276836
    outer loop
      vertex -0.632295 1.020000 0.637064
      vertex -0.628259 1.020000 0.651072
      vertex -0.632295 -1.020000 0.637064
    endloop
  endfacet
  facet normal -0.985871 0.000000 0.167506
    outer loop
      vertex -0.628259 -1.020000 0.651072
      vertex -0.625817 -1.020000 0.665445
      vertex -0.625817 1.020000 0.665445
    endloop
  endfacet
  facet normal 0.985871 -0.000000 -0.167506
    outer loop
      vertex -0.625817 1.020000 0.665445
      vertex -0.625817 -1.020000 0.665445
      vertex -0.628259 -1.020000 0.651072
    endloop
  endfacet
  facet normal -0.985871 0.000000 0.167506
    outer loop
      vertex -0.628259 -1.020000 0.651072
      vertex -0.625817 1.020000 0.665445
      vertex -0.628259 1.020000 0.651072
    endloop
  endfacet
  facet normal 0.985871 -0.000000 -0.167506
    outer loop
      vertex -0.628259 1.020000 0.651072
      vertex -0.625817 1.020000 0.665445
      vertex -0.628259 -1.020000 0.651072
    endloop
  endfacet
  facet normal -0.998427 0.000000 0.056070
    outer loop
      vertex -0.625817 -1.020000 0.665445
      vertex -0.625000 -1.020000 0.680000
      vertex -0.625000 1.020000 0.680000
    endloop
  endfacet
  facet normal 0.998427 -0.000000 -0.056070
    outer loop
      vertex -0.625000 1.020000 0.680000
      vertex -0.625000 -1.020000 0.680000
      vertex -0.625817 -1.020000 0.665445
    endloop
  endfacet
  facet normal -0.998427 0.000000 0.056070
    outer loop
      vertex -0.625817 -1.020000 0.665445
      vertex -0.625000 1.020000 0.680000
      vertex -0.625817 1.020000 0.665445
    endloop
  endfacet
  facet normal 0.998427 -0.000000 -0.056070
    outer loop
      vertex -0.625817 1.020000 0.665445
      vertex -0.625000 1.020000 0.680000
      vertex -0.625817 -1.020000 0.665445
    endloop
  endfacet
  facet normal -0.998427 0.000000 -0.056070
    outer loop
      vertex -0.625000 -1.020000 0.680000
      vertex -0.625817 -1.020000 0.694555
      vertex -0.625817 1.020000 0.694555
    endloop
  endfacet
  facet normal 0.998427 -0.000000 0.056070
    outer loop
      vertex -0.625817 1.020000 0.694555
      vertex -0.625817 -1.020000 0.694555
      vertex -0.625000 -1.020000 0.680000
    endloop
  endfacet
  facet normal -0.998427 0.000000 -0.056070
    outer loop
      vertex -0.625000 -1.020000 0.680000
      vertex -0.625817 1.020000 0.694555
      vertex -0.625000 1.020000 0.680000
    endloop
  endfacet
  facet normal 0.998427 -0.000000 0.056070
    outer loop
      vertex -0.625000 1.020000 0.680000
      vertex -0.625817 1.020000 0.694555
      vertex -0.625000 -1.020000 0.680000
    endloop
  endfacet
  facet normal -0.985871 0.000000 -0.167506
    outer loop
      vertex -0.625817 -1.020000 0.694555
      vertex -0.628259 -1.020000 0.708928
      vertex -0.628259 1.020000 0.708928
    endloop
  endfacet
  facet normal 0.985871 -0.000000 0.167506
    outer loop
      vertex -0.628259 1.020000 0.708928
      vertex -0.628259 -1.020000 0.708928
      vertex -0.625817 -1.020000 0.694555
    endloop
  endfacet
  facet normal -0.985871 0.000000 -0.167506
    outer loop
      vertex -0.625817 -1.020000 0.694555
      vertex -0.628259 1.020000 0.708928
      vertex -0.625817 1.020000 0.694555
    endloop
  endfacet
  facet normal 0.985871 -0.000000 0.167506
    outer loop
      vertex -0.625817 1.020000 0.694555
      vertex -0.628259 1.020000 0.708928
      vertex -0.625817 -1.020000 0.694555
    endloop
  endfacet
  facet normal -0.960917 0.000000 -0.276836
    outer loop
      vertex -0.628259 -1.020000 0.708928
      vertex -0.632295 -1.020000 0.722936
      vertex -0.632295 1.020000 0.722936
    endloop
  endfacet
  facet normal 0.960917 -0.000000 0.276836
    outer loop
      vertex -0.632295 1.020000 0.722936
      vertex -0.632295 -1.020000 0.722936
      vertex -0.628259 -1.020000 0.708928
    endloop
  endfacet
  facet normal -0.960917 0.000000 -0.276836
    outer loop
      vertex -0.628259 -1.020000 0.708928
      vertex -0.632295 1.020000 0.722936
      vertex -0.628259 1.020000 0.708928
    endloop
  endfacet
  facet normal 0.960917 -0.000000 0.276836
    outer loop
      vertex -0.628259 1.020000 0.708928
      vertex -0.632295 1.020000 0.722936
      vertex -0.628259 -1.020000 0.708928
    endloop
  endfacet
  facet normal -0.923880 0.000000 -0.382683
    outer loop
      vertex -0.632295 -1.020000 0.722936
      vertex -0.637874 -1.020000 0.736405
      vertex -0.637874 1.020000 0.736405
    endloop
  endfacet
  facet normal 0.923880 -0.000000 0.382683
    outer loop
      vertex -0.637874 1.020000 0.736405
      vertex -0.637874 -1.020000 0.736405
      vertex -0.632295 -1.020000 0.722936
    endloop
  endfacet
  facet normal -0.923880 0.000000 -0.382683
    outer loop
      vertex -0.632295 -1.020000 0.722936
      vertex -0.637874 1.020000 0.736405
      vertex -0.632295 1.020000 0.722936
    endloop
  endfacet
  facet normal 0.923880 -0.000000 0.382683
    outer loop
      vertex -0.632295 1.020000 0.722936
      vertex -0.637874 1.020000 0.736405
      vertex -0.632295 -1.020000 0.722936
    endloop
  endfacet
  facet normal -0.875223 0.000000 -0.483719
    outer loop
      vertex -0.637874 -1.020000 0.736405
      vertex -0.644926 -1.020000 0.749164
      vertex -0.644926 1.020000 0.749164
    endloop
  endfacet
  facet normal 0.875223 -0.000000 0.483719
    outer loop
      vertex -0.644926 1.020000 0.749164
      vertex -0.644926 -1.020000 0.749164
      vertex -0.637874 -1.020000 0.736405
    endloop
  endfacet
  facet normal -0.875223 0.000000 -0.483719
    outer loop
      vertex -0.637874 -1.020000 0.736405
      vertex -0.644926 1.020000 0.749164
      vertex -0.637874 1.020000 0.736405
    endloop
  endfacet
  facet normal 0.875223 -0.000000 0.483719
    outer loop
      vertex -0.637874 1.020000 0.736405
      vertex -0.644926 1.020000 0.749164
      vertex -0.637874 -1.020000 0.736405
    endloop
  endfacet
  facet normal -0.815561 0.000000 -0.578671
    outer loop
      vertex -0.644926 -1.020000 0.749164
      vertex -0.653362 -1.020000 0.761054
      vertex -0.653362 1.020000 0.761054
    endloop
  endfacet
  facet normal 0.815561 -0.000000 0.578671
    outer loop
      vertex -0.653362 1.020000 0.761054
      vertex -0.653362 -1.020000 0.761054
      vertex -0.644926 -1.020000 0.749164
    endloop
  endfacet
  facet normal -0.815561 0.000000 -0.578671
    outer loop
      vertex -0.644926 -1.020000 0.749164
      vertex -0.653362 1.020000 0.761054
      vertex -0.644926 1.020000 0.749164
    endloop
  endfacet
  facet normal 0.815561 -0.000000 0.578671
    outer loop
      vertex -0.644926 1.020000 0.749164
      vertex -0.653362 1.020000 0.761054
      vertex -0.644926 -1.020000 0.749164
    endloop
  endfacet
  facet normal -0.745642 0.000000 -0.666347
    outer loop
      vertex -0.653362 -1.020000 0.761054
      vertex -0.663076 -1.020000 0.771924
      vertex -0.663076 1.020000 0.771924
    endloop
  endfacet
  facet normal 0.745642 -0.000000 0.666347
    outer loop
      vertex -0.663076 1.020000 0.771924
      vertex -0.663076 -1.020000 0.771924
      vertex -0.653362 -1.020000 0.761054
    endloop
  endfacet
  facet normal -0.745642 0.000000 -0.666347
    outer loop
      vertex -0.653362 -1.020000 0.761054
      vertex -0.663076 1.020000 0.771924
      vertex -0.653362 1.020000 0.761054
    endloop
  endfacet
  facet normal 0.745642 -0.000000 0.666347
    outer loop
      vertex -0.653362 1.020000 0.761054
      vertex -0.663076 1.020000 0.771924
      vertex -0.653362 -1.020000 0.761054
    endloop
  endfacet
  facet normal -0.666347 0.000000 -0.745642
    outer loop
      vertex -0.663076 -1.020000 0.771924
      vertex -0.673946 -1.020000 0.781638
      vertex -0.673946 1.020000 0.781638
    endloop
  endfacet
  facet normal 0.666347 -0.000000 0.745642
    outer loop
      vertex -0.673946 1.020000 0.781638
      vertex -0.673946 -1.020000 0.781638
      vertex -0.663076 -1.020000 0.771924
    endloop
  endfacet
  facet normal -0.666347 0.000000 -0.745642
    outer loop
      vertex -0.663076 -1.020000 0.771924
      vertex -0.673946 1.020000 0.781638
      vertex -0.663076 1.020000 0.771924
    endloop
  endfacet
  facet normal 0.666347 -0.000000 0.745642
    outer loop
      vertex -0.663076 1.020000 0.771924
      vertex -0.673946 1.020000 0.781638
      vertex -0.663076 -1.020000 0.771924
    endloop
  endfacet
  facet normal -0.578671 0.000000 -0.815561
    outer loop
      vertex -0.673946 -1.020000 0.781638
      vertex -0.685836 -1.020000 0.790074
      vertex -0.685836 1.020000 0.790074
    endloop
  endfacet
  facet normal 0.578671 -0.000000 0.815561
    outer loop
      vertex -0.685836 1.020000 0.790074
      vertex -0.685836 -1.020000 0.790074
      vertex -0.673946 -1.020000 0.781638
    endloop
  endfacet
  facet normal -0.578671 0.000000 -0.815561
    outer loop
      vertex -0.673946 -1.020000 0.781638
      vertex -0.685836 1.020000 0.790074
      vertex -0.673946 1.020000 0.781638
    endloop
  endfacet
  facet normal 0.578671 -0.000000 0.815561
    outer loop
      vertex -0.673946 1.020000 0.781638
      vertex -0.685836 1.020000 0.790074
      vertex -0.673946 -1.020000 0.781638
    endloop
  endfacet
  facet normal -0.483719 0.000000 -0.875223
    outer loop
      vertex -0.685836 -1.020000 0.790074
      vertex -0.698595 -1.020000 0.797126
      vertex -0.698595 1.020000 0.797126
    endloop
  endfacet
  facet normal 0.483719 -0.000000 0.875223
    outer loop
      vertex -0.698595 1.020000 0.797126
      vertex -0.698595 -1.020000 0.797126
      vertex -0.685836 -1.020000 0.790074
    endloop
  endfacet
  facet normal -0.483719 0.000000 -0.875223
    outer loop
      vertex -0.685836 -1.020000 0.790074
      vertex -0.698595 1.020000 0.797126
      vertex -0.685836 1.020000 0.790074
    endloop
  endfacet
  facet normal 0.483719 -0.000000 0.875223
    outer loop
      vertex -0.685836 1.020000 0.790074
      vertex -0.698595 1.020000 0.797126
      vertex -0.685836 -1.020000 0.790074
    endloop
  endfacet
  facet normal -0.382683 0.000000 -0.923880
    outer loop
      vertex -0.698595 -1.020000 0.797126
      vertex -0.712064 -1.020000 0.802705
      vertex -0.712064 1.020000 0.802705
    endloop
  endfacet
  facet normal 0.382683 -0.000000 0.923880
    outer loop
      vertex -0.712064 1.020000 0.802705
      vertex -0.712064 -1.020000 0.802705
      vertex -0.698595 -1.020000 0.797126
    endloop
  endfacet
  facet normal -0.382683 0.000000 -0.923880
    outer loop
      vertex -0.698595 -1.020000 0.797126
      vertex -0.712064 1.020000 0.802705
      vertex -0.698595 1.020000 0.797126
    endloop
  endfacet
  facet normal 0.382683 -0.000000 0.923880
    outer loop
      vertex -0.698595 1.020000 0.797126
      vertex -0.712064 1.020000 0.802705
      vertex -0.698595 -1.020000 0.797126
    endloop
  endfacet
  facet normal -0.276836 0.000000 -0.960917
    outer loop
      vertex -0.712064 -1.020000 0.802705
      vertex -0.726072 -1.020000 0.806741
      vertex -0.726072 1.020000 0.806741
    endloop
  endfacet
  facet normal 0.276836 -0.000000 0.960917
    outer loop
      vertex -0.726072 1.020000 0.806741
      vertex -0.726072 -1.020000 0.806741
      vertex -0.712064 -1.020000 0.802705
    endloop
  endfacet
  facet normal -0.276836 0.000000 -0.960917
    outer loop
      vertex -0.712064 -1.020000 0.802705
      vertex -0.726072 1.020000 0.806741
      vertex -0.712064 1.020000 0.802705
    endloop
  endfacet
  facet normal 0.276836 -0.000000 0.960917
    outer loop
      vertex -0.712064 1.020000 0.802705
      vertex -0.726072 1.020000 0.806741
      vertex -0.712064 -1.020000 0.802705
    endloop
  endfacet
  facet normal -0.167506 0.000000 -0.985871
    outer loop
      vertex -0.726072 -1.020000 0.806741
      vertex -0.740445 -1.020000 0.809183
      vertex -0.740445 1.020000 0.809183
    endloop
  endfacet
  facet normal 0.167506 -0.000000 0.985871
    outer loop
      vertex -0.740445 1.020000 0.809183
      vertex -0.740445 -1.020000 0.809183
      vertex -0.726072 -1.020000 0.806741
    endloop
  endfacet
  facet normal -0.167506 0.000000 -0.985871
    outer loop
      vertex -0.726072 -1.020000 0.806741
      vertex -0.740445 1.020000 0.809183
      vertex -0.726072 1.020000 0.806741
    endloop
  endfacet
  facet normal 0.167506 -0.000000 0.985871
    outer loop
      vertex -0.726072 1.020000 0.806741
      vertex -0.740445 1.020000 0.809183
      vertex -0.726072 -1.020000 0.806741
    endloop
  endfacet
  facet normal -0.056070 0.000000 -0.998427
    outer loop
      vertex -0.740445 -1.020000 0.809183
      vertex -0.755000 -1.020000 0.810000
      vertex -0.755000 1.020000 0.810000
    endloop
  endfacet
  facet normal 0.056070 -0.000000 0.998427
    outer loop
      vertex -0.755000 1.020000 0.810000
      vertex -0.755000 -1.020000 0.810000
      vertex -0.740445 -1.020000 0.809183
    endloop
  endfacet
  facet normal -0.056070 0.000000 -0.998427
    outer loop
      vertex -0.740445 -1.020000 0.809183
      vertex -0.755000 1.020000 0.810000
      vertex -0.740445 1.020000 0.809183
    endloop
  endfacet
  facet normal 0.056070 -0.000000 0.998427
    outer loop
      vertex -0.740445 1.020000 0.809183
      vertex -0.755000 1.020000 0.810000
      vertex -0.740445 -1.020000 0.809183
    endloop
  endfacet
  facet normal 0.056070 0.000000 -0.998427
    outer loop
      vertex -0.755000 -1.020000 0.810000
      vertex -0.769555 -1.020000 0.809183
      vertex -0.769555 1.020000 0.809183
    endloop
  endfacet
  facet normal -0.056070 -0.000000 0.998427
    outer loop
      vertex -0.769555 1.020000 0.809183
      vertex -0.769555 -1.020000 0.809183
      vertex -0.755000 -1.020000 0.810000
    endloop
  endfacet
  facet normal 0.056070 0.000000 -0.998427
    outer loop
      vertex -0.755000 -1.020000 0.810000
      vertex -0.769555 1.020000 0.809183
      vertex -0.755000 1.020000 0.810000
    endloop
  endfacet
  facet normal -0.056070 -0.000000 0.998427
    outer loop
      vertex -0.755000 1.020000 0.810000
      vertex -0.769555 1.020000 0.809183
      vertex -0.755000 -1.020000 0.810000
    endloop
  endfacet
  facet normal 0.167506 0.000000 -0.985871
    outer loop
      vertex -0.769555 -1.020000 0.809183
      vertex -0.783928 -1.020000 0.806741
      vertex -0.783928 1.020000 0.806741
    endloop
  endfacet
  facet normal -0.167506 -0.000000 0.985871
    outer loop
      vertex -0.783928 1.020000 0.806741
      vertex -0.783928 -1.020000 0.806741
      vertex -0.769555 -1.020000 0.809183
    endloop
  endfacet
  facet normal 0.167506 0.000000 -0.985871
    outer loop
      vertex -0.769555 -1.020000 0.809183
      vertex -0.783928 1.020000 0.806741
      vertex -0.769555 1.020000 0.809183
    endloop
  endfacet
  facet normal -0.167506 -0.000000 0.985871
    outer loop
      vertex -0.769555 1.020000 0.809183
      vertex -0.783928 1.020000 0.806741
      vertex -0.769555 -1.020000 0.809183
    endloop
  endfacet
  facet normal 0.276836 0.000000 -0.960917
    outer loop
      vertex -0.783928 -1.020000 0.806741
      vertex -0.797936 -1.020000 0.802705
      vertex -0.797936 1.020000 0.802705
    endloop
  endfacet
  facet normal -0.276836 -0.000000 0.960917
    outer loop
      vertex -0.797936 1.020000 0.802705
      vertex -0.797936 -1.020000 0.802705
      vertex -0.783928 -1.020000 0.806741
    endloop
  endfacet
  facet normal 0.276836 0.000000 -0.960917
    outer loop
      vertex -0.783928 -1.020000 0.806741
      vertex -0.797936 1.020000 0.802705
      vertex -0.783928 1.020000 0.806741
    endloop
  endfacet
  facet normal -0.276836 -0.000000 0.960917
    outer loop
      vertex -0.783928 1.020000 0.806741
      vertex -0.797936 1.020000 0.802705
      vertex -0.783928 -1.020000 0.806741
    endloop
  endfacet
  facet normal 0.382683 0.000000 -0.923880
    outer loop
      vertex -0.797936 -1.020000 0.802705
      vertex -0.811405 -1.020000 0.797126
      vertex -0.811405 1.020000 0.797126
    endloop
  endfacet
  facet normal -0.382683 -0.000000 0.923880
    outer loop
      vertex -0.811405 1.020000 0.797126
      vertex -0.811405 -1.020000 0.797126
      vertex -0.797936 -1.020000 0.802705
    endloop
  endfacet
  facet normal 0.382683 0.000000 -0.923880
    outer loop
      vertex -0.797936 -1.020000 0.802705
      vertex -0.811405 1.020000 0.797126
      vertex -0.797936 1.020000 0.802705
    endloop
  endfacet
  facet normal -0.382683 -0.000000 0.923880
    outer loop
      vertex -0.797936 1.020000 0.802705
      vertex -0.811405 1.020000 0.797126
      vertex -0.797936 -1.020000 0.802705
    endloop
  endfacet
  facet normal 0.483719 0.000000 -0.875223
    outer loop
      vertex -0.811405 -1.020000 0.797126
      vertex -0.811887 -1.020000 0.796859
      vertex -0.811887 1.020000 0.796859
    endloop
  endfacet
  facet normal -0.483719 -0.000000 0.875223
    outer loop
      vertex -0.811887 1.020000 0.796859
      vertex -0.811887 -1.020000 0.796859
      vertex -0.811405 -1.020000 0.797126
    endloop
  endfacet
  facet normal 0.483719 0.000000 -0.875223
    outer loop
      vertex -0.811405 -1.020000 0.797126
      vertex -0.811887 1.020000 0.796859
      vertex -0.811405 1.020000 0.797126
    endloop
  endfacet
  facet normal -0.483719 -0.000000 0.875223
    outer loop
      vertex -0.811405 1.020000 0.797126
      vertex -0.811887 1.020000 0.796859
      vertex -0.811405 -1.020000 0.797126
    endloop
  endfacet
  facet normal -0.999219 0.000000 0.039522
    outer loop
      vertex -0.811887 -1.020000 0.796859
      vertex -0.795753 -1.020000 1.204771
      vertex -0.795753 1.020000 1.204771
    endloop
  endfacet
  facet normal 0.999219 -0.000000 -0.039522
    outer loop
      vertex -0.795753 1.020000 1.204771
      vertex -0.795753 -1.020000 1.204771
      vertex -0.811887 -1.020000 0.796859
    endloop
  endfacet
  facet normal -0.999219 0.000000 0.039522
    outer loop
      vertex -0.811887 -1.020000 0.796859
      vertex -0.795753 1.020000 1.204771
      vertex -0.811887 1.020000 0.796859
    endloop
  endfacet
  facet normal 0.999219 -0.000000 -0.039522
    outer loop
      vertex -0.811887 1.020000 0.796859
      vertex -0.795753 1.020000 1.204771
      vertex -0.811887 -1.020000 0.796859
    endloop
  endfacet
  facet normal -0.996002 0.000000 0.089334
    outer loop
      vertex -0.795753 -1.020000 1.204771
      vertex -0.795218 -1.020000 1.210735
      vertex -0.795218 1.020000 1.210735
    endloop
  endfacet
  facet normal 0.996002 -0.000000 -0.089334
    outer loop
      vertex -0.795218 1.020000 1.210735
      vertex -0.795218 -1.020000 1.210735
      vertex -0.795753 -1.020000 1.204771
    endloop
  endfacet
  facet normal -0.996002 0.000000 0.089334
    outer loop
      vertex -0.795753 -1.020000 1.204771
      vertex -0.795218 1.020000 1.210735
      vertex -0.795753 1.020000 1.204771
    endloop
  endfacet
  facet normal 0.996002 -0.000000 -0.089334
    outer loop
      vertex -0.795753 1.020000 1.204771
      vertex -0.795218 1.020000 1.210735
      vertex -0.795753 -1.020000 1.204771
    endloop
  endfacet
  facet normal -0.982137 0.000000 0.188166
    outer loop
      vertex -0.795218 -1.020000 1.210735
      vertex -0.794091 -1.020000 1.216616
      vertex -0.794091 1.020000 1.216616
    endloop
  endfacet
  facet normal 0.982137 -0.000000 -0.188166
    outer loop
      vertex -0.794091 1.020000 1.216616
      vertex -0.794091 -1.020000 1.216616
      vertex -0.795218 -1.020000 1.210735
    endloop
  endfacet
  facet normal -0.982137 0.000000 0.188166
    outer loop
      vertex -0.795218 -1.020000 1.210735
      vertex -0.794091 1.020000 1.216616
      vertex -0.795218 1.020000 1.210735
    endloop
  endfacet
  facet normal 0.982137 -0.000000 -0.188166
    outer loop
      vertex -0.795218 1.020000 1.210735
      vertex -0.794091 1.020000 1.216616
      vertex -0.795218 -1.020000 1.210735
    endloop
  endfacet
  facet normal -0.958490 0.000000 0.285125
    outer loop
      vertex -0.794091 -1.020000 1.216616
      vertex -0.792384 -1.020000 1.222356
      vertex -0.792384 1.020000 1.222356
    endloop
  endfacet
  facet normal 0.958490 -0.000000 -0.285125
    outer loop
      vertex -0.792384 1.020000 1.222356
      vertex -0.792384 -1.020000 1.222356
      vertex -0.794091 -1.020000 1.216616
    endloop
  endfacet
  facet normal -0.958490 0.000000 0.285125
    outer loop
      vertex -0.794091 -1.020000 1.216616
      vertex -0.792384 1.020000 1.222356
      vertex -0.794091 1.020000 1.216616
    endloop
  endfacet
  facet normal 0.958490 -0.000000 -0.285125
    outer loop
      vertex -0.794091 1.020000 1.216616
      vertex -0.792384 1.020000 1.222356
      vertex -0.794091 -1.020000 1.216616
    endloop
  endfacet
  facet normal -0.925297 0.000000 0.379243
    outer loop
      vertex -0.792384 -1.020000 1.222356
      vertex -0.790113 -1.020000 1.227897
      vertex -0.790113 1.020000 1.227897
    endloop
  endfacet
  facet normal 0.925297 -0.000000 -0.379243
    outer loop
      vertex -0.790113 1.020000 1.227897
      vertex -0.790113 -1.020000 1.227897
      vertex -0.792384 -1.020000 1.222356
    endloop
  endfacet
  facet normal -0.925297 0.000000 0.379243
    outer loop
      vertex -0.792384 -1.020000 1.222356
      vertex -0.790113 1.020000 1.227897
      vertex -0.792384 1.020000 1.222356
    endloop
  endfacet
  facet normal 0.925297 -0.000000 -0.379243
    outer loop
      vertex -0.792384 1.020000 1.222356
      vertex -0.790113 1.020000 1.227897
      vertex -0.792384 -1.020000 1.222356
    endloop
  endfacet
  facet normal -0.882888 0.000000 0.469585
    outer loop
      vertex -0.790113 -1.020000 1.227897
      vertex -0.787301 -1.020000 1.233183
      vertex -0.787301 1.020000 1.233183
    endloop
  endfacet
  facet normal 0.882888 -0.000000 -0.469585
    outer loop
      vertex -0.787301 1.020000 1.233183
      vertex -0.787301 -1.020000 1.233183
      vertex -0.790113 -1.020000 1.227897
    endloop
  endfacet
  facet normal -0.882888 0.000000 0.469585
    outer loop
      vertex -0.790113 -1.020000 1.227897
      vertex -0.787301 1.020000 1.233183
      vertex -0.790113 1.020000 1.227897
    endloop
  endfacet
  facet normal 0.882888 -0.000000 -0.469585
    outer loop
      vertex -0.790113 1.020000 1.227897
      vertex -0.787301 1.020000 1.233183
      vertex -0.790113 -1.020000 1.227897
    endloop
  endfacet
  facet normal -0.831684 0.000000 0.555249
    outer loop
      vertex -0.787301 -1.020000 1.233183
      vertex -0.783976 -1.020000 1.238163
      vertex -0.783976 1.020000 1.238163
    endloop
  endfacet
  facet normal 0.831684 -0.000000 -0.555249
    outer loop
      vertex -0.783976 1.020000 1.238163
      vertex -0.783976 -1.020000 1.238163
      vertex -0.787301 -1.020000 1.233183
    endloop
  endfacet
  facet normal -0.831684 0.000000 0.555249
    outer loop
      vertex -0.787301 -1.020000 1.233183
      vertex -0.783976 1.020000 1.238163
      vertex -0.787301 1.020000 1.233183
    endloop
  endfacet
  facet normal 0.831684 -0.000000 -0.555249
    outer loop
      vertex -0.787301 1.020000 1.233183
      vertex -0.783976 1.020000 1.238163
      vertex -0.787301 -1.020000 1.233183
    endloop
  endfacet
endsolid mesh
