solid mesh
  facet normal 0.000000 1.000000 0.000000
    outer loop
      vertex -0.820933 -1.020000 0.568140
      vertex -0.811405 -1.020000 0.562874
      vertex -0.841445 -1.020000 0.049542
    endloop
  endfacet
  facet normal -0.000000 -1.000000 -0.000000
    outer loop
      vertex -0.841445 -1.020000 0.049542
      vertex -0.811405 -1.020000 0.562874
      vertex -0.820933 -1.020000 0.568140
    endloop
  endfacet
  facet normal 0.000000 -1.000000 -0.000000
    outer loop
      vertex -0.820933 1.020000 0.568140
      vertex -0.841445 1.020000 0.049542
      vertex -0.811405 1.020000 0.562874
    endloop
  endfacet
  facet normal -0.000000 1.000000 0.000000
    outer loop
      vertex -0.811405 1.020000 0.562874
      vertex -0.841445 1.020000 0.049542
      vertex -0.820933 1.020000 0.568140
    endloop
  endfacet
  facet normal 0.000000 1.000000 0.000000
    outer loop
      vertex -0.725000 -1.020000 0.553568
      vertex -0.725000 -1.020000 0.049542
      vertex -0.726072 -1.020000 0.553259
    endloop
  endfacet
  facet normal -0.000000 -1.000000 -0.000000
    outer loop
      vertex -0.726072 -1.020000 0.553259
      vertex -0.725000 -1.020000 0.049542
      vertex -0.725000 -1.020000 0.553568
    endloop
  endfacet
  facet normal 0.000000 -1.000000 -0.000000
    outer loop
      vertex -0.725000 1.020000 0.553568
      vertex -0.726072 1.020000 0.553259
      vertex -0.725000 1.020000 0.049542
    endloop
  endfacet
  facet normal -0.000000 1.000000 0.000000
    outer loop
      vertex -0.725000 1.020000 0.049542
      vertex -0.726072 1.020000 0.553259
      vertex -0.725000 1.020000 0.553568
    endloop
  endfacet
  facet normal 0.000000 1.000000 0.000000
    outer loop
      vertex -0.725000 -1.020000 0.049542
      vertex -0.740445 -1.020000 0.550817
      vertex -0.726072 -1.020000 0.553259
    endloop
  endfacet
  facet normal -0.000000 -1.000000 -0.000000
    outer loop
      vertex -0.726072 -1.020000 0.553259
      vertex -0.740445 -1.020000 0.550817
      vertex -0.725000 -1.020000 0.049542
    endloop
  endfacet
  facet normal 0.000000 -1.000000 0.000000
    outer loop
      vertex -0.725000 1.020000 0.049542
      vertex -0.726072 1.020000 0.553259
      vertex -0.740445 1.020000 0.550817
    endloop
  endfacet
  facet normal -0.000000 1.000000 -0.000000
    outer loop
      vertex -0.740445 1.020000 0.550817
      vertex -0.726072 1.020000 0.553259
      vertex -0.725000 1.020000 0.049542
    endloop
  endfacet
  facet normal 0.000000 1.000000 0.000000
    outer loop
      vertex -0.725000 -1.020000 0.049542
      vertex -0.755000 -1.020000 0.550000
      vertex -0.740445 -1.020000 0.550817
    endloop
  endfacet
  facet normal -0.000000 -1.000000 -0.000000
    outer loop
      vertex -0.740445 -1.020000 0.550817
      vertex -0.755000 -1.020000 0.550000
      vertex -0.725000 -1.020000 0.049542
    endloop
  endfacet
  facet normal 0.000000 -1.000000 0.000000
    outer loop
      vertex -0.725000 1.020000 0.049542
      vertex -0.740445 1.020000 0.550817
      vertex -0.755000 1.020000 0.550000
    endloop
  endfacet
  facet normal -0.000000 1.000000 -0.000000
    outer loop
      vertex -0.755000 1.020000 0.550000
      vertex -0.740445 1.020000 0.550817
      vertex -0.725000 1.020000 0.049542
    endloop
  endfacet
  facet normal 0.000000 1.000000 0.000000
    outer loop
      vertex -0.725000 -1.020000 0.049542
      vertex -0.769555 -1.020000 0.550817
      vertex -0.755000 -1.020000 0.550000
    endloop
  endfacet
  facet normal -0.000000 -1.000000 -0.000000
    outer loop
      vertex -0.755000 -1.020000 0.550000
      vertex -0.769555 -1.020000 0.550817
      vertex -0.725000 -1.020000 0.049542
    endloop
  endfacet
  facet normal 0.000000 -1.000000 0.000000
    outer loop
      vertex -0.725000 1.020000 0.049542
      vertex -0.755000 1.020000 0.550000
      vertex -0.769555 1.020000 0.550817
    endloop
  endfacet
  facet normal -0.000000 1.000000 -0.000000
    outer loop
      vertex -0.769555 1.020000 0.550817
      vertex -0.755000 1.020000 0.550000
      vertex -0.725000 1.020000 0.049542
    endloop
  endfacet
  facet normal 0.000000 1.000000 0.000000
    outer loop
      vertex -0.725000 -1.020000 0.049542
      vertex -0.841445 -1.020000 0.049542
      vertex -0.769555 -1.020000 0.550817
    endloop
  endfacet
  facet normal -0.000000 -1.000000 -0.000000
    outer loop
      vertex -0.769555 -1.020000 0.550817
      vertex -0.841445 -1.020000 0.049542
      vertex -0.725000 -1.020000 0.049542
    endloop
  endfacet
  facet normal 0.000000 -1.000000 0.000000
    outer loop
      vertex -0.725000 1.020000 0.049542
      vertex -0.769555 1.020000 0.550817
      vertex -0.841445 1.020000 0.049542
    endloop
  endfacet
  facet normal -0.000000 1.000000 -0.000000
    outer loop
      vertex -0.841445 1.020000 0.049542
      vertex -0.769555 1.020000 0.550817
      vertex -0.725000 1.020000 0.049542
    endloop
  endfacet
  facet normal 0.000000 1.000000 0.000000
    outer loop
      vertex -0.841445 -1.020000 0.049542
      vertex -0.783928 -1.020000 0.553259
      vertex -0.769555 -1.020000 0.550817
    endloop
  endfacet
  facet normal -0.000000 -1.000000 -0.000000
    outer loop
      vertex -0.769555 -1.020000 0.550817
      vertex -0.783928 -1.020000 0.553259
      vertex -0.841445 -1.020000 0.049542
    endloop
  endfacet
  facet normal 0.000000 -1.000000 0.000000
    outer loop
      vertex -0.841445 1.020000 0.049542
      vertex -0.769555 1.020000 0.550817
      vertex -0.783928 1.020000 0.553259
    endloop
  endfacet
  facet normal -0.000000 1.000000 -0.000000
    outer loop
      vertex -0.783928 1.020000 0.553259
      vertex -0.769555 1.020000 0.550817
      vertex -0.841445 1.020000 0.049542
    endloop
  endfacet
  facet normal 0.000000 1.000000 0.000000
    outer loop
      vertex -0.841445 -1.020000 0.049542
      vertex -0.797936 -1.020000 0.557295
      vertex -0.783928 -1.020000 0.553259
    endloop
  endfacet
  facet normal -0.000000 -1.000000 -0.000000
    outer loop
      vertex -0.783928 -1.020000 0.553259
      vertex -0.797936 -1.020000 0.557295
      vertex -0.841445 -1.020000 0.049542
    endloop
  endfacet
  facet normal 0.000000 -1.000000 0.000000
    outer loop
      vertex -0.841445 1.020000 0.049542
      vertex -0.783928 1.020000 0.553259
      vertex -0.797936 1.020000 0.557295
    endloop
  endfacet
  facet normal -0.000000 1.000000 -0.000000
    outer loop
      vertex -0.797936 1.020000 0.557295
      vertex -0.783928 1.020000 0.553259
      vertex -0.841445 1.020000 0.049542
    endloop
  endfacet
  facet normal 0.000000 1.000000 0.000000
    outer loop
      vertex -0.841445 -1.020000 0.049542
      vertex -0.811405 -1.020000 0.562874
      vertex -0.797936 -1.020000 0.557295
    endloop
  endfacet
  facet normal -0.000000 -1.000000 -0.000000
    outer loop
      vertex -0.797936 -1.020000 0.557295
      vertex -0.811405 -1.020000 0.562874
      vertex -0.841445 -1.020000 0.049542
    endloop
  endfacet
  facet normal 0.000000 -1.000000 0.000000
    outer loop
      vertex -0.841445 1.020000 0.049542
      vertex -0.797936 1.020000 0.557295
      vertex -0.811405 1.020000 0.562874
    endloop
  endfacet
  facet normal -0.000000 1.000000 -0.000000
    outer loop
      vertex -0.811405 1.020000 0.562874
      vertex -0.797936 1.020000 0.557295
      vertex -0.841445 1.020000 0.049542
    endloop
  endfacet
  facet normal 0.483719 0.000000 0.875223
    outer loop
      vertex -0.820933 -1.020000 0.568140
      vertex -0.811405 -1.020000 0.562874
      vertex -0.811405 1.020000 0.562874
    endloop
  endfacet
  facet normal -0.483719 -0.000000 -0.875223
    outer loop
      vertex -0.811405 1.020000 0.562874
      vertex -0.811405 -1.020000 0.562874
      vertex -0.820933 -1.020000 0.568140
    endloop
  endfacet
  facet normal 0.483719 -0.000000 0.875223
    outer loop
      vertex -0.820933 -1.020000 0.568140
      vertex -0.811405 1.020000 0.562874
      vertex -0.820933 1.020000 0.568140
    endloop
  endfacet
  facet normal -0.483719 0.000000 -0.875223
    outer loop
      vertex -0.820933 1.020000 0.568140
      vertex -0.811405 1.020000 0.562874
      vertex -0.820933 -1.020000 0.568140
    endloop
  endfacet
  facet normal 0.382683 0.000000 0.923880
    outer loop
      vertex -0.811405 -1.020000 0.562874
      vertex -0.797936 -1.020000 0.557295
      vertex -0.797936 1.020000 0.557295
    endloop
  endfacet
  facet normal -0.382683 -0.000000 -0.923880
    outer loop
      vertex -0.797936 1.020000 0.557295
      vertex -0.797936 -1.020000 0.557295
      vertex -0.811405 -1.020000 0.562874
    endloop
  endfacet
  facet normal 0.382683 -0.000000 0.923880
    outer loop
      vertex -0.811405 -1.020000 0.562874
      vertex -0.797936 1.020000 0.557295
      vertex -0.811405 1.020000 0.562874
    endloop
  endfacet
  facet normal -0.382683 0.000000 -0.923880
    outer loop
      vertex -0.811405 1.020000 0.562874
      vertex -0.797936 1.020000 0.557295
      vertex -0.811405 -1.020000 0.562874
    endloop
  endfacet
  facet normal 0.276836 0.000000 0.960917
    outer loop
      vertex -0.797936 -1.020000 0.557295
      vertex -0.783928 -1.020000 0.553259
      vertex -0.783928 1.020000 0.553259
    endloop
  endfacet
  facet normal -0.276836 -0.000000 -0.960917
    outer loop
      vertex -0.783928 1.020000 0.553259
      vertex -0.783928 -1.020000 0.553259
      vertex -0.797936 -1.020000 0.557295
    endloop
  endfacet
  facet normal 0.276836 -0.000000 0.960917
    outer loop
      vertex -0.797936 -1.020000 0.557295
      vertex -0.783928 1.020000 0.553259
      vertex -0.797936 1.020000 0.557295
    endloop
  endfacet
  facet normal -0.276836 0.000000 -0.960917
    outer loop
      vertex -0.797936 1.020000 0.557295
      vertex -0.783928 1.020000 0.553259
      vertex -0.797936 -1.020000 0.557295
    endloop
  endfacet
  facet normal 0.167506 0.000000 0.985871
    outer loop
      vertex -0.783928 -1.020000 0.553259
      vertex -0.769555 -1.020000 0.550817
      vertex -0.769555 1.020000 0.550817
    endloop
  endfacet
  facet normal -0.167506 -0.000000 -0.985871
    outer loop
      vertex -0.769555 1.020000 0.550817
      vertex -0.769555 -1.020000 0.550817
      vertex -0.783928 -1.020000 0.553259
    endloop
  endfacet
  facet normal 0.167506 -0.000000 0.985871
    outer loop
      vertex -0.783928 -1.020000 0.553259
      vertex -0.769555 1.020000 0.550817
      vertex -0.783928 1.020000 0.553259
    endloop
  endfacet
  facet normal -0.167506 0.000000 -0.985871
    outer loop
      vertex -0.783928 1.020000 0.553259
      vertex -0.769555 1.020000 0.550817
      vertex -0.783928 -1.020000 0.553259
    endloop
  endfacet
  facet normal 0.056070 0.000000 0.998427
    outer loop
      vertex -0.769555 -1.020000 0.550817
      vertex -0.755000 -1.020000 0.550000
      vertex -0.755000 1.020000 0.550000
    endloop
  endfacet
  facet normal -0.056070 -0.000000 -0.998427
    outer loop
      vertex -0.755000 1.020000 0.550000
      vertex -0.755000 -1.020000 0.550000
      vertex -0.769555 -1.020000 0.550817
    endloop
  endfacet
  facet normal 0.056070 -0.000000 0.998427
    outer loop
      vertex -0.769555 -1.020000 0.550817
      vertex -0.755000 1.020000 0.550000
      vertex -0.769555 1.020000 0.550817
    endloop
  endfacet
  facet normal -0.056070 0.000000 -0.998427
    outer loop
      vertex -0.769555 1.020000 0.550817
      vertex -0.755000 1.020000 0.550000
      vertex -0.769555 -1.020000 0.550817
    endloop
  endfacet
  facet normal -0.056070 0.000000 0.998427
    outer loop
      vertex -0.755000 -1.020000 0.550000
      vertex -0.740445 -1.020000 0.550817
      vertex -0.740445 1.020000 0.550817
    endloop
  endfacet
  facet normal 0.056070 -0.000000 -0.998427
    outer loop
      vertex -0.740445 1.020000 0.550817
      vertex -0.740445 -1.020000 0.550817
      vertex -0.755000 -1.020000 0.550000
    endloop
  endfacet
  facet normal -0.056070 0.000000 0.998427
    outer loop
      vertex -0.755000 -1.020000 0.550000
      vertex -0.740445 1.020000 0.550817
      vertex -0.755000 1.020000 0.550000
    endloop
  endfacet
  facet normal 0.056070 -0.000000 -0.998427
    outer loop
      vertex -0.755000 1.020000 0.550000
      vertex -0.740445 1.020000 0.550817
      vertex -0.755000 -1.020000 0.550000
    endloop
  endfacet
  facet normal -0.167506 0.000000 0.985871
    outer loop
      vertex -0.740445 -1.020000 0.550817
      vertex -0.726072 -1.020000 0.553259
      vertex -0.726072 1.020000 0.553259
    endloop
  endfacet
  facet normal 0.167506 -0.000000 -0.985871
    outer loop
      vertex -0.726072 1.020000 0.553259
      vertex -0.726072 -1.020000 0.553259
      vertex -0.740445 -1.020000 0.550817
    endloop
  endfacet
  facet normal -0.167506 0.000000 0.985871
    outer loop
      vertex -0.740445 -1.020000 0.550817
      vertex -0.726072 1.020000 0.553259
      vertex -0.740445 1.020000 0.550817
    endloop
  endfacet
  facet normal 0.167506 -0.000000 -0.985871
    outer loop
      vertex -0.740445 1.020000 0.550817
      vertex -0.726072 1.020000 0.553259
      vertex -0.740445 -1.020000 0.550817
    endloop
  endfacet
  facet normal -0.276836 0.000000 0.960917
    outer loop
      vertex -0.726072 -1.020000 0.553259
      vertex -0.725000 -1.020000 0.553568
      vertex -0.725000 1.020000 0.553568
    endloop
  endfacet
  facet normal 0.276836 -0.000000 -0.960917
    outer loop
      vertex -0.725000 1.020000 0.553568
      vertex -0.725000 -1.020000 0.553568
      vertex -0.726072 -1.020000 0.553259
    endloop
  endfacet
  facet normal -0.276836 0.000000 0.960917
    outer loop
      vertex -0.726072 -1.020000 0.553259
      vertex -0.725000 1.020000 0.553568
      vertex -0.726072 1.020000 0.553259
    endloop
  endfacet
  facet normal 0.276836 -0.000000 -0.960917
    outer loop
      vertex -0.726072 1.020000 0.553259
      vertex -0.725000 1.020000 0.553568
      vertex -0.726072 -1.020000 0.553259
    endloop
  endfacet
  facet normal 1.000000 0.000000 0.000000
    outer loop
      vertex -0.725000 -1.020000 0.553568
      vertex -0.725000 -1.020000 0.049542
      vertex -0.725000 1.020000 0.049542
    endloop
  endfacet
  facet normal -1.000000 -0.000000 -0.000000
    outer loop
      vertex -0.725000 1.020000 0.049542
      vertex -0.725000 -1.020000 0.049542
      vertex -0.725000 -1.020000 0.553568
    endloop
  endfacet
  facet normal 1.000000 -0.000000 0.000000
    outer loop
      vertex -0.725000 -1.020000 0.553568
      vertex -0.725000 1.020000 0.049542
      vertex -0.725000 1.020000 0.553568
    endloop
  endfacet
  facet normal -1.000000 0.000000 -0.000000
    outer loop
      vertex -0.725000 1.020000 0.553568
      vertex -0.725000 1.020000 0.049542
      vertex -0.725000 -1.020000 0.553568
    endloop
  endfacet
  facet normal 0.000000 0.000000 -1.000000
    outer loop
      vertex -0.725000 -1.020000 0.049542
      vertex -0.841445 -1.020000 0.049542
      vertex -0.841445 1.020000 0.049542
    endloop
  endfacet
  facet normal -0.000000 -0.000000 1.000000
    outer loop
      vertex -0.841445 1.020000 0.049542
      vertex -0.841445 -1.020000 0.049542
      vertex -0.725000 -1.020000 0.049542
    endloop
  endfacet
  facet normal 0.000000 0.000000 -1.000000
    outer loop
      vertex -0.725000 -1.020000 0.049542
      vertex -0.841445 1.020000 0.049542
      vertex -0.725000 1.020000 0.049542
    endloop
  endfacet
  facet normal -0.000000 -0.000000 1.000000
    outer loop
      vertex -0.725000 1.020000 0.049542
      vertex -0.841445 1.020000 0.049542
      vertex -0.725000 -1.020000 0.049542
    endloop
  endfacet
  facet normal -0.999219 0.000000 0.039522
    outer loop
      vertex -0.841445 -1.020000 0.049542
      vertex -0.820933 -1.020000 0.568140
      vertex -0.820933 1.020000 0.568140
    endloop
  endfacet
  facet normal 0.999219 -0.000000 -0.039522
    outer loop
      vertex -0.820933 1.020000 0.568140
      vertex -0.820933 -1.020000 0.568140
      vertex -0.841445 -1.020000 0.049542
    endloop
  endfacet
  facet normal -0.999219 0.000000 0.039522
    outer loop
      vertex -0.841445 -1.020000 0.049542
      vertex -0.820933 1.020000 0.568140
      vertex -0.841445 1.020000 0.049542
    endloop
  endfacet
  facet normal 0.999219 -0.000000 -0.039522
    outer loop
      vertex -0.841445 1.020000 0.049542
      vertex -0.820933 1.020000 0.568140
      vertex -0.841445 -1.020000 0.049542
    endloop
  endfacet
endsolid mesh
