solid mesh
  facet normal -0.000000 1.000000 0.000000
    outer loop
      vertex -0.935250 -1.020000 1.405001
      vertex -0.926831 -1.020000 1.412965
      vertex -0.938843 -1.020000 1.400447
    endloop
  endfacet
  facet normal 0.000000 -1.000000 -0.000000
    outer loop
      vertex -0.938843 -1.020000 1.400447
      vertex -0.926831 -1.020000 1.412965
      vertex -0.935250 -1.020000 1.405001
    endloop
  endfacet
  facet normal 0.000000 -1.000000 -0.000000
    outer loop
      vertex -0.935250 1.020000 1.405001
      vertex -0.938843 1.020000 1.400447
      vertex -0.926831 1.020000 1.412965
    endloop
  endfacet
  facet normal -0.000000 1.000000 0.000000
    outer loop
      vertex -0.926831 1.020000 1.412965
      vertex -0.938843 1.020000 1.400447
      vertex -0.935250 1.020000 1.405001
    endloop
  endfacet
  facet normal 0.000000 1.000000 0.000000
    outer loop
      vertex -0.935250 -1.020000 1.405001
      vertex -0.931233 -1.020000 1.409187
      vertex -0.926831 -1.020000 1.412965
    endloop
  endfacet
  facet normal -0.000000 -1.000000 -0.000000
    outer loop
      vertex -0.926831 -1.020000 1.412965
      vertex -0.931233 -1.020000 1.409187
      vertex -0.935250 -1.020000 1.405001
    endloop
  endfacet
  facet normal 0.000000 -1.000000 0.000000
    outer loop
      vertex -0.935250 1.020000 1.405001
      vertex -0.926831 1.020000 1.412965
      vertex -0.931233 1.020000 1.409187
    endloop
  endfacet
  facet normal -0.000000 1.000000 -0.000000
    outer loop
      vertex -0.931233 1.020000 1.409187
      vertex -0.926831 1.020000 1.412965
      vertex -0.935250 1.020000 1.405001
    endloop
  endfacet
  facet normal 0.000000 1.000000 0.000000
    outer loop
      vertex -0.926831 -1.020000 1.412965
      vertex -0.941980 -1.020000 1.395567
      vertex -0.938843 -1.020000 1.400447
    endloop
  endfacet
  facet normal -0.000000 -1.000000 -0.000000
    outer loop
      vertex -0.938843 -1.020000 1.400447
      vertex -0.941980 -1.020000 1.395567
      vertex -0.926831 -1.020000 1.412965
    endloop
  endfacet
  facet normal 0.000000 -1.000000 0.000000
    outer loop
      vertex -0.926831 1.020000 1.412965
      vertex -0.938843 1.020000 1.400447
      vertex -0.941980 1.020000 1.395567
    endloop
  endfacet
  facet normal -0.000000 1.000000 -0.000000
    outer loop
      vertex -0.941980 1.020000 1.395567
      vertex -0.938843 1.020000 1.400447
      vertex -0.926831 1.020000 1.412965
    endloop
  endfacet
  facet normal 0.000000 1.000000 0.000000
    outer loop
      vertex -0.926831 -1.020000 1.412965
      vertex -0.949445 -1.020000 1.373740
      vertex -0.941980 -1.020000 1.395567
    endloop
  endfacet
  facet normal -0.000000 -1.000000 -0.000000
    outer loop
      vertex -0.941980 -1.020000 1.395567
      vertex -0.949445 -1.020000 1.373740
      vertex -0.926831 -1.020000 1.412965
    endloop
  endfacet
  facet normal 0.000000 -1.000000 0.000000
    outer loop
      vertex -0.926831 1.020000 1.412965
      vertex -0.941980 1.020000 1.395567
      vertex -0.949445 1.020000 1.373740
    endloop
  endfacet
  facet normal -0.000000 1.000000 -0.000000
    outer loop
      vertex -0.949445 1.020000 1.373740
      vertex -0.941980 1.020000 1.395567
      vertex -0.926831 1.020000 1.412965
    endloop
  endfacet
  facet normal 0.000000 1.000000 0.000000
    outer loop
      vertex -0.926831 -1.020000 1.412965
      vertex -0.949954 -1.020000 1.367961
      vertex -0.949445 -1.020000 1.373740
    endloop
  endfacet
  facet normal -0.000000 -1.000000 -0.000000
    outer loop
      vertex -0.949445 -1.020000 1.373740
      vertex -0.949954 -1.020000 1.367961
      vertex -0.926831 -1.020000 1.412965
    endloop
  endfacet
  facet normal 0.000000 -1.000000 0.000000
    outer loop
      vertex -0.926831 1.020000 1.412965
      vertex -0.949445 1.020000 1.373740
      vertex -0.949954 1.020000 1.367961
    endloop
  endfacet
  facet normal -0.000000 1.000000 -0.000000
    outer loop
      vertex -0.949954 1.020000 1.367961
      vertex -0.949445 1.020000 1.373740
      vertex -0.926831 1.020000 1.412965
    endloop
  endfacet
  facet normal -0.000000 1.000000 0.000000
    outer loop
      vertex -0.926831 -1.020000 1.412965
      vertex -0.911740 -1.020000 1.421523
      vertex -0.949954 -1.020000 1.367961
    endloop
  endfacet
  facet normal 0.000000 -1.000000 -0.000000
    outer loop
      vertex -0.949954 -1.020000 1.367961
      vertex -0.911740 -1.020000 1.421523
      vertex -0.926831 -1.020000 1.412965
    endloop
  endfacet
  facet normal 0.000000 -1.000000 -0.000000
    outer loop
      vertex -0.926831 1.020000 1.412965
      vertex -0.949954 1.020000 1.367961
      vertex -0.911740 1.020000 1.421523
    endloop
  endfacet
  facet normal -0.000000 1.000000 0.000000
    outer loop
      vertex -0.911740 1.020000 1.421523
      vertex -0.949954 1.020000 1.367961
      vertex -0.926831 1.020000 1.412965
    endloop
  endfacet
  facet normal 0.000000 1.000000 0.000000
    outer loop
      vertex -0.926831 -1.020000 1.412965
      vertex -0.922085 -1.020000 1.416301
      vertex -0.911740 -1.020000 1.421523
    endloop
  endfacet
  facet normal -0.000000 -1.000000 -0.000000
    outer loop
      vertex -0.911740 -1.020000 1.421523
      vertex -0.922085 -1.020000 1.416301
      vertex -0.926831 -1.020000 1.412965
    endloop
  endfacet
  facet normal 0.000000 -1.000000 0.000000
    outer loop
      vertex -0.926831 1.020000 1.412965
      vertex -0.911740 1.020000 1.421523
      vertex -0.922085 1.020000 1.416301
    endloop
  endfacet
  facet normal -0.000000 1.000000 -0.000000
    outer loop
      vertex -0.922085 1.020000 1.416301
      vertex -0.911740 1.020000 1.421523
      vertex -0.926831 1.020000 1.412965
    endloop
  endfacet
  facet normal 0.000000 1.000000 0.000000
    outer loop
      vertex -0.922085 -1.020000 1.416301
      vertex -0.917039 -1.020000 1.419162
      vertex -0.911740 -1.020000 1.421523
    endloop
  endfacet
  facet normal -0.000000 -1.000000 -0.000000
    outer loop
      vertex -0.911740 -1.020000 1.421523
      vertex -0.917039 -1.020000 1.419162
      vertex -0.922085 -1.020000 1.416301
    endloop
  endfacet
  facet normal 0.000000 -1.000000 0.000000
    outer loop
      vertex -0.922085 1.020000 1.416301
      vertex -0.911740 1.020000 1.421523
      vertex -0.917039 1.020000 1.419162
    endloop
  endfacet
  facet normal -0.000000 1.000000 -0.000000
    outer loop
      vertex -0.917039 1.020000 1.419162
      vertex -0.911740 1.020000 1.421523
      vertex -0.922085 1.020000 1.416301
    endloop
  endfacet
  facet normal -0.000000 1.000000 0.000000
    outer loop
      vertex -0.911740 -1.020000 1.421523
      vertex -0.900583 -1.020000 1.424659
      vertex -0.949954 -1.020000 1.367961
    endloop
  endfacet
  facet normal 0.000000 -1.000000 -0.000000
    outer loop
      vertex -0.949954 -1.020000 1.367961
      vertex -0.900583 -1.020000 1.424659
      vertex -0.911740 -1.020000 1.421523
    endloop
  endfacet
  facet normal 0.000000 -1.000000 -0.000000
    outer loop
      vertex -0.911740 1.020000 1.421523
      vertex -0.949954 1.020000 1.367961
      vertex -0.900583 1.020000 1.424659
    endloop
  endfacet
  facet normal -0.000000 1.000000 0.000000
    outer loop
      vertex -0.900583 1.020000 1.424659
      vertex -0.949954 1.020000 1.367961
      vertex -0.911740 1.020000 1.421523
    endloop
  endfacet
  facet normal 0.000000 1.000000 0.000000
    outer loop
      vertex -0.911740 -1.020000 1.421523
      vertex -0.906237 -1.020000 1.423361
      vertex -0.900583 -1.020000 1.424659
    endloop
  endfacet
  facet normal -0.000000 -1.000000 -0.000000
    outer loop
      vertex -0.900583 -1.020000 1.424659
      vertex -0.906237 -1.020000 1.423361
      vertex -0.911740 -1.020000 1.421523
    endloop
  endfacet
  facet normal 0.000000 -1.000000 0.000000
    outer loop
      vertex -0.911740 1.020000 1.421523
      vertex -0.900583 1.020000 1.424659
      vertex -0.906237 1.020000 1.423361
    endloop
  endfacet
  facet normal -0.000000 1.000000 -0.000000
    outer loop
      vertex -0.906237 1.020000 1.423361
      vertex -0.900583 1.020000 1.424659
      vertex -0.911740 1.020000 1.421523
    endloop
  endfacet
  facet normal 0.000000 1.000000 0.000000
    outer loop
      vertex -0.900583 -1.020000 1.424659
      vertex -0.863595 -1.020000 1.037126
      vertex -0.949954 -1.020000 1.367961
    endloop
  endfacet
  facet normal -0.000000 -1.000000 -0.000000
    outer loop
      vertex -0.949954 -1.020000 1.367961
      vertex -0.863595 -1.020000 1.037126
      vertex -0.900583 -1.020000 1.424659
    endloop
  endfacet
  facet normal 0.000000 -1.000000 -0.000000
    outer loop
      vertex -0.900583 1.020000 1.424659
      vertex -0.949954 1.020000 1.367961
      vertex -0.863595 1.020000 1.037126
    endloop
  endfacet
  facet normal -0.000000 1.000000 0.000000
    outer loop
      vertex -0.863595 1.020000 1.037126
      vertex -0.949954 1.020000 1.367961
      vertex -0.900583 1.020000 1.424659
    endloop
  endfacet
  facet normal 0.000000 1.000000 0.000000
    outer loop
      vertex -0.900583 -1.020000 1.424659
      vertex -0.850836 -1.020000 1.030074
      vertex -0.863595 -1.020000 1.037126
    endloop
  endfacet
  facet normal -0.000000 -1.000000 -0.000000
    outer loop
      vertex -0.863595 -1.020000 1.037126
      vertex -0.850836 -1.020000 1.030074
      vertex -0.900583 -1.020000 1.424659
    endloop
  endfacet
  facet normal 0.000000 -1.000000 0.000000
    outer loop
      vertex -0.900583 1.020000 1.424659
      vertex -0.863595 1.020000 1.037126
      vertex -0.850836 1.020000 1.030074
    endloop
  endfacet
  facet normal -0.000000 1.000000 -0.000000
    outer loop
      vertex -0.850836 1.020000 1.030074
      vertex -0.863595 1.020000 1.037126
      vertex -0.900583 1.020000 1.424659
    endloop
  endfacet
  facet normal 0.000000 1.000000 0.000000
    outer loop
      vertex -0.900583 -1.020000 1.424659
      vertex -0.838946 -1.020000 1.021638
      vertex -0.850836 -1.020000 1.030074
    endloop
  endfacet
  facet normal -0.000000 -1.000000 -0.000000
    outer loop
      vertex -0.850836 -1.020000 1.030074
      vertex -0.838946 -1.020000 1.021638
      vertex -0.900583 -1.020000 1.424659
    endloop
  endfacet
  facet normal 0.000000 -1.000000 0.000000
    outer loop
      vertex -0.900583 1.020000 1.424659
      vertex -0.850836 1.020000 1.030074
      vertex -0.838946 1.020000 1.021638
    endloop
  endfacet
  facet normal -0.000000 1.000000 -0.000000
    outer loop
      vertex -0.838946 1.020000 1.021638
      vertex -0.850836 1.020000 1.030074
      vertex -0.900583 1.020000 1.424659
    endloop
  endfacet
  facet normal 0.000000 1.000000 0.000000
    outer loop
      vertex -0.900583 -1.020000 1.424659
      vertex -0.480000 -1.020000 1.020000
      vertex -0.838946 -1.020000 1.021638
    endloop
  endfacet
  facet normal -0.000000 -1.000000 -0.000000
    outer loop
      vertex -0.838946 -1.020000 1.021638
      vertex -0.480000 -1.020000 1.020000
      vertex -0.900583 -1.020000 1.424659
    endloop
  endfacet
  facet normal 0.000000 -1.000000 0.000000
    outer loop
      vertex -0.900583 1.020000 1.424659
      vertex -0.838946 1.020000 1.021638
      vertex -0.480000 1.020000 1.020000
    endloop
  endfacet
  facet normal -0.000000 1.000000 -0.000000
    outer loop
      vertex -0.480000 1.020000 1.020000
      vertex -0.838946 1.020000 1.021638
      vertex -0.900583 1.020000 1.424659
    endloop
  endfacet
  facet normal -0.000000 1.000000 0.000000
    outer loop
      vertex -0.900583 -1.020000 1.424659
      vertex -0.150583 -1.020000 1.559059
      vertex -0.480000 -1.020000 1.020000
    endloop
  endfacet
  facet normal 0.000000 -1.000000 -0.000000
    outer loop
      vertex -0.480000 -1.020000 1.020000
      vertex -0.150583 -1.020000 1.559059
      vertex -0.900583 -1.020000 1.424659
    endloop
  endfacet
  facet normal 0.000000 -1.000000 0.000000
    outer loop
      vertex -0.900583 1.020000 1.424659
      vertex -0.480000 1.020000 1.020000
      vertex -0.150583 1.020000 1.559059
    endloop
  endfacet
  facet normal -0.000000 1.000000 -0.000000
    outer loop
      vertex -0.150583 1.020000 1.559059
      vertex -0.480000 1.020000 1.020000
      vertex -0.900583 1.020000 1.424659
    endloop
  endfacet
  facet normal 0.000000 1.000000 0.000000
    outer loop
      vertex -0.150583 -1.020000 1.559059
      vertex -0.020000 -1.020000 1.020000
      vertex -0.480000 -1.020000 1.020000
    endloop
  endfacet
  facet normal -0.000000 -1.000000 -0.000000
    outer loop
      vertex -0.480000 -1.020000 1.020000
      vertex -0.020000 -1.020000 1.020000
      vertex -0.150583 -1.020000 1.559059
    endloop
  endfacet
  facet normal 0.000000 -1.000000 -0.000000
    outer loop
      vertex -0.150583 1.020000 1.559059
      vertex -0.480000 1.020000 1.020000
      vertex -0.020000 1.020000 1.020000
    endloop
  endfacet
  facet normal -0.000000 1.000000 0.000000
    outer loop
      vertex -0.020000 1.020000 1.020000
      vertex -0.480000 1.020000 1.020000
      vertex -0.150583 1.020000 1.559059
    endloop
  endfacet
  facet normal 0.000000 1.000000 0.000000
    outer loop
      vertex -0.150583 -1.020000 1.559059
      vertex -0.128669 -1.020000 1.558920
      vertex -0.020000 -1.020000 1.020000
    endloop
  endfacet
  facet normal -0.000000 -1.000000 -0.000000
    outer loop
      vertex -0.020000 -1.020000 1.020000
      vertex -0.128669 -1.020000 1.558920
      vertex -0.150583 -1.020000 1.559059
    endloop
  endfacet
  facet normal 0.000000 -1.000000 0.000000
    outer loop
      vertex -0.150583 1.020000 1.559059
      vertex -0.020000 1.020000 1.020000
      vertex -0.128669 1.020000 1.558920
    endloop
  endfacet
  facet normal -0.000000 1.000000 -0.000000
    outer loop
      vertex -0.128669 1.020000 1.558920
      vertex -0.020000 1.020000 1.020000
      vertex -0.150583 1.020000 1.559059
    endloop
  endfacet
  facet normal -0.000000 1.000000 0.000000
    outer loop
      vertex -0.150583 -1.020000 1.559059
      vertex -0.145123 -1.020000 1.559781
      vertex -0.128669 -1.020000 1.558920
    endloop
  endfacet
  facet normal 0.000000 -1.000000 -0.000000
    outer loop
      vertex -0.128669 -1.020000 1.558920
      vertex -0.145123 -1.020000 1.559781
      vertex -0.150583 -1.020000 1.559059
    endloop
  endfacet
  facet normal 0.000000 -1.000000 0.000000
    outer loop
      vertex -0.150583 1.020000 1.559059
      vertex -0.128669 1.020000 1.558920
      vertex -0.145123 1.020000 1.559781
    endloop
  endfacet
  facet normal -0.000000 1.000000 -0.000000
    outer loop
      vertex -0.145123 1.020000 1.559781
      vertex -0.128669 1.020000 1.558920
      vertex -0.150583 1.020000 1.559059
    endloop
  endfacet
  facet normal -0.000000 1.000000 0.000000
    outer loop
      vertex -0.145123 -1.020000 1.559781
      vertex -0.139620 -1.020000 1.559999
      vertex -0.128669 -1.020000 1.558920
    endloop
  endfacet
  facet normal 0.000000 -1.000000 -0.000000
    outer loop
      vertex -0.128669 -1.020000 1.558920
      vertex -0.139620 -1.020000 1.559999
      vertex -0.145123 -1.020000 1.559781
    endloop
  endfacet
  facet normal 0.000000 -1.000000 0.000000
    outer loop
      vertex -0.145123 1.020000 1.559781
      vertex -0.128669 1.020000 1.558920
      vertex -0.139620 1.020000 1.559999
    endloop
  endfacet
  facet normal -0.000000 1.000000 -0.000000
    outer loop
      vertex -0.139620 1.020000 1.559999
      vertex -0.128669 1.020000 1.558920
      vertex -0.145123 1.020000 1.559781
    endloop
  endfacet
  facet normal 0.000000 1.000000 0.000000
    outer loop
      vertex -0.139620 -1.020000 1.559999
      vertex -0.134120 -1.020000 1.559711
      vertex -0.128669 -1.020000 1.558920
    endloop
  endfacet
  facet normal -0.000000 -1.000000 -0.000000
    outer loop
      vertex -0.128669 -1.020000 1.558920
      vertex -0.134120 -1.020000 1.559711
      vertex -0.139620 -1.020000 1.559999
    endloop
  endfacet
  facet normal 0.000000 -1.000000 0.000000
    outer loop
      vertex -0.139620 1.020000 1.559999
      vertex -0.128669 1.020000 1.558920
      vertex -0.134120 1.020000 1.559711
    endloop
  endfacet
  facet normal -0.000000 1.000000 -0.000000
    outer loop
      vertex -0.134120 1.020000 1.559711
      vertex -0.128669 1.020000 1.558920
      vertex -0.139620 1.020000 1.559999
    endloop
  endfacet
  facet normal 0.000000 1.000000 0.000000
    outer loop
      vertex -0.128669 -1.020000 1.558920
      vertex -0.020000 -1.020000 1.538022
      vertex -0.020000 -1.020000 1.020000
    endloop
  endfacet
  facet normal -0.000000 -1.000000 -0.000000
    outer loop
      vertex -0.020000 -1.020000 1.020000
      vertex -0.020000 -1.020000 1.538022
      vertex -0.128669 -1.020000 1.558920
    endloop
  endfacet
  facet normal 0.000000 -1.000000 0.000000
    outer loop
      vertex -0.128669 1.020000 1.558920
      vertex -0.020000 1.020000 1.020000
      vertex -0.020000 1.020000 1.538022
    endloop
  endfacet
  facet normal -0.000000 1.000000 -0.000000
    outer loop
      vertex -0.020000 1.020000 1.538022
      vertex -0.020000 1.020000 1.020000
      vertex -0.128669 1.020000 1.558920
    endloop
  endfacet
  facet normal 0.000000 1.000000 -0.000000
    outer loop
      vertex -0.480000 -1.020000 0.110010
      vertex -0.810000 -1.020000 0.850731
      vertex -0.480000 -1.020000 1.020000
    endloop
  endfacet
  facet normal -0.000000 -1.000000 0.000000
    outer loop
      vertex -0.480000 -1.020000 1.020000
      vertex -0.810000 -1.020000 0.850731
      vertex -0.480000 -1.020000 0.110010
    endloop
  endfacet
  facet normal 0.000000 -1.000000 0.000000
    outer loop
      vertex -0.480000 1.020000 0.110010
      vertex -0.480000 1.020000 1.020000
      vertex -0.810000 1.020000 0.850731
    endloop
  endfacet
  facet normal -0.000000 1.000000 -0.000000
    outer loop
      vertex -0.810000 1.020000 0.850731
      vertex -0.480000 1.020000 1.020000
      vertex -0.480000 1.020000 0.110010
    endloop
  endfacet
  facet normal 0.000000 1.000000 0.000000
    outer loop
      vertex -0.480000 -1.020000 0.110010
      vertex -0.810000 -1.020000 0.110010
      vertex -0.810000 -1.020000 0.850731
    endloop
  endfacet
  facet normal -0.000000 -1.000000 -0.000000
    outer loop
      vertex -0.810000 -1.020000 0.850731
      vertex -0.810000 -1.020000 0.110010
      vertex -0.480000 -1.020000 0.110010
    endloop
  endfacet
  facet normal 0.000000 -1.000000 0.000000
    outer loop
      vertex -0.480000 1.020000 0.110010
      vertex -0.810000 1.020000 0.850731
      vertex -0.810000 1.020000 0.110010
    endloop
  endfacet
  facet normal -0.000000 1.000000 -0.000000
    outer loop
      vertex -0.810000 1.020000 0.110010
      vertex -0.810000 1.020000 0.850731
      vertex -0.480000 1.020000 0.110010
    endloop
  endfacet
  facet normal 0.000000 1.000000 0.000000
    outer loop
      vertex -0.962759 -1.020000 1.042756
      vertex -0.949954 -1.020000 1.367961
      vertex -0.948928 -1.020000 1.046741
    endloop
  endfacet
  facet normal -0.000000 -1.000000 -0.000000
    outer loop
      vertex -0.948928 -1.020000 1.046741
      vertex -0.949954 -1.020000 1.367961
      vertex -0.962759 -1.020000 1.042756
    endloop
  endfacet
  facet normal 0.000000 -1.000000 0.000000
    outer loop
      vertex -0.962759 1.020000 1.042756
      vertex -0.948928 1.020000 1.046741
      vertex -0.949954 1.020000 1.367961
    endloop
  endfacet
  facet normal -0.000000 1.000000 -0.000000
    outer loop
      vertex -0.949954 1.020000 1.367961
      vertex -0.948928 1.020000 1.046741
      vertex -0.962759 1.020000 1.042756
    endloop
  endfacet
  facet normal 0.000000 1.000000 0.000000
    outer loop
      vertex -0.949954 -1.020000 1.367961
      vertex -0.934555 -1.020000 1.049183
      vertex -0.948928 -1.020000 1.046741
    endloop
  endfacet
  facet normal -0.000000 -1.000000 -0.000000
    outer loop
      vertex -0.948928 -1.020000 1.046741
      vertex -0.934555 -1.020000 1.049183
      vertex -0.949954 -1.020000 1.367961
    endloop
  endfacet
  facet normal 0.000000 -1.000000 0.000000
    outer loop
      vertex -0.949954 1.020000 1.367961
      vertex -0.948928 1.020000 1.046741
      vertex -0.934555 1.020000 1.049183
    endloop
  endfacet
  facet normal -0.000000 1.000000 -0.000000
    outer loop
      vertex -0.934555 1.020000 1.049183
      vertex -0.948928 1.020000 1.046741
      vertex -0.949954 1.020000 1.367961
    endloop
  endfacet
  facet normal 0.000000 1.000000 0.000000
    outer loop
      vertex -0.949954 -1.020000 1.367961
      vertex -0.920000 -1.020000 1.050000
      vertex -0.934555 -1.020000 1.049183
    endloop
  endfacet
  facet normal -0.000000 -1.000000 -0.000000
    outer loop
      vertex -0.934555 -1.020000 1.049183
      vertex -0.920000 -1.020000 1.050000
      vertex -0.949954 -1.020000 1.367961
    endloop
  endfacet
  facet normal 0.000000 -1.000000 0.000000
    outer loop
      vertex -0.949954 1.020000 1.367961
      vertex -0.934555 1.020000 1.049183
      vertex -0.920000 1.020000 1.050000
    endloop
  endfacet
  facet normal -0.000000 1.000000 -0.000000
    outer loop
      vertex -0.920000 1.020000 1.050000
      vertex -0.934555 1.020000 1.049183
      vertex -0.949954 1.020000 1.367961
    endloop
  endfacet
  facet normal 0.000000 1.000000 0.000000
    outer loop
      vertex -0.949954 -1.020000 1.367961
      vertex -0.905445 -1.020000 1.049183
      vertex -0.920000 -1.020000 1.050000
    endloop
  endfacet
  facet normal -0.000000 -1.000000 -0.000000
    outer loop
      vertex -0.920000 -1.020000 1.050000
      vertex -0.905445 -1.020000 1.049183
      vertex -0.949954 -1.020000 1.367961
    endloop
  endfacet
  facet normal 0.000000 -1.000000 0.000000
    outer loop
      vertex -0.949954 1.020000 1.367961
      vertex -0.920000 1.020000 1.050000
      vertex -0.905445 1.020000 1.049183
    endloop
  endfacet
  facet normal -0.000000 1.000000 -0.000000
    outer loop
      vertex -0.905445 1.020000 1.049183
      vertex -0.920000 1.020000 1.050000
      vertex -0.949954 1.020000 1.367961
    endloop
  endfacet
  facet normal 0.000000 1.000000 0.000000
    outer loop
      vertex -0.949954 -1.020000 1.367961
      vertex -0.891072 -1.020000 1.046741
      vertex -0.905445 -1.020000 1.049183
    endloop
  endfacet
  facet normal -0.000000 -1.000000 -0.000000
    outer loop
      vertex -0.905445 -1.020000 1.049183
      vertex -0.891072 -1.020000 1.046741
      vertex -0.949954 -1.020000 1.367961
    endloop
  endfacet
  facet normal 0.000000 -1.000000 0.000000
    outer loop
      vertex -0.949954 1.020000 1.367961
      vertex -0.905445 1.020000 1.049183
      vertex -0.891072 1.020000 1.046741
    endloop
  endfacet
  facet normal -0.000000 1.000000 -0.000000
    outer loop
      vertex -0.891072 1.020000 1.046741
      vertex -0.905445 1.020000 1.049183
      vertex -0.949954 1.020000 1.367961
    endloop
  endfacet
  facet normal 0.000000 1.000000 0.000000
    outer loop
      vertex -0.949954 -1.020000 1.367961
      vertex -0.877064 -1.020000 1.042705
      vertex -0.891072 -1.020000 1.046741
    endloop
  endfacet
  facet normal -0.000000 -1.000000 -0.000000
    outer loop
      vertex -0.891072 -1.020000 1.046741
      vertex -0.877064 -1.020000 1.042705
      vertex -0.949954 -1.020000 1.367961
    endloop
  endfacet
  facet normal 0.000000 -1.000000 0.000000
    outer loop
      vertex -0.949954 1.020000 1.367961
      vertex -0.891072 1.020000 1.046741
      vertex -0.877064 1.020000 1.042705
    endloop
  endfacet
  facet normal -0.000000 1.000000 -0.000000
    outer loop
      vertex -0.877064 1.020000 1.042705
      vertex -0.891072 1.020000 1.046741
      vertex -0.949954 1.020000 1.367961
    endloop
  endfacet
  facet normal 0.000000 1.000000 0.000000
    outer loop
      vertex -0.949954 -1.020000 1.367961
      vertex -0.863595 -1.020000 1.037126
      vertex -0.877064 -1.020000 1.042705
    endloop
  endfacet
  facet normal -0.000000 -1.000000 -0.000000
    outer loop
      vertex -0.877064 -1.020000 1.042705
      vertex -0.863595 -1.020000 1.037126
      vertex -0.949954 -1.020000 1.367961
    endloop
  endfacet
  facet normal 0.000000 -1.000000 0.000000
    outer loop
      vertex -0.949954 1.020000 1.367961
      vertex -0.877064 1.020000 1.042705
      vertex -0.863595 1.020000 1.037126
    endloop
  endfacet
  facet normal -0.000000 1.000000 -0.000000
    outer loop
      vertex -0.863595 1.020000 1.037126
      vertex -0.877064 1.020000 1.042705
      vertex -0.949954 1.020000 1.367961
    endloop
  endfacet
  facet normal 0.000000 1.000000 0.000000
    outer loop
      vertex -0.838946 -1.020000 1.021638
      vertex -0.480000 -1.020000 1.020000
      vertex -0.828076 -1.020000 1.011924
    endloop
  endfacet
  facet normal -0.000000 -1.000000 -0.000000
    outer loop
      vertex -0.828076 -1.020000 1.011924
      vertex -0.480000 -1.020000 1.020000
      vertex -0.838946 -1.020000 1.021638
    endloop
  endfacet
  facet normal 0.000000 -1.000000 0.000000
    outer loop
      vertex -0.838946 1.020000 1.021638
      vertex -0.828076 1.020000 1.011924
      vertex -0.480000 1.020000 1.020000
    endloop
  endfacet
  facet normal -0.000000 1.000000 -0.000000
    outer loop
      vertex -0.480000 1.020000 1.020000
      vertex -0.828076 1.020000 1.011924
      vertex -0.838946 1.020000 1.021638
    endloop
  endfacet
  facet normal 0.000000 1.000000 0.000000
    outer loop
      vertex -0.480000 -1.020000 1.020000
      vertex -0.818362 -1.020000 1.001054
      vertex -0.828076 -1.020000 1.011924
    endloop
  endfacet
  facet normal -0.000000 -1.000000 -0.000000
    outer loop
      vertex -0.828076 -1.020000 1.011924
      vertex -0.818362 -1.020000 1.001054
      vertex -0.480000 -1.020000 1.020000
    endloop
  endfacet
  facet normal 0.000000 -1.000000 0.000000
    outer loop
      vertex -0.480000 1.020000 1.020000
      vertex -0.828076 1.020000 1.011924
      vertex -0.818362 1.020000 1.001054
    endloop
  endfacet
  facet normal -0.000000 1.000000 -0.000000
    outer loop
      vertex -0.818362 1.020000 1.001054
      vertex -0.828076 1.020000 1.011924
      vertex -0.480000 1.020000 1.020000
    endloop
  endfacet
  facet normal 0.000000 1.000000 0.000000
    outer loop
      vertex -0.480000 -1.020000 1.020000
      vertex -0.809926 -1.020000 0.989164
      vertex -0.818362 -1.020000 1.001054
    endloop
  endfacet
  facet normal -0.000000 -1.000000 -0.000000
    outer loop
      vertex -0.818362 -1.020000 1.001054
      vertex -0.809926 -1.020000 0.989164
      vertex -0.480000 -1.020000 1.020000
    endloop
  endfacet
  facet normal 0.000000 -1.000000 0.000000
    outer loop
      vertex -0.480000 1.020000 1.020000
      vertex -0.818362 1.020000 1.001054
      vertex -0.809926 1.020000 0.989164
    endloop
  endfacet
  facet normal -0.000000 1.000000 -0.000000
    outer loop
      vertex -0.809926 1.020000 0.989164
      vertex -0.818362 1.020000 1.001054
      vertex -0.480000 1.020000 1.020000
    endloop
  endfacet
  facet normal 0.000000 1.000000 0.000000
    outer loop
      vertex -0.480000 -1.020000 1.020000
      vertex -0.802874 -1.020000 0.976405
      vertex -0.809926 -1.020000 0.989164
    endloop
  endfacet
  facet normal -0.000000 -1.000000 -0.000000
    outer loop
      vertex -0.809926 -1.020000 0.989164
      vertex -0.802874 -1.020000 0.976405
      vertex -0.480000 -1.020000 1.020000
    endloop
  endfacet
  facet normal 0.000000 -1.000000 0.000000
    outer loop
      vertex -0.480000 1.020000 1.020000
      vertex -0.809926 1.020000 0.989164
      vertex -0.802874 1.020000 0.976405
    endloop
  endfacet
  facet normal -0.000000 1.000000 -0.000000
    outer loop
      vertex -0.802874 1.020000 0.976405
      vertex -0.809926 1.020000 0.989164
      vertex -0.480000 1.020000 1.020000
    endloop
  endfacet
  facet normal 0.000000 1.000000 0.000000
    outer loop
      vertex -0.480000 -1.020000 1.020000
      vertex -0.797295 -1.020000 0.962936
      vertex -0.802874 -1.020000 0.976405
    endloop
  endfacet
  facet normal -0.000000 -1.000000 -0.000000
    outer loop
      vertex -0.802874 -1.020000 0.976405
      vertex -0.797295 -1.020000 0.962936
      vertex -0.480000 -1.020000 1.020000
    endloop
  endfacet
  facet normal 0.000000 -1.000000 0.000000
    outer loop
      vertex -0.480000 1.020000 1.020000
      vertex -0.802874 1.020000 0.976405
      vertex -0.797295 1.020000 0.962936
    endloop
  endfacet
  facet normal -0.000000 1.000000 -0.000000
    outer loop
      vertex -0.797295 1.020000 0.962936
      vertex -0.802874 1.020000 0.976405
      vertex -0.480000 1.020000 1.020000
    endloop
  endfacet
  facet normal 0.000000 1.000000 0.000000
    outer loop
      vertex -0.480000 -1.020000 1.020000
      vertex -0.793259 -1.020000 0.948928
      vertex -0.797295 -1.020000 0.962936
    endloop
  endfacet
  facet normal -0.000000 -1.000000 -0.000000
    outer loop
      vertex -0.797295 -1.020000 0.962936
      vertex -0.793259 -1.020000 0.948928
      vertex -0.480000 -1.020000 1.020000
    endloop
  endfacet
  facet normal 0.000000 -1.000000 0.000000
    outer loop
      vertex -0.480000 1.020000 1.020000
      vertex -0.797295 1.020000 0.962936
      vertex -0.793259 1.020000 0.948928
    endloop
  endfacet
  facet normal -0.000000 1.000000 -0.000000
    outer loop
      vertex -0.793259 1.020000 0.948928
      vertex -0.797295 1.020000 0.962936
      vertex -0.480000 1.020000 1.020000
    endloop
  endfacet
  facet normal 0.000000 1.000000 0.000000
    outer loop
      vertex -0.480000 -1.020000 1.020000
      vertex -0.790817 -1.020000 0.934555
      vertex -0.793259 -1.020000 0.948928
    endloop
  endfacet
  facet normal -0.000000 -1.000000 -0.000000
    outer loop
      vertex -0.793259 -1.020000 0.948928
      vertex -0.790817 -1.020000 0.934555
      vertex -0.480000 -1.020000 1.020000
    endloop
  endfacet
  facet normal 0.000000 -1.000000 0.000000
    outer loop
      vertex -0.480000 1.020000 1.020000
      vertex -0.793259 1.020000 0.948928
      vertex -0.790817 1.020000 0.934555
    endloop
  endfacet
  facet normal -0.000000 1.000000 -0.000000
    outer loop
      vertex -0.790817 1.020000 0.934555
      vertex -0.793259 1.020000 0.948928
      vertex -0.480000 1.020000 1.020000
    endloop
  endfacet
  facet normal 0.000000 1.000000 0.000000
    outer loop
      vertex -0.480000 -1.020000 1.020000
      vertex -0.790000 -1.020000 0.920000
      vertex -0.790817 -1.020000 0.934555
    endloop
  endfacet
  facet normal -0.000000 -1.000000 -0.000000
    outer loop
      vertex -0.790817 -1.020000 0.934555
      vertex -0.790000 -1.020000 0.920000
      vertex -0.480000 -1.020000 1.020000
    endloop
  endfacet
  facet normal 0.000000 -1.000000 0.000000
    outer loop
      vertex -0.480000 1.020000 1.020000
      vertex -0.790817 1.020000 0.934555
      vertex -0.790000 1.020000 0.920000
    endloop
  endfacet
  facet normal -0.000000 1.000000 -0.000000
    outer loop
      vertex -0.790000 1.020000 0.920000
      vertex -0.790817 1.020000 0.934555
      vertex -0.480000 1.020000 1.020000
    endloop
  endfacet
  facet normal 0.000000 1.000000 0.000000
    outer loop
      vertex -0.480000 -1.020000 1.020000
      vertex -0.790817 -1.020000 0.905445
      vertex -0.790000 -1.020000 0.920000
    endloop
  endfacet
  facet normal -0.000000 -1.000000 -0.000000
    outer loop
      vertex -0.790000 -1.020000 0.920000
      vertex -0.790817 -1.020000 0.905445
      vertex -0.480000 -1.020000 1.020000
    endloop
  endfacet
  facet normal 0.000000 -1.000000 0.000000
    outer loop
      vertex -0.480000 1.020000 1.020000
      vertex -0.790000 1.020000 0.920000
      vertex -0.790817 1.020000 0.905445
    endloop
  endfacet
  facet normal -0.000000 1.000000 -0.000000
    outer loop
      vertex -0.790817 1.020000 0.905445
      vertex -0.790000 1.020000 0.920000
      vertex -0.480000 1.020000 1.020000
    endloop
  endfacet
  facet normal 0.000000 1.000000 0.000000
    outer loop
      vertex -0.480000 -1.020000 1.020000
      vertex -0.793259 -1.020000 0.891072
      vertex -0.790817 -1.020000 0.905445
    endloop
  endfacet
  facet normal -0.000000 -1.000000 -0.000000
    outer loop
      vertex -0.790817 -1.020000 0.905445
      vertex -0.793259 -1.020000 0.891072
      vertex -0.480000 -1.020000 1.020000
    endloop
  endfacet
  facet normal 0.000000 -1.000000 0.000000
    outer loop
      vertex -0.480000 1.020000 1.020000
      vertex -0.790817 1.020000 0.905445
      vertex -0.793259 1.020000 0.891072
    endloop
  endfacet
  facet normal -0.000000 1.000000 -0.000000
    outer loop
      vertex -0.793259 1.020000 0.891072
      vertex -0.790817 1.020000 0.905445
      vertex -0.480000 1.020000 1.020000
    endloop
  endfacet
  facet normal 0.000000 1.000000 0.000000
    outer loop
      vertex -0.480000 -1.020000 1.020000
      vertex -0.797295 -1.020000 0.877064
      vertex -0.793259 -1.020000 0.891072
    endloop
  endfacet
  facet normal -0.000000 -1.000000 -0.000000
    outer loop
      vertex -0.793259 -1.020000 0.891072
      vertex -0.797295 -1.020000 0.877064
      vertex -0.480000 -1.020000 1.020000
    endloop
  endfacet
  facet normal 0.000000 -1.000000 0.000000
    outer loop
      vertex -0.480000 1.020000 1.020000
      vertex -0.793259 1.020000 0.891072
      vertex -0.797295 1.020000 0.877064
    endloop
  endfacet
  facet normal -0.000000 1.000000 -0.000000
    outer loop
      vertex -0.797295 1.020000 0.877064
      vertex -0.793259 1.020000 0.891072
      vertex -0.480000 1.020000 1.020000
    endloop
  endfacet
  facet normal 0.000000 1.000000 0.000000
    outer loop
      vertex -0.480000 -1.020000 1.020000
      vertex -0.802874 -1.020000 0.863595
      vertex -0.797295 -1.020000 0.877064
    endloop
  endfacet
  facet normal -0.000000 -1.000000 -0.000000
    outer loop
      vertex -0.797295 -1.020000 0.877064
      vertex -0.802874 -1.020000 0.863595
      vertex -0.480000 -1.020000 1.020000
    endloop
  endfacet
  facet normal 0.000000 -1.000000 0.000000
    outer loop
      vertex -0.480000 1.020000 1.020000
      vertex -0.797295 1.020000 0.877064
      vertex -0.802874 1.020000 0.863595
    endloop
  endfacet
  facet normal -0.000000 1.000000 -0.000000
    outer loop
      vertex -0.802874 1.020000 0.863595
      vertex -0.797295 1.020000 0.877064
      vertex -0.480000 1.020000 1.020000
    endloop
  endfacet
  facet normal 0.000000 1.000000 0.000000
    outer loop
      vertex -0.480000 -1.020000 1.020000
      vertex -0.809926 -1.020000 0.850836
      vertex -0.802874 -1.020000 0.863595
    endloop
  endfacet
  facet normal -0.000000 -1.000000 -0.000000
    outer loop
      vertex -0.802874 -1.020000 0.863595
      vertex -0.809926 -1.020000 0.850836
      vertex -0.480000 -1.020000 1.020000
    endloop
  endfacet
  facet normal 0.000000 -1.000000 0.000000
    outer loop
      vertex -0.480000 1.020000 1.020000
      vertex -0.802874 1.020000 0.863595
      vertex -0.809926 1.020000 0.850836
    endloop
  endfacet
  facet normal -0.000000 1.000000 -0.000000
    outer loop
      vertex -0.809926 1.020000 0.850836
      vertex -0.802874 1.020000 0.863595
      vertex -0.480000 1.020000 1.020000
    endloop
  endfacet
  facet normal 0.000000 1.000000 0.000000
    outer loop
      vertex -0.480000 -1.020000 1.020000
      vertex -0.810000 -1.020000 0.850731
      vertex -0.809926 -1.020000 0.850836
    endloop
  endfacet
  facet normal -0.000000 -1.000000 -0.000000
    outer loop
      vertex -0.809926 -1.020000 0.850836
      vertex -0.810000 -1.020000 0.850731
      vertex -0.480000 -1.020000 1.020000
    endloop
  endfacet
  facet normal 0.000000 -1.000000 0.000000
    outer loop
      vertex -0.480000 1.020000 1.020000
      vertex -0.809926 1.020000 0.850836
      vertex -0.810000 1.020000 0.850731
    endloop
  endfacet
  facet normal -0.000000 1.000000 -0.000000
    outer loop
      vertex -0.810000 1.020000 0.850731
      vertex -0.809926 1.020000 0.850836
      vertex -0.480000 1.020000 1.020000
    endloop
  endfacet
  facet normal 0.000000 1.000000 0.000000
    outer loop
      vertex -0.949445 -1.020000 1.373740
      vertex -0.948381 -1.020000 1.379442
      vertex -0.941980 -1.020000 1.395567
    endloop
  endfacet
  facet normal -0.000000 -1.000000 -0.000000
    outer loop
      vertex -0.941980 -1.020000 1.395567
      vertex -0.948381 -1.020000 1.379442
      vertex -0.949445 -1.020000 1.373740
    endloop
  endfacet
  facet normal 0.000000 -1.000000 0.000000
    outer loop
      vertex -0.949445 1.020000 1.373740
      vertex -0.941980 1.020000 1.395567
      vertex -0.948381 1.020000 1.379442
    endloop
  endfacet
  facet normal -0.000000 1.000000 -0.000000
    outer loop
      vertex -0.948381 1.020000 1.379442
      vertex -0.941980 1.020000 1.395567
      vertex -0.949445 1.020000 1.373740
    endloop
  endfacet
  facet normal 0.000000 1.000000 0.000000
    outer loop
      vertex -0.948381 -1.020000 1.379442
      vertex -0.946772 -1.020000 1.385016
      vertex -0.941980 -1.020000 1.395567
    endloop
  endfacet
  facet normal -0.000000 -1.000000 -0.000000
    outer loop
      vertex -0.941980 -1.020000 1.395567
      vertex -0.946772 -1.020000 1.385016
      vertex -0.948381 -1.020000 1.379442
    endloop
  endfacet
  facet normal 0.000000 -1.000000 0.000000
    outer loop
      vertex -0.948381 1.020000 1.379442
      vertex -0.941980 1.020000 1.395567
      vertex -0.946772 1.020000 1.385016
    endloop
  endfacet
  facet normal -0.000000 1.000000 -0.000000
    outer loop
      vertex -0.946772 1.020000 1.385016
      vertex -0.941980 1.020000 1.395567
      vertex -0.948381 1.020000 1.379442
    endloop
  endfacet
  facet normal 0.000000 1.000000 0.000000
    outer loop
      vertex -0.946772 -1.020000 1.385016
      vertex -0.944631 -1.020000 1.390407
      vertex -0.941980 -1.020000 1.395567
    endloop
  endfacet
  facet normal -0.000000 -1.000000 -0.000000
    outer loop
      vertex -0.941980 -1.020000 1.395567
      vertex -0.944631 -1.020000 1.390407
      vertex -0.946772 -1.020000 1.385016
    endloop
  endfacet
  facet normal 0.000000 -1.000000 0.000000
    outer loop
      vertex -0.946772 1.020000 1.385016
      vertex -0.941980 1.020000 1.395567
      vertex -0.944631 1.020000 1.390407
    endloop
  endfacet
  facet normal -0.000000 1.000000 -0.000000
    outer loop
      vertex -0.944631 1.020000 1.390407
      vertex -0.941980 1.020000 1.395567
      vertex -0.946772 1.020000 1.385016
    endloop
  endfacet
  facet normal -0.785027 0.000000 0.619461
    outer loop
      vertex -0.938843 -1.020000 1.400447
      vertex -0.935250 -1.020000 1.405001
      vertex -0.935250 1.020000 1.405001
    endloop
  endfacet
  facet normal 0.785027 -0.000000 -0.619461
    outer loop
      vertex -0.935250 1.020000 1.405001
      vertex -0.935250 -1.020000 1.405001
      vertex -0.938843 -1.020000 1.400447
    endloop
  endfacet
  facet normal -0.785027 0.000000 0.619461
    outer loop
      vertex -0.938843 -1.020000 1.400447
      vertex -0.935250 1.020000 1.405001
      vertex -0.938843 1.020000 1.400447
    endloop
  endfacet
  facet normal 0.785027 -0.000000 -0.619461
    outer loop
      vertex -0.938843 1.020000 1.400447
      vertex -0.935250 1.020000 1.405001
      vertex -0.938843 -1.020000 1.400447
    endloop
  endfacet
  facet normal -0.721535 0.000000 0.692378
    outer loop
      vertex -0.935250 -1.020000 1.405001
      vertex -0.931233 -1.020000 1.409187
      vertex -0.931233 1.020000 1.409187
    endloop
  endfacet
  facet normal 0.721535 -0.000000 -0.692378
    outer loop
      vertex -0.931233 1.020000 1.409187
      vertex -0.931233 -1.020000 1.409187
      vertex -0.935250 -1.020000 1.405001
    endloop
  endfacet
  facet normal -0.721535 0.000000 0.692378
    outer loop
      vertex -0.935250 -1.020000 1.405001
      vertex -0.931233 1.020000 1.409187
      vertex -0.935250 1.020000 1.405001
    endloop
  endfacet
  facet normal 0.721535 -0.000000 -0.692378
    outer loop
      vertex -0.935250 1.020000 1.405001
      vertex -0.931233 1.020000 1.409187
      vertex -0.935250 -1.020000 1.405001
    endloop
  endfacet
  facet normal -0.651298 0.000000 0.758822
    outer loop
      vertex -0.931233 -1.020000 1.409187
      vertex -0.926831 -1.020000 1.412965
      vertex -0.926831 1.020000 1.412965
    endloop
  endfacet
  facet normal 0.651298 -0.000000 -0.758822
    outer loop
      vertex -0.926831 1.020000 1.412965
      vertex -0.926831 -1.020000 1.412965
      vertex -0.931233 -1.020000 1.409187
    endloop
  endfacet
  facet normal -0.651298 0.000000 0.758822
    outer loop
      vertex -0.931233 -1.020000 1.409187
      vertex -0.926831 1.020000 1.412965
      vertex -0.931233 1.020000 1.409187
    endloop
  endfacet
  facet normal 0.651298 -0.000000 -0.758822
    outer loop
      vertex -0.931233 1.020000 1.409187
      vertex -0.926831 1.020000 1.412965
      vertex -0.931233 -1.020000 1.409187
    endloop
  endfacet
  facet normal -0.574973 0.000000 0.818172
    outer loop
      vertex -0.926831 -1.020000 1.412965
      vertex -0.922085 -1.020000 1.416301
      vertex -0.922085 1.020000 1.416301
    endloop
  endfacet
  facet normal 0.574973 -0.000000 -0.818172
    outer loop
      vertex -0.922085 1.020000 1.416301
      vertex -0.922085 -1.020000 1.416301
      vertex -0.926831 -1.020000 1.412965
    endloop
  endfacet
  facet normal -0.574973 0.000000 0.818172
    outer loop
      vertex -0.926831 -1.020000 1.412965
      vertex -0.922085 1.020000 1.416301
      vertex -0.926831 1.020000 1.412965
    endloop
  endfacet
  facet normal 0.574973 -0.000000 -0.818172
    outer loop
      vertex -0.926831 1.020000 1.412965
      vertex -0.922085 1.020000 1.416301
      vertex -0.926831 -1.020000 1.412965
    endloop
  endfacet
  facet normal -0.493273 0.000000 0.869875
    outer loop
      vertex -0.922085 -1.020000 1.416301
      vertex -0.917039 -1.020000 1.419162
      vertex -0.917039 1.020000 1.419162
    endloop
  endfacet
  facet normal 0.493273 -0.000000 -0.869875
    outer loop
      vertex -0.917039 1.020000 1.419162
      vertex -0.917039 -1.020000 1.419162
      vertex -0.922085 -1.020000 1.416301
    endloop
  endfacet
  facet normal -0.493273 0.000000 0.869875
    outer loop
      vertex -0.922085 -1.020000 1.416301
      vertex -0.917039 1.020000 1.419162
      vertex -0.922085 1.020000 1.416301
    endloop
  endfacet
  facet normal 0.493273 -0.000000 -0.869875
    outer loop
      vertex -0.922085 1.020000 1.416301
      vertex -0.917039 1.020000 1.419162
      vertex -0.922085 -1.020000 1.416301
    endloop
  endfacet
  facet normal -0.406962 0.000000 0.913445
    outer loop
      vertex -0.917039 -1.020000 1.419162
      vertex -0.911740 -1.020000 1.421523
      vertex -0.911740 1.020000 1.421523
    endloop
  endfacet
  facet normal 0.406962 -0.000000 -0.913445
    outer loop
      vertex -0.911740 1.020000 1.421523
      vertex -0.911740 -1.020000 1.421523
      vertex -0.917039 -1.020000 1.419162
    endloop
  endfacet
  facet normal -0.406962 0.000000 0.913445
    outer loop
      vertex -0.917039 -1.020000 1.419162
      vertex -0.911740 1.020000 1.421523
      vertex -0.917039 1.020000 1.419162
    endloop
  endfacet
  facet normal 0.406962 -0.000000 -0.913445
    outer loop
      vertex -0.917039 1.020000 1.419162
      vertex -0.911740 1.020000 1.421523
      vertex -0.917039 -1.020000 1.419162
    endloop
  endfacet
  facet normal -0.316846 0.000000 0.948477
    outer loop
      vertex -0.911740 -1.020000 1.421523
      vertex -0.906237 -1.020000 1.423361
      vertex -0.906237 1.020000 1.423361
    endloop
  endfacet
  facet normal 0.316846 -0.000000 -0.948477
    outer loop
      vertex -0.906237 1.020000 1.423361
      vertex -0.906237 -1.020000 1.423361
      vertex -0.911740 -1.020000 1.421523
    endloop
  endfacet
  facet normal -0.316846 0.000000 0.948477
    outer loop
      vertex -0.911740 -1.020000 1.421523
      vertex -0.906237 1.020000 1.423361
      vertex -0.911740 1.020000 1.421523
    endloop
  endfacet
  facet normal 0.316846 -0.000000 -0.948477
    outer loop
      vertex -0.911740 1.020000 1.421523
      vertex -0.906237 1.020000 1.423361
      vertex -0.911740 -1.020000 1.421523
    endloop
  endfacet
  facet normal -0.223769 0.000000 0.974642
    outer loop
      vertex -0.906237 -1.020000 1.423361
      vertex -0.900583 -1.020000 1.424659
      vertex -0.900583 1.020000 1.424659
    endloop
  endfacet
  facet normal 0.223769 -0.000000 -0.974642
    outer loop
      vertex -0.900583 1.020000 1.424659
      vertex -0.900583 -1.020000 1.424659
      vertex -0.906237 -1.020000 1.423361
    endloop
  endfacet
  facet normal -0.223769 0.000000 0.974642
    outer loop
      vertex -0.906237 -1.020000 1.423361
      vertex -0.900583 1.020000 1.424659
      vertex -0.906237 1.020000 1.423361
    endloop
  endfacet
  facet normal 0.223769 -0.000000 -0.974642
    outer loop
      vertex -0.906237 1.020000 1.423361
      vertex -0.900583 1.020000 1.424659
      vertex -0.906237 -1.020000 1.423361
    endloop
  endfacet
  facet normal -0.176390 0.000000 0.984320
    outer loop
      vertex -0.900583 -1.020000 1.424659
      vertex -0.150583 -1.020000 1.559059
      vertex -0.150583 1.020000 1.559059
    endloop
  endfacet
  facet normal 0.176390 -0.000000 -0.984320
    outer loop
      vertex -0.150583 1.020000 1.559059
      vertex -0.150583 -1.020000 1.559059
      vertex -0.900583 -1.020000 1.424659
    endloop
  endfacet
  facet normal -0.176390 0.000000 0.984320
    outer loop
      vertex -0.900583 -1.020000 1.424659
      vertex -0.150583 1.020000 1.559059
      vertex -0.900583 1.020000 1.424659
    endloop
  endfacet
  facet normal 0.176390 -0.000000 -0.984320
    outer loop
      vertex -0.900583 1.020000 1.424659
      vertex -0.150583 1.020000 1.559059
      vertex -0.900583 -1.020000 1.424659
    endloop
  endfacet
  facet normal -0.131027 0.000000 0.991379
    outer loop
      vertex -0.150583 -1.020000 1.559059
      vertex -0.145123 -1.020000 1.559781
      vertex -0.145123 1.020000 1.559781
    endloop
  endfacet
  facet normal 0.131027 -0.000000 -0.991379
    outer loop
      vertex -0.145123 1.020000 1.559781
      vertex -0.145123 -1.020000 1.559781
      vertex -0.150583 -1.020000 1.559059
    endloop
  endfacet
  facet normal -0.131027 0.000000 0.991379
    outer loop
      vertex -0.150583 -1.020000 1.559059
      vertex -0.145123 1.020000 1.559781
      vertex -0.150583 1.020000 1.559059
    endloop
  endfacet
  facet normal 0.131027 -0.000000 -0.991379
    outer loop
      vertex -0.150583 1.020000 1.559059
      vertex -0.145123 1.020000 1.559781
      vertex -0.150583 -1.020000 1.559059
    endloop
  endfacet
  facet normal -0.039568 0.000000 0.999217
    outer loop
      vertex -0.145123 -1.020000 1.559781
      vertex -0.139620 -1.020000 1.559999
      vertex -0.139620 1.020000 1.559999
    endloop
  endfacet
  facet normal 0.039568 -0.000000 -0.999217
    outer loop
      vertex -0.139620 1.020000 1.559999
      vertex -0.139620 -1.020000 1.559999
      vertex -0.145123 -1.020000 1.559781
    endloop
  endfacet
  facet normal -0.039568 0.000000 0.999217
    outer loop
      vertex -0.145123 -1.020000 1.559781
      vertex -0.139620 1.020000 1.559999
      vertex -0.145123 1.020000 1.559781
    endloop
  endfacet
  facet normal 0.039568 -0.000000 -0.999217
    outer loop
      vertex -0.145123 1.020000 1.559781
      vertex -0.139620 1.020000 1.559999
      vertex -0.145123 -1.020000 1.559781
    endloop
  endfacet
  facet normal 0.052225 0.000000 0.998635
    outer loop
      vertex -0.139620 -1.020000 1.559999
      vertex -0.134120 -1.020000 1.559711
      vertex -0.134120 1.020000 1.559711
    endloop
  endfacet
  facet normal -0.052225 -0.000000 -0.998635
    outer loop
      vertex -0.134120 1.020000 1.559711
      vertex -0.134120 -1.020000 1.559711
      vertex -0.139620 -1.020000 1.559999
    endloop
  endfacet
  facet normal 0.052225 -0.000000 0.998635
    outer loop
      vertex -0.139620 -1.020000 1.559999
      vertex -0.134120 1.020000 1.559711
      vertex -0.139620 1.020000 1.559999
    endloop
  endfacet
  facet normal -0.052225 0.000000 -0.998635
    outer loop
      vertex -0.139620 1.020000 1.559999
      vertex -0.134120 1.020000 1.559711
      vertex -0.139620 -1.020000 1.559999
    endloop
  endfacet
  facet normal 0.143577 0.000000 0.989639
    outer loop
      vertex -0.134120 -1.020000 1.559711
      vertex -0.128669 -1.020000 1.558920
      vertex -0.128669 1.020000 1.558920
    endloop
  endfacet
  facet normal -0.143577 -0.000000 -0.989639
    outer loop
      vertex -0.128669 1.020000 1.558920
      vertex -0.128669 -1.020000 1.558920
      vertex -0.134120 -1.020000 1.559711
    endloop
  endfacet
  facet normal 0.143577 -0.000000 0.989639
    outer loop
      vertex -0.134120 -1.020000 1.559711
      vertex -0.128669 1.020000 1.558920
      vertex -0.134120 1.020000 1.559711
    endloop
  endfacet
  facet normal -0.143577 0.000000 -0.989639
    outer loop
      vertex -0.134120 1.020000 1.559711
      vertex -0.128669 1.020000 1.558920
      vertex -0.134120 -1.020000 1.559711
    endloop
  endfacet
  facet normal 0.188847 0.000000 0.982006
    outer loop
      vertex -0.128669 -1.020000 1.558920
      vertex -0.020000 -1.020000 1.538022
      vertex -0.020000 1.020000 1.538022
    endloop
  endfacet
  facet normal -0.188847 -0.000000 -0.982006
    outer loop
      vertex -0.020000 1.020000 1.538022
      vertex -0.020000 -1.020000 1.538022
      vertex -0.128669 -1.020000 1.558920
    endloop
  endfacet
  facet normal 0.188847 -0.000000 0.982006
    outer loop
      vertex -0.128669 -1.020000 1.558920
      vertex -0.020000 1.020000 1.538022
      vertex -0.128669 1.020000 1.558920
    endloop
  endfacet
  facet normal -0.188847 0.000000 -0.982006
    outer loop
      vertex -0.128669 1.020000 1.558920
      vertex -0.020000 1.020000 1.538022
      vertex -0.128669 -1.020000 1.558920
    endloop
  endfacet
  facet normal 1.000000 0.000000 0.000000
    outer loop
      vertex -0.020000 -1.020000 1.538022
      vertex -0.020000 -1.020000 1.020000
      vertex -0.020000 1.020000 1.020000
    endloop
  endfacet
  facet normal -1.000000 -0.000000 -0.000000
    outer loop
      vertex -0.020000 1.020000 1.020000
      vertex -0.020000 -1.020000 1.020000
      vertex -0.020000 -1.020000 1.538022
    endloop
  endfacet
  facet normal 1.000000 -0.000000 0.000000
    outer loop
      vertex -0.020000 -1.020000 1.538022
      vertex -0.020000 1.020000 1.020000
      vertex -0.020000 1.020000 1.538022
    endloop
  endfacet
  facet normal -1.000000 0.000000 -0.000000
    outer loop
      vertex -0.020000 1.020000 1.538022
      vertex -0.020000 1.020000 1.020000
      vertex -0.020000 -1.020000 1.538022
    endloop
  endfacet
  facet normal 0.000000 0.000000 -1.000000
    outer loop
      vertex -0.020000 -1.020000 1.020000
      vertex -0.480000 -1.020000 1.020000
      vertex -0.480000 1.020000 1.020000
    endloop
  endfacet
  facet normal -0.000000 -0.000000 1.000000
    outer loop
      vertex -0.480000 1.020000 1.020000
      vertex -0.480000 -1.020000 1.020000
      vertex -0.020000 -1.020000 1.020000
    endloop
  endfacet
  facet normal 0.000000 0.000000 -1.000000
    outer loop
      vertex -0.020000 -1.020000 1.020000
      vertex -0.480000 1.020000 1.020000
      vertex -0.020000 1.020000 1.020000
    endloop
  endfacet
  facet normal -0.000000 -0.000000 1.000000
    outer loop
      vertex -0.020000 1.020000 1.020000
      vertex -0.480000 1.020000 1.020000
      vertex -0.020000 -1.020000 1.020000
    endloop
  endfacet
  facet normal 1.000000 0.000000 0.000000
    outer loop
      vertex -0.480000 -1.020000 1.020000
      vertex -0.480000 -1.020000 0.110010
      vertex -0.480000 1.020000 0.110010
    endloop
  endfacet
  facet normal -1.000000 -0.000000 -0.000000
    outer loop
      vertex -0.480000 1.020000 0.110010
      vertex -0.480000 -1.020000 0.110010
      vertex -0.480000 -1.020000 1.020000
    endloop
  endfacet
  facet normal 1.000000 -0.000000 0.000000
    outer loop
      vertex -0.480000 -1.020000 1.020000
      vertex -0.480000 1.020000 0.110010
      vertex -0.480000 1.020000 1.020000
    endloop
  endfacet
  facet normal -1.000000 0.000000 -0.000000
    outer loop
      vertex -0.480000 1.020000 1.020000
      vertex -0.480000 1.020000 0.110010
      vertex -0.480000 -1.020000 1.020000
    endloop
  endfacet
  facet normal 0.000000 0.000000 -1.000000
    outer loop
      vertex -0.480000 -1.020000 0.110010
      vertex -0.810000 -1.020000 0.110010
      vertex -0.810000 1.020000 0.110010
    endloop
  endfacet
  facet normal -0.000000 -0.000000 1.000000
    outer loop
      vertex -0.810000 1.020000 0.110010
      vertex -0.810000 -1.020000 0.110010
      vertex -0.480000 -1.020000 0.110010
    endloop
  endfacet
  facet normal 0.000000 0.000000 -1.000000
    outer loop
      vertex -0.480000 -1.020000 0.110010
      vertex -0.810000 1.020000 0.110010
      vertex -0.480000 1.020000 0.110010
    endloop
  endfacet
  facet normal -0.000000 -0.000000 1.000000
    outer loop
      vertex -0.480000 1.020000 0.110010
      vertex -0.810000 1.020000 0.110010
      vertex -0.480000 -1.020000 0.110010
    endloop
  endfacet
  facet normal -1.000000 0.000000 0.000000
    outer loop
      vertex -0.810000 -1.020000 0.110010
      vertex -0.810000 -1.020000 0.850731
      vertex -0.810000 1.020000 0.850731
    endloop
  endfacet
  facet normal 1.000000 -0.000000 -0.000000
    outer loop
      vertex -0.810000 1.020000 0.850731
      vertex -0.810000 -1.020000 0.850731
      vertex -0.810000 -1.020000 0.110010
    endloop
  endfacet
  facet normal -1.000000 0.000000 0.000000
    outer loop
      vertex -0.810000 -1.020000 0.110010
      vertex -0.810000 1.020000 0.850731
      vertex -0.810000 1.020000 0.110010
    endloop
  endfacet
  facet normal 1.000000 -0.000000 -0.000000
    outer loop
      vertex -0.810000 1.020000 0.110010
      vertex -0.810000 1.020000 0.850731
      vertex -0.810000 -1.020000 0.110010
    endloop
  endfacet
  facet normal -0.815561 0.000000 0.578671
    outer loop
      vertex -0.810000 -1.020000 0.850731
      vertex -0.809926 -1.020000 0.850836
      vertex -0.809926 1.020000 0.850836
    endloop
  endfacet
  facet normal 0.815561 -0.000000 -0.578671
    outer loop
      vertex -0.809926 1.020000 0.850836
      vertex -0.809926 -1.020000 0.850836
      vertex -0.810000 -1.020000 0.850731
    endloop
  endfacet
  facet normal -0.815561 0.000000 0.578671
    outer loop
      vertex -0.810000 -1.020000 0.850731
      vertex -0.809926 1.020000 0.850836
      vertex -0.810000 1.020000 0.850731
    endloop
  endfacet
  facet normal 0.815561 -0.000000 -0.578671
    outer loop
      vertex -0.810000 1.020000 0.850731
      vertex -0.809926 1.020000 0.850836
      vertex -0.810000 -1.020000 0.850731
    endloop
  endfacet
  facet normal -0.875223 0.000000 0.483719
    outer loop
      vertex -0.809926 -1.020000 0.850836
      vertex -0.802874 -1.020000 0.863595
      vertex -0.802874 1.020000 0.863595
    endloop
  endfacet
  facet normal 0.875223 -0.000000 -0.483719
    outer loop
      vertex -0.802874 1.020000 0.863595
      vertex -0.802874 -1.020000 0.863595
      vertex -0.809926 -1.020000 0.850836
    endloop
  endfacet
  facet normal -0.875223 0.000000 0.483719
    outer loop
      vertex -0.809926 -1.020000 0.850836
      vertex -0.802874 1.020000 0.863595
      vertex -0.809926 1.020000 0.850836
    endloop
  endfacet
  facet normal 0.875223 -0.000000 -0.483719
    outer loop
      vertex -0.809926 1.020000 0.850836
      vertex -0.802874 1.020000 0.863595
      vertex -0.809926 -1.020000 0.850836
    endloop
  endfacet
  facet normal -0.923880 0.000000 0.382683
    outer loop
      vertex -0.802874 -1.020000 0.863595
      vertex -0.797295 -1.020000 0.877064
      vertex -0.797295 1.020000 0.877064
    endloop
  endfacet
  facet normal 0.923880 -0.000000 -0.382683
    outer loop
      vertex -0.797295 1.020000 0.877064
      vertex -0.797295 -1.020000 0.877064
      vertex -0.802874 -1.020000 0.863595
    endloop
  endfacet
  facet normal -0.923880 0.000000 0.382683
    outer loop
      vertex -0.802874 -1.020000 0.863595
      vertex -0.797295 1.020000 0.877064
      vertex -0.802874 1.020000 0.863595
    endloop
  endfacet
  facet normal 0.923880 -0.000000 -0.382683
    outer loop
      vertex -0.802874 1.020000 0.863595
      vertex -0.797295 1.020000 0.877064
      vertex -0.802874 -1.020000 0.863595
    endloop
  endfacet
  facet normal -0.960917 0.000000 0.276836
    outer loop
      vertex -0.797295 -1.020000 0.877064
      vertex -0.793259 -1.020000 0.891072
      vertex -0.793259 1.020000 0.891072
    endloop
  endfacet
  facet normal 0.960917 -0.000000 -0.276836
    outer loop
      vertex -0.793259 1.020000 0.891072
      vertex -0.793259 -1.020000 0.891072
      vertex -0.797295 -1.020000 0.877064
    endloop
  endfacet
  facet normal -0.960917 0.000000 0.276836
    outer loop
      vertex -0.797295 -1.020000 0.877064
      vertex -0.793259 1.020000 0.891072
      vertex -0.797295 1.020000 0.877064
    endloop
  endfacet
  facet normal 0.960917 -0.000000 -0.276836
    outer loop
      vertex -0.797295 1.020000 0.877064
      vertex -0.793259 1.020000 0.891072
      vertex -0.797295 -1.020000 0.877064
    endloop
  endfacet
  facet normal -0.985871 0.000000 0.167506
    outer loop
      vertex -0.793259 -1.020000 0.891072
      vertex -0.790817 -1.020000 0.905445
      vertex -0.790817 1.020000 0.905445
    endloop
  endfacet
  facet normal 0.985871 -0.000000 -0.167506
    outer loop
      vertex -0.790817 1.020000 0.905445
      vertex -0.790817 -1.020000 0.905445
      vertex -0.793259 -1.020000 0.891072
    endloop
  endfacet
  facet normal -0.985871 0.000000 0.167506
    outer loop
      vertex -0.793259 -1.020000 0.891072
      vertex -0.790817 1.020000 0.905445
      vertex -0.793259 1.020000 0.891072
    endloop
  endfacet
  facet normal 0.985871 -0.000000 -0.167506
    outer loop
      vertex -0.793259 1.020000 0.891072
      vertex -0.790817 1.020000 0.905445
      vertex -0.793259 -1.020000 0.891072
    endloop
  endfacet
  facet normal -0.998427 0.000000 0.056070
    outer loop
      vertex -0.790817 -1.020000 0.905445
      vertex -0.790000 -1.020000 0.920000
      vertex -0.790000 1.020000 0.920000
    endloop
  endfacet
  facet normal 0.998427 -0.000000 -0.056070
    outer loop
      vertex -0.790000 1.020000 0.920000
      vertex -0.790000 -1.020000 0.920000
      vertex -0.790817 -1.020000 0.905445
    endloop
  endfacet
  facet normal -0.998427 0.000000 0.056070
    outer loop
      vertex -0.790817 -1.020000 0.905445
      vertex -0.790000 1.020000 0.920000
      vertex -0.790817 1.020000 0.905445
    endloop
  endfacet
  facet normal 0.998427 -0.000000 -0.056070
    outer loop
      vertex -0.790817 1.020000 0.905445
      vertex -0.790000 1.020000 0.920000
      vertex -0.790817 -1.020000 0.905445
    endloop
  endfacet
  facet normal -0.998427 0.000000 -0.056070
    outer loop
      vertex -0.790000 -1.020000 0.920000
      vertex -0.790817 -1.020000 0.934555
      vertex -0.790817 1.020000 0.934555
    endloop
  endfacet
  facet normal 0.998427 -0.000000 0.056070
    outer loop
      vertex -0.790817 1.020000 0.934555
      vertex -0.790817 -1.020000 0.934555
      vertex -0.790000 -1.020000 0.920000
    endloop
  endfacet
  facet normal -0.998427 0.000000 -0.056070
    outer loop
      vertex -0.790000 -1.020000 0.920000
      vertex -0.790817 1.020000 0.934555
      vertex -0.790000 1.020000 0.920000
    endloop
  endfacet
  facet normal 0.998427 -0.000000 0.056070
    outer loop
      vertex -0.790000 1.020000 0.920000
      vertex -0.790817 1.020000 0.934555
      vertex -0.790000 -1.020000 0.920000
    endloop
  endfacet
  facet normal -0.985871 0.000000 -0.167506
    outer loop
      vertex -0.790817 -1.020000 0.934555
      vertex -0.793259 -1.020000 0.948928
      vertex -0.793259 1.020000 0.948928
    endloop
  endfacet
  facet normal 0.985871 -0.000000 0.167506
    outer loop
      vertex -0.793259 1.020000 0.948928
      vertex -0.793259 -1.020000 0.948928
      vertex -0.790817 -1.020000 0.934555
    endloop
  endfacet
  facet normal -0.985871 0.000000 -0.167506
    outer loop
      vertex -0.790817 -1.020000 0.934555
      vertex -0.793259 1.020000 0.948928
      vertex -0.790817 1.020000 0.934555
    endloop
  endfacet
  facet normal 0.985871 -0.000000 0.167506
    outer loop
      vertex -0.790817 1.020000 0.934555
      vertex -0.793259 1.020000 0.948928
      vertex -0.790817 -1.020000 0.934555
    endloop
  endfacet
  facet normal -0.960917 0.000000 -0.276836
    outer loop
      vertex -0.793259 -1.020000 0.948928
      vertex -0.797295 -1.020000 0.962936
      vertex -0.797295 1.020000 0.962936
    endloop
  endfacet
  facet normal 0.960917 -0.000000 0.276836
    outer loop
      vertex -0.797295 1.020000 0.962936
      vertex -0.797295 -1.020000 0.962936
      vertex -0.793259 -1.020000 0.948928
    endloop
  endfacet
  facet normal -0.960917 0.000000 -0.276836
    outer loop
      vertex -0.793259 -1.020000 0.948928
      vertex -0.797295 1.020000 0.962936
      vertex -0.793259 1.020000 0.948928
    endloop
  endfacet
  facet normal 0.960917 -0.000000 0.276836
    outer loop
      vertex -0.793259 1.020000 0.948928
      vertex -0.797295 1.020000 0.962936
      vertex -0.793259 -1.020000 0.948928
    endloop
  endfacet
  facet normal -0.923880 0.000000 -0.382683
    outer loop
      vertex -0.797295 -1.020000 0.962936
      vertex -0.802874 -1.020000 0.976405
      vertex -0.802874 1.020000 0.976405
    endloop
  endfacet
  facet normal 0.923880 -0.000000 0.382683
    outer loop
      vertex -0.802874 1.020000 0.976405
      vertex -0.802874 -1.020000 0.976405
      vertex -0.797295 -1.020000 0.962936
    endloop
  endfacet
  facet normal -0.923880 0.000000 -0.382683
    outer loop
      vertex -0.797295 -1.020000 0.962936
      vertex -0.802874 1.020000 0.976405
      vertex -0.797295 1.020000 0.962936
    endloop
  endfacet
  facet normal 0.923880 -0.000000 0.382683
    outer loop
      vertex -0.797295 1.020000 0.962936
      vertex -0.802874 1.020000 0.976405
      vertex -0.797295 -1.020000 0.962936
    endloop
  endfacet
  facet normal -0.875223 0.000000 -0.483719
    outer loop
      vertex -0.802874 -1.020000 0.976405
      vertex -0.809926 -1.020000 0.989164
      vertex -0.809926 1.020000 0.989164
    endloop
  endfacet
  facet normal 0.875223 -0.000000 0.483719
    outer loop
      vertex -0.809926 1.020000 0.989164
      vertex -0.809926 -1.020000 0.989164
      vertex -0.802874 -1.020000 0.976405
    endloop
  endfacet
  facet normal -0.875223 0.000000 -0.483719
    outer loop
      vertex -0.802874 -1.020000 0.976405
      vertex -0.809926 1.020000 0.989164
      vertex -0.802874 1.020000 0.976405
    endloop
  endfacet
  facet normal 0.875223 -0.000000 0.483719
    outer loop
      vertex -0.802874 1.020000 0.976405
      vertex -0.809926 1.020000 0.989164
      vertex -0.802874 -1.020000 0.976405
    endloop
  endfacet
  facet normal -0.815561 0.000000 -0.578671
    outer loop
      vertex -0.809926 -1.020000 0.989164
      vertex -0.818362 -1.020000 1.001054
      vertex -0.818362 1.020000 1.001054
    endloop
  endfacet
  facet normal 0.815561 -0.000000 0.578671
    outer loop
      vertex -0.818362 1.020000 1.001054
      vertex -0.818362 -1.020000 1.001054
      vertex -0.809926 -1.020000 0.989164
    endloop
  endfacet
  facet normal -0.815561 0.000000 -0.578671
    outer loop
      vertex -0.809926 -1.020000 0.989164
      vertex -0.818362 1.020000 1.001054
      vertex -0.809926 1.020000 0.989164
    endloop
  endfacet
  facet normal 0.815561 -0.000000 0.578671
    outer loop
      vertex -0.809926 1.020000 0.989164
      vertex -0.818362 1.020000 1.001054
      vertex -0.809926 -1.020000 0.989164
    endloop
  endfacet
  facet normal -0.745642 0.000000 -0.666347
    outer loop
      vertex -0.818362 -1.020000 1.001054
      vertex -0.828076 -1.020000 1.011924
      vertex -0.828076 1.020000 1.011924
    endloop
  endfacet
  facet normal 0.745642 -0.000000 0.666347
    outer loop
      vertex -0.828076 1.020000 1.011924
      vertex -0.828076 -1.020000 1.011924
      vertex -0.818362 -1.020000 1.001054
    endloop
  endfacet
  facet normal -0.745642 0.000000 -0.666347
    outer loop
      vertex -0.818362 -1.020000 1.001054
      vertex -0.828076 1.020000 1.011924
      vertex -0.818362 1.020000 1.001054
    endloop
  endfacet
  facet normal 0.745642 -0.000000 0.666347
    outer loop
      vertex -0.818362 1.020000 1.001054
      vertex -0.828076 1.020000 1.011924
      vertex -0.818362 -1.020000 1.001054
    endloop
  endfacet
  facet normal -0.666347 0.000000 -0.745642
    outer loop
      vertex -0.828076 -1.020000 1.011924
      vertex -0.838946 -1.020000 1.021638
      vertex -0.838946 1.020000 1.021638
    endloop
  endfacet
  facet normal 0.666347 -0.000000 0.745642
    outer loop
      vertex -0.838946 1.020000 1.021638
      vertex -0.838946 -1.020000 1.021638
      vertex -0.828076 -1.020000 1.011924
    endloop
  endfacet
  facet normal -0.666347 0.000000 -0.745642
    outer loop
      vertex -0.828076 -1.020000 1.011924
      vertex -0.838946 1.020000 1.021638
      vertex -0.828076 1.020000 1.011924
    endloop
  endfacet
  facet normal 0.666347 -0.000000 0.745642
    outer loop
      vertex -0.828076 1.020000 1.011924
      vertex -0.838946 1.020000 1.021638
      vertex -0.828076 -1.020000 1.011924
    endloop
  endfacet
  facet normal -0.578671 0.000000 -0.815561
    outer loop
      vertex -0.838946 -1.020000 1.021638
      vertex -0.850836 -1.020000 1.030074
      vertex -0.850836 1.020000 1.030074
    endloop
  endfacet
  facet normal 0.578671 -0.000000 0.815561
    outer loop
      vertex -0.850836 1.020000 1.030074
      vertex -0.850836 -1.020000 1.030074
      vertex -0.838946 -1.020000 1.021638
    endloop
  endfacet
  facet normal -0.578671 0.000000 -0.815561
    outer loop
      vertex -0.838946 -1.020000 1.021638
      vertex -0.850836 1.020000 1.030074
      vertex -0.838946 1.020000 1.021638
    endloop
  endfacet
  facet normal 0.578671 -0.000000 0.815561
    outer loop
      vertex -0.838946 1.020000 1.021638
      vertex -0.850836 1.020000 1.030074
      vertex -0.838946 -1.020000 1.021638
    endloop
  endfacet
  facet normal -0.483719 0.000000 -0.875223
    outer loop
      vertex -0.850836 -1.020000 1.030074
      vertex -0.863595 -1.020000 1.037126
      vertex -0.863595 1.020000 1.037126
    endloop
  endfacet
  facet normal 0.483719 -0.000000 0.875223
    outer loop
      vertex -0.863595 1.020000 1.037126
      vertex -0.863595 -1.020000 1.037126
      vertex -0.850836 -1.020000 1.030074
    endloop
  endfacet
  facet normal -0.483719 0.000000 -0.875223
    outer loop
      vertex -0.850836 -1.020000 1.030074
      vertex -0.863595 1.020000 1.037126
      vertex -0.850836 1.020000 1.030074
    endloop
  endfacet
  facet normal 0.483719 -0.000000 0.875223
    outer loop
      vertex -0.850836 1.020000 1.030074
      vertex -0.863595 1.020000 1.037126
      vertex -0.850836 -1.020000 1.030074
    endloop
  endfacet
  facet normal -0.382683 0.000000 -0.923880
    outer loop
      vertex -0.863595 -1.020000 1.037126
      vertex -0.877064 -1.020000 1.042705
      vertex -0.877064 1.020000 1.042705
    endloop
  endfacet
  facet normal 0.382683 -0.000000 0.923880
    outer loop
      vertex -0.877064 1.020000 1.042705
      vertex -0.877064 -1.020000 1.042705
      vertex -0.863595 -1.020000 1.037126
    endloop
  endfacet
  facet normal -0.382683 0.000000 -0.923880
    outer loop
      vertex -0.863595 -1.020000 1.037126
      vertex -0.877064 1.020000 1.042705
      vertex -0.863595 1.020000 1.037126
    endloop
  endfacet
  facet normal 0.382683 -0.000000 0.923880
    outer loop
      vertex -0.863595 1.020000 1.037126
      vertex -0.877064 1.020000 1.042705
      vertex -0.863595 -1.020000 1.037126
    endloop
  endfacet
  facet normal -0.276836 0.000000 -0.960917
    outer loop
      vertex -0.877064 -1.020000 1.042705
      vertex -0.891072 -1.020000 1.046741
      vertex -0.891072 1.020000 1.046741
    endloop
  endfacet
  facet normal 0.276836 -0.000000 0.960917
    outer loop
      vertex -0.891072 1.020000 1.046741
      vertex -0.891072 -1.020000 1.046741
      vertex -0.877064 -1.020000 1.042705
    endloop
  endfacet
  facet normal -0.276836 0.000000 -0.960917
    outer loop
      vertex -0.877064 -1.020000 1.042705
      vertex -0.891072 1.020000 1.046741
      vertex -0.877064 1.020000 1.042705
    endloop
  endfacet
  facet normal 0.276836 -0.000000 0.960917
    outer loop
      vertex -0.877064 1.020000 1.042705
      vertex -0.891072 1.020000 1.046741
      vertex -0.877064 -1.020000 1.042705
    endloop
  endfacet
  facet normal -0.167506 0.000000 -0.985871
    outer loop
      vertex -0.891072 -1.020000 1.046741
      vertex -0.905445 -1.020000 1.049183
      vertex -0.905445 1.020000 1.049183
    endloop
  endfacet
  facet normal 0.167506 -0.000000 0.985871
    outer loop
      vertex -0.905445 1.020000 1.049183
      vertex -0.905445 -1.020000 1.049183
      vertex -0.891072 -1.020000 1.046741
    endloop
  endfacet
  facet normal -0.167506 0.000000 -0.985871
    outer loop
      vertex -0.891072 -1.020000 1.046741
      vertex -0.905445 1.020000 1.049183
      vertex -0.891072 1.020000 1.046741
    endloop
  endfacet
  facet normal 0.167506 -0.000000 0.985871
    outer loop
      vertex -0.891072 1.020000 1.046741
      vertex -0.905445 1.020000 1.049183
      vertex -0.891072 -1.020000 1.046741
    endloop
  endfacet
  facet normal -0.056070 0.000000 -0.998427
    outer loop
      vertex -0.905445 -1.020000 1.049183
      vertex -0.920000 -1.020000 1.050000
      vertex -0.920000 1.020000 1.050000
    endloop
  endfacet
  facet normal 0.056070 -0.000000 0.998427
    outer loop
      vertex -0.920000 1.020000 1.050000
      vertex -0.920000 -1.020000 1.050000
      vertex -0.905445 -1.020000 1.049183
    endloop
  endfacet
  facet normal -0.056070 0.000000 -0.998427
    outer loop
      vertex -0.905445 -1.020000 1.049183
      vertex -0.920000 1.020000 1.050000
      vertex -0.905445 1.020000 1.049183
    endloop
  endfacet
  facet normal 0.056070 -0.000000 0.998427
    outer loop
      vertex -0.905445 1.020000 1.049183
      vertex -0.920000 1.020000 1.050000
      vertex -0.905445 -1.020000 1.049183
    endloop
  endfacet
  facet normal 0.056070 0.000000 -0.998427
    outer loop
      vertex -0.920000 -1.020000 1.050000
      vertex -0.934555 -1.020000 1.049183
      vertex -0.934555 1.020000 1.049183
    endloop
  endfacet
  facet normal -0.056070 -0.000000 0.998427
    outer loop
      vertex -0.934555 1.020000 1.049183
      vertex -0.934555 -1.020000 1.049183
      vertex -0.920000 -1.020000 1.050000
    endloop
  endfacet
  facet normal 0.056070 0.000000 -0.998427
    outer loop
      vertex -0.920000 -1.020000 1.050000
      vertex -0.934555 1.020000 1.049183
      vertex -0.920000 1.020000 1.050000
    endloop
  endfacet
  facet normal -0.056070 -0.000000 0.998427
    outer loop
      vertex -0.920000 1.020000 1.050000
      vertex -0.934555 1.020000 1.049183
      vertex -0.920000 -1.020000 1.050000
    endloop
  endfacet
  facet normal 0.167506 0.000000 -0.985871
    outer loop
      vertex -0.934555 -1.020000 1.049183
      vertex -0.948928 -1.020000 1.046741
      vertex -0.948928 1.020000 1.046741
    endloop
  endfacet
  facet normal -0.167506 -0.000000 0.985871
    outer loop
      vertex -0.948928 1.020000 1.046741
      vertex -0.948928 -1.020000 1.046741
      vertex -0.934555 -1.020000 1.049183
    endloop
  endfacet
  facet normal 0.167506 0.000000 -0.985871
    outer loop
      vertex -0.934555 -1.020000 1.049183
      vertex -0.948928 1.020000 1.046741
      vertex -0.934555 1.020000 1.049183
    endloop
  endfacet
  facet normal -0.167506 -0.000000 0.985871
    outer loop
      vertex -0.934555 1.020000 1.049183
      vertex -0.948928 1.020000 1.046741
      vertex -0.934555 -1.020000 1.049183
    endloop
  endfacet
  facet normal 0.276836 0.000000 -0.960917
    outer loop
      vertex -0.948928 -1.020000 1.046741
      vertex -0.962759 -1.020000 1.042756
      vertex -0.962759 1.020000 1.042756
    endloop
  endfacet
  facet normal -0.276836 -0.000000 0.960917
    outer loop
      vertex -0.962759 1.020000 1.042756
      vertex -0.962759 -1.020000 1.042756
      vertex -0.948928 -1.020000 1.046741
    endloop
  endfacet
  facet normal 0.276836 0.000000 -0.960917
    outer loop
      vertex -0.948928 -1.020000 1.046741
      vertex -0.962759 1.020000 1.042756
      vertex -0.948928 1.020000 1.046741
    endloop
  endfacet
  facet normal -0.276836 -0.000000 0.960917
    outer loop
      vertex -0.948928 1.020000 1.046741
      vertex -0.962759 1.020000 1.042756
      vertex -0.948928 -1.020000 1.046741
    endloop
  endfacet
  facet normal -0.999226 0.000000 0.039346
    outer loop
      vertex -0.962759 -1.020000 1.042756
      vertex -0.949954 -1.020000 1.367961
      vertex -0.949954 1.020000 1.367961
    endloop
  endfacet
  facet normal 0.999226 -0.000000 -0.039346
    outer loop
      vertex -0.949954 1.020000 1.367961
      vertex -0.949954 -1.020000 1.367961
      vertex -0.962759 -1.020000 1.042756
    endloop
  endfacet
  facet normal -0.999226 0.000000 0.039346
    outer loop
      vertex -0.962759 -1.020000 1.042756
      vertex -0.949954 1.020000 1.367961
      vertex -0.962759 1.020000 1.042756
    endloop
  endfacet
  facet normal 0.999226 -0.000000 -0.039346
    outer loop
      vertex -0.962759 1.020000 1.042756
      vertex -0.949954 1.020000 1.367961
      vertex -0.962759 -1.020000 1.042756
    endloop
  endfacet
  facet normal -0.996155 0.000000 0.087606
    outer loop
      vertex -0.949954 -1.020000 1.367961
      vertex -0.949445 -1.020000 1.373740
      vertex -0.949445 1.020000 1.373740
    endloop
  endfacet
  facet normal 0.996155 -0.000000 -0.087606
    outer loop
      vertex -0.949445 1.020000 1.373740
      vertex -0.949445 -1.020000 1.373740
      vertex -0.949954 -1.020000 1.367961
    endloop
  endfacet
  facet normal -0.996155 0.000000 0.087606
    outer loop
      vertex -0.949954 -1.020000 1.367961
      vertex -0.949445 1.020000 1.373740
      vertex -0.949954 1.020000 1.367961
    endloop
  endfacet
  facet normal 0.996155 -0.000000 -0.087606
    outer loop
      vertex -0.949954 1.020000 1.367961
      vertex -0.949445 1.020000 1.373740
      vertex -0.949954 -1.020000 1.367961
    endloop
  endfacet
  facet normal -0.983039 0.000000 0.183397
    outer loop
      vertex -0.949445 -1.020000 1.373740
      vertex -0.948381 -1.020000 1.379442
      vertex -0.948381 1.020000 1.379442
    endloop
  endfacet
  facet normal 0.983039 -0.000000 -0.183397
    outer loop
      vertex -0.948381 1.020000 1.379442
      vertex -0.948381 -1.020000 1.379442
      vertex -0.949445 -1.020000 1.373740
    endloop
  endfacet
  facet normal -0.983039 0.000000 0.183397
    outer loop
      vertex -0.949445 -1.020000 1.373740
      vertex -0.948381 1.020000 1.379442
      vertex -0.949445 1.020000 1.373740
    endloop
  endfacet
  facet normal 0.983039 -0.000000 -0.183397
    outer loop
      vertex -0.949445 1.020000 1.373740
      vertex -0.948381 1.020000 1.379442
      vertex -0.949445 -1.020000 1.373740
    endloop
  endfacet
  facet normal -0.960733 0.000000 0.277474
    outer loop
      vertex -0.948381 -1.020000 1.379442
      vertex -0.946772 -1.020000 1.385016
      vertex -0.946772 1.020000 1.385016
    endloop
  endfacet
  facet normal 0.960733 -0.000000 -0.277474
    outer loop
      vertex -0.946772 1.020000 1.385016
      vertex -0.946772 -1.020000 1.385016
      vertex -0.948381 -1.020000 1.379442
    endloop
  endfacet
  facet normal -0.960733 0.000000 0.277474
    outer loop
      vertex -0.948381 -1.020000 1.379442
      vertex -0.946772 1.020000 1.385016
      vertex -0.948381 1.020000 1.379442
    endloop
  endfacet
  facet normal 0.960733 -0.000000 -0.277474
    outer loop
      vertex -0.948381 1.020000 1.379442
      vertex -0.946772 1.020000 1.385016
      vertex -0.948381 -1.020000 1.379442
    endloop
  endfacet
  facet normal -0.929446 0.000000 0.368957
    outer loop
      vertex -0.946772 -1.020000 1.385016
      vertex -0.944631 -1.020000 1.390407
      vertex -0.944631 1.020000 1.390407
    endloop
  endfacet
  facet normal 0.929446 -0.000000 -0.368957
    outer loop
      vertex -0.944631 1.020000 1.390407
      vertex -0.944631 -1.020000 1.390407
      vertex -0.946772 -1.020000 1.385016
    endloop
  endfacet
  facet normal -0.929446 0.000000 0.368957
    outer loop
      vertex -0.946772 -1.020000 1.385016
      vertex -0.944631 1.020000 1.390407
      vertex -0.946772 1.020000 1.385016
    endloop
  endfacet
  facet normal 0.929446 -0.000000 -0.368957
    outer loop
      vertex -0.946772 1.020000 1.385016
      vertex -0.944631 1.020000 1.390407
      vertex -0.946772 -1.020000 1.385016
    endloop
  endfacet
  facet normal -0.889471 0.000000 0.456992
    outer loop
      vertex -0.944631 -1.020000 1.390407
      vertex -0.941980 -1.020000 1.395567
      vertex -0.941980 1.020000 1.395567
    endloop
  endfacet
  facet normal 0.889471 -0.000000 -0.456992
    outer loop
      vertex -0.941980 1.020000 1.395567
      vertex -0.941980 -1.020000 1.395567
      vertex -0.944631 -1.020000 1.390407
    endloop
  endfacet
  facet normal -0.889471 0.000000 0.456992
    outer loop
      vertex -0.944631 -1.020000 1.390407
      vertex -0.941980 1.020000 1.395567
      vertex -0.944631 1.020000 1.390407
    endloop
  endfacet
  facet normal 0.889471 -0.000000 -0.456992
    outer loop
      vertex -0.944631 1.020000 1.390407
      vertex -0.941980 1.020000 1.395567
      vertex -0.944631 -1.020000 1.390407
    endloop
  endfacet
  facet normal -0.841181 0.000000 0.540754
    outer loop
      vertex -0.941980 -1.020000 1.395567
      vertex -0.938843 -1.020000 1.400447
      vertex -0.938843 1.020000 1.400447
    endloop
  endfacet
  facet normal 0.841181 -0.000000 -0.540754
    outer loop
      vertex -0.938843 1.020000 1.400447
      vertex -0.938843 -1.020000 1.400447
      vertex -0.941980 -1.020000 1.395567
    endloop
  endfacet
  facet normal -0.841181 0.000000 0.540754
    outer loop
      vertex -0.941980 -1.020000 1.395567
      vertex -0.938843 1.020000 1.400447
      vertex -0.941980 1.020000 1.395567
    endloop
  endfacet
  facet normal 0.841181 -0.000000 -0.540754
    outer loop
      vertex -0.941980 1.020000 1.395567
      vertex -0.938843 1.020000 1.400447
      vertex -0.941980 -1.020000 1.395567
    endloop
  endfacet
endsolid mesh
