solid door3_wall
  facet normal 0.000000 1.000000 0.000000
    outer loop
      vertex 0.360000 10.000000 2.633333
      vertex 1.010000 10.000000 1.983333
      vertex 0.360000 10.000000 -0.216667
    endloop
  endfacet
  facet normal 0.000000 -1.000000 0.000000
    outer loop
      vertex 0.360000 12.000000 2.633333
      vertex 0.360000 12.000000 -0.216667
      vertex 1.010000 12.000000 1.983333
    endloop
  endfacet
  facet normal -0.000000 1.000000 0.000000
    outer loop
      vertex 0.360000 10.000000 2.633333
      vertex 2.380000 10.000000 2.633333
      vertex 1.010000 10.000000 1.983333
    endloop
  endfacet
  facet normal 0.000000 -1.000000 0.000000
    outer loop
      vertex 0.360000 12.000000 2.633333
      vertex 1.010000 12.000000 1.983333
      vertex 2.380000 12.000000 2.633333
    endloop
  endfacet
  facet normal 0.000000 1.000000 0.000000
    outer loop
      vertex 2.380000 10.000000 2.633333
      vertex 1.730000 10.000000 0.433333
      vertex 1.010000 10.000000 1.983333
    endloop
  endfacet
  facet normal 0.000000 -1.000000 0.000000
    outer loop
      vertex 2.380000 12.000000 2.633333
      vertex 1.010000 12.000000 1.983333
      vertex 1.730000 12.000000 0.433333
    endloop
  endfacet
  facet normal 0.000000 1.000000 0.000000
    outer loop
      vertex 2.380000 10.000000 2.633333
      vertex 2.380000 10.000000 -0.216667
      vertex 1.730000 10.000000 0.433333
    endloop
  endfacet
  facet normal 0.000000 -1.000000 -0.000000
    outer loop
      vertex 2.380000 12.000000 2.633333
      vertex 1.730000 12.000000 0.433333
      vertex 2.380000 12.000000 -0.216667
    endloop
  endfacet
  facet normal 0.000000 1.000000 0.000000
    outer loop
      vertex 2.380000 10.000000 -0.216667
      vertex 1.010000 10.000000 0.433333
      vertex 1.730000 10.000000 0.433333
    endloop
  endfacet
  facet normal 0.000000 -1.000000 0.000000
    outer loop
      vertex 2.380000 12.000000 -0.216667
      vertex 1.730000 12.000000 0.433333
      vertex 1.010000 12.000000 0.433333
    endloop
  endfacet
  facet normal 0.000000 1.000000 0.000000
    outer loop
      vertex 2.380000 10.000000 -0.216667
      vertex 0.360000 10.000000 -0.216667
      vertex 1.010000 10.000000 0.433333
    endloop
  endfacet
  facet normal 0.000000 -1.000000 0.000000
    outer loop
      vertex 2.380000 12.000000 -0.216667
      vertex 1.010000 12.000000 0.433333
      vertex 0.360000 12.000000 -0.216667
    endloop
  endfacet
  facet normal 0.000000 1.000000 0.000000
    outer loop
      vertex 0.360000 10.000000 -0.216667
      vertex 1.010000 10.000000 1.983333
      vertex 1.010000 10.000000 0.433333
    endloop
  endfacet
  facet normal 0.000000 -1.000000 0.000000
    outer loop
      vertex 0.360000 12.000000 -0.216667
      vertex 1.010000 12.000000 0.433333
      vertex 1.010000 12.000000 1.983333
    endloop
  endfacet
  facet normal 0.000000 0.000000 1.000000
    outer loop
      vertex 0.360000 10.000000 2.633333
      vertex 2.380000 10.000000 2.633333
      vertex 2.380000 12.000000 2.633333
    endloop
  endfacet
  facet normal 0.000000 0.000000 1.000000
    outer loop
      vertex 0.360000 10.000000 2.633333
      vertex 2.380000 12.000000 2.633333
      vertex 0.360000 12.000000 2.633333
    endloop
  endfacet
  facet normal 1.000000 0.000000 0.000000
    outer loop
      vertex 2.380000 10.000000 2.633333
      vertex 2.380000 10.000000 -0.216667
      vertex 2.380000 12.000000 -0.216667
    endloop
  endfacet
  facet normal 1.000000 -0.000000 0.000000
    outer loop
      vertex 2.380000 10.000000 2.633333
      vertex 2.380000 12.000000 -0.216667
      vertex 2.380000 12.000000 2.633333
    endloop
  endfacet
  facet normal 0.000000 0.000000 -1.000000
    outer loop
      vertex 2.380000 10.000000 -0.216667
      vertex 0.360000 10.000000 -0.216667
      vertex 0.360000 12.000000 -0.216667
    endloop
  endfacet
  facet normal 0.000000 0.000000 -1.000000
    outer loop
      vertex 2.380000 10.000000 -0.216667
      vertex 0.360000 12.000000 -0.216667
      vertex 2.380000 12.000000 -0.216667
    endloop
  endfacet
  facet normal -1.000000 0.000000 0.000000
    outer loop
      vertex 0.360000 10.000000 -0.216667
      vertex 0.360000 10.000000 2.633333
      vertex 0.360000 12.000000 2.633333
    endloop
  endfacet
  facet normal -1.000000 0.000000 0.000000
    outer loop
      vertex 0.360000 10.000000 -0.216667
      vertex 0.360000 12.000000 2.633333
      vertex 0.360000 12.000000 -0.216667
    endloop
  endfacet
  facet normal 0.906929 0.000000 0.421283
    outer loop
      vertex 1.730000 10.000000 0.433333
      vertex 1.010000 12.000000 1.983333
      vertex 1.010000 10.000000 1.983333
    endloop
  endfacet
  facet normal 0.906929 -0.000000 0.421283
    outer loop
      vertex 1.730000 10.000000 0.433333
      vertex 1.730000 12.000000 0.433333
      vertex 1.010000 12.000000 1.983333
    endloop
  endfacet
  facet normal -1.000000 0.000000 0.000000
    outer loop
      vertex 1.010000 10.000000 1.983333
      vertex 1.010000 12.000000 0.433333
      vertex 1.010000 10.000000 0.433333
    endloop
  endfacet
  facet normal -1.000000 0.000000 0.000000
    outer loop
      vertex 1.010000 10.000000 1.983333
      vertex 1.010000 12.000000 1.983333
      vertex 1.010000 12.000000 0.433333
    endloop
  endfacet
  facet normal 0.000000 0.000000 -1.000000
    outer loop
      vertex 1.010000 10.000000 0.433333
      vertex 1.730000 12.000000 0.433333
      vertex 1.730000 10.000000 0.433333
    endloop
  endfacet
  facet normal 0.000000 0.000000 -1.000000
    outer loop
      vertex 1.010000 10.000000 0.433333
      vertex 1.010000 12.000000 0.433333
      vertex 1.730000 12.000000 0.433333
    endloop
  endfacet
endsolid door3_wall
