solid mesh
  facet normal 0.000000 1.000000 0.000000
    outer loop
      vertex 0.929948 -1.020000 0.513314
      vertex 0.944273 -1.020000 0.510880
      vertex 0.929948 -1.020000 0.112662
    endloop
  endfacet
  facet normal -0.000000 -1.000000 -0.000000
    outer loop
      vertex 0.929948 -1.020000 0.112662
      vertex 0.944273 -1.020000 0.510880
      vertex 0.929948 -1.020000 0.513314
    endloop
  endfacet
  facet normal 0.000000 -1.000000 0.000000
    outer loop
      vertex 0.929948 1.020000 0.513314
      vertex 0.929948 1.020000 0.112662
      vertex 0.944273 1.020000 0.510880
    endloop
  endfacet
  facet normal -0.000000 1.000000 -0.000000
    outer loop
      vertex 0.944273 1.020000 0.510880
      vertex 0.929948 1.020000 0.112662
      vertex 0.929948 1.020000 0.513314
    endloop
  endfacet
  facet normal 0.000000 1.000000 0.000000
    outer loop
      vertex 1.031133 -1.020000 0.529635
      vertex 1.048425 -1.020000 0.112662
      vertex 1.020692 -1.020000 0.523864
    endloop
  endfacet
  facet normal -0.000000 -1.000000 -0.000000
    outer loop
      vertex 1.020692 -1.020000 0.523864
      vertex 1.048425 -1.020000 0.112662
      vertex 1.031133 -1.020000 0.529635
    endloop
  endfacet
  facet normal 0.000000 -1.000000 -0.000000
    outer loop
      vertex 1.031133 1.020000 0.529635
      vertex 1.020692 1.020000 0.523864
      vertex 1.048425 1.020000 0.112662
    endloop
  endfacet
  facet normal -0.000000 1.000000 0.000000
    outer loop
      vertex 1.048425 1.020000 0.112662
      vertex 1.020692 1.020000 0.523864
      vertex 1.031133 1.020000 0.529635
    endloop
  endfacet
  facet normal 0.000000 1.000000 0.000000
    outer loop
      vertex 1.048425 -1.020000 0.112662
      vertex 1.006188 -1.020000 0.517856
      vertex 1.020692 -1.020000 0.523864
    endloop
  endfacet
  facet normal -0.000000 -1.000000 -0.000000
    outer loop
      vertex 1.020692 -1.020000 0.523864
      vertex 1.006188 -1.020000 0.517856
      vertex 1.048425 -1.020000 0.112662
    endloop
  endfacet
  facet normal 0.000000 -1.000000 0.000000
    outer loop
      vertex 1.048425 1.020000 0.112662
      vertex 1.020692 1.020000 0.523864
      vertex 1.006188 1.020000 0.517856
    endloop
  endfacet
  facet normal -0.000000 1.000000 -0.000000
    outer loop
      vertex 1.006188 1.020000 0.517856
      vertex 1.020692 1.020000 0.523864
      vertex 1.048425 1.020000 0.112662
    endloop
  endfacet
  facet normal 0.000000 1.000000 0.000000
    outer loop
      vertex 1.048425 -1.020000 0.112662
      vertex 0.991101 -1.020000 0.513510
      vertex 1.006188 -1.020000 0.517856
    endloop
  endfacet
  facet normal -0.000000 -1.000000 -0.000000
    outer loop
      vertex 1.006188 -1.020000 0.517856
      vertex 0.991101 -1.020000 0.513510
      vertex 1.048425 -1.020000 0.112662
    endloop
  endfacet
  facet normal 0.000000 -1.000000 0.000000
    outer loop
      vertex 1.048425 1.020000 0.112662
      vertex 1.006188 1.020000 0.517856
      vertex 0.991101 1.020000 0.513510
    endloop
  endfacet
  facet normal -0.000000 1.000000 -0.000000
    outer loop
      vertex 0.991101 1.020000 0.513510
      vertex 1.006188 1.020000 0.517856
      vertex 1.048425 1.020000 0.112662
    endloop
  endfacet
  facet normal 0.000000 1.000000 0.000000
    outer loop
      vertex 1.048425 -1.020000 0.112662
      vertex 0.975624 -1.020000 0.510880
      vertex 0.991101 -1.020000 0.513510
    endloop
  endfacet
  facet normal -0.000000 -1.000000 -0.000000
    outer loop
      vertex 0.991101 -1.020000 0.513510
      vertex 0.975624 -1.020000 0.510880
      vertex 1.048425 -1.020000 0.112662
    endloop
  endfacet
  facet normal 0.000000 -1.000000 0.000000
    outer loop
      vertex 1.048425 1.020000 0.112662
      vertex 0.991101 1.020000 0.513510
      vertex 0.975624 1.020000 0.510880
    endloop
  endfacet
  facet normal -0.000000 1.000000 -0.000000
    outer loop
      vertex 0.975624 1.020000 0.510880
      vertex 0.991101 1.020000 0.513510
      vertex 1.048425 1.020000 0.112662
    endloop
  endfacet
  facet normal 0.000000 1.000000 0.000000
    outer loop
      vertex 1.048425 -1.020000 0.112662
      vertex 0.929948 -1.020000 0.112662
      vertex 0.975624 -1.020000 0.510880
    endloop
  endfacet
  facet normal -0.000000 -1.000000 -0.000000
    outer loop
      vertex 0.975624 -1.020000 0.510880
      vertex 0.929948 -1.020000 0.112662
      vertex 1.048425 -1.020000 0.112662
    endloop
  endfacet
  facet normal 0.000000 -1.000000 0.000000
    outer loop
      vertex 1.048425 1.020000 0.112662
      vertex 0.975624 1.020000 0.510880
      vertex 0.929948 1.020000 0.112662
    endloop
  endfacet
  facet normal -0.000000 1.000000 -0.000000
    outer loop
      vertex 0.929948 1.020000 0.112662
      vertex 0.975624 1.020000 0.510880
      vertex 1.048425 1.020000 0.112662
    endloop
  endfacet
  facet normal 0.000000 1.000000 0.000000
    outer loop
      vertex 0.929948 -1.020000 0.112662
      vertex 0.959948 -1.020000 0.510000
      vertex 0.975624 -1.020000 0.510880
    endloop
  endfacet
  facet normal -0.000000 -1.000000 -0.000000
    outer loop
      vertex 0.975624 -1.020000 0.510880
      vertex 0.959948 -1.020000 0.510000
      vertex 0.929948 -1.020000 0.112662
    endloop
  endfacet
  facet normal 0.000000 -1.000000 0.000000
    outer loop
      vertex 0.929948 1.020000 0.112662
      vertex 0.975624 1.020000 0.510880
      vertex 0.959948 1.020000 0.510000
    endloop
  endfacet
  facet normal -0.000000 1.000000 -0.000000
    outer loop
      vertex 0.959948 1.020000 0.510000
      vertex 0.975624 1.020000 0.510880
      vertex 0.929948 1.020000 0.112662
    endloop
  endfacet
  facet normal 0.000000 1.000000 0.000000
    outer loop
      vertex 0.929948 -1.020000 0.112662
      vertex 0.944273 -1.020000 0.510880
      vertex 0.959948 -1.020000 0.510000
    endloop
  endfacet
  facet normal -0.000000 -1.000000 -0.000000
    outer loop
      vertex 0.959948 -1.020000 0.510000
      vertex 0.944273 -1.020000 0.510880
      vertex 0.929948 -1.020000 0.112662
    endloop
  endfacet
  facet normal 0.000000 -1.000000 0.000000
    outer loop
      vertex 0.929948 1.020000 0.112662
      vertex 0.959948 1.020000 0.510000
      vertex 0.944273 1.020000 0.510880
    endloop
  endfacet
  facet normal -0.000000 1.000000 -0.000000
    outer loop
      vertex 0.944273 1.020000 0.510880
      vertex 0.959948 1.020000 0.510000
      vertex 0.929948 1.020000 0.112662
    endloop
  endfacet
  facet normal 0.167506 0.000000 0.985871
    outer loop
      vertex 0.929948 -1.020000 0.513314
      vertex 0.944273 -1.020000 0.510880
      vertex 0.944273 1.020000 0.510880
    endloop
  endfacet
  facet normal -0.167506 -0.000000 -0.985871
    outer loop
      vertex 0.944273 1.020000 0.510880
      vertex 0.944273 -1.020000 0.510880
      vertex 0.929948 -1.020000 0.513314
    endloop
  endfacet
  facet normal 0.167506 -0.000000 0.985871
    outer loop
      vertex 0.929948 -1.020000 0.513314
      vertex 0.944273 1.020000 0.510880
      vertex 0.929948 1.020000 0.513314
    endloop
  endfacet
  facet normal -0.167506 0.000000 -0.985871
    outer loop
      vertex 0.929948 1.020000 0.513314
      vertex 0.944273 1.020000 0.510880
      vertex 0.929948 -1.020000 0.513314
    endloop
  endfacet
  facet normal 0.056070 0.000000 0.998427
    outer loop
      vertex 0.944273 -1.020000 0.510880
      vertex 0.959948 -1.020000 0.510000
      vertex 0.959948 1.020000 0.510000
    endloop
  endfacet
  facet normal -0.056070 -0.000000 -0.998427
    outer loop
      vertex 0.959948 1.020000 0.510000
      vertex 0.959948 -1.020000 0.510000
      vertex 0.944273 -1.020000 0.510880
    endloop
  endfacet
  facet normal 0.056070 -0.000000 0.998427
    outer loop
      vertex 0.944273 -1.020000 0.510880
      vertex 0.959948 1.020000 0.510000
      vertex 0.944273 1.020000 0.510880
    endloop
  endfacet
  facet normal -0.056070 0.000000 -0.998427
    outer loop
      vertex 0.944273 1.020000 0.510880
      vertex 0.959948 1.020000 0.510000
      vertex 0.944273 -1.020000 0.510880
    endloop
  endfacet
  facet normal -0.056070 0.000000 0.998427
    outer loop
      vertex 0.959948 -1.020000 0.510000
      vertex 0.975624 -1.020000 0.510880
      vertex 0.975624 1.020000 0.510880
    endloop
  endfacet
  facet normal 0.056070 -0.000000 -0.998427
    outer loop
      vertex 0.975624 1.020000 0.510880
      vertex 0.975624 -1.020000 0.510880
      vertex 0.959948 -1.020000 0.510000
    endloop
  endfacet
  facet normal -0.056070 0.000000 0.998427
    outer loop
      vertex 0.959948 -1.020000 0.510000
      vertex 0.975624 1.020000 0.510880
      vertex 0.959948 1.020000 0.510000
    endloop
  endfacet
  facet normal 0.056070 -0.000000 -0.998427
    outer loop
      vertex 0.959948 1.020000 0.510000
      vertex 0.975624 1.020000 0.510880
      vertex 0.959948 -1.020000 0.510000
    endloop
  endfacet
  facet normal -0.167506 0.000000 0.985871
    outer loop
      vertex 0.975624 -1.020000 0.510880
      vertex 0.991101 -1.020000 0.513510
      vertex 0.991101 1.020000 0.513510
    endloop
  endfacet
  facet normal 0.167506 -0.000000 -0.985871
    outer loop
      vertex 0.991101 1.020000 0.513510
      vertex 0.991101 -1.020000 0.513510
      vertex 0.975624 -1.020000 0.510880
    endloop
  endfacet
  facet normal -0.167506 0.000000 0.985871
    outer loop
      vertex 0.975624 -1.020000 0.510880
      vertex 0.991101 1.020000 0.513510
      vertex 0.975624 1.020000 0.510880
    endloop
  endfacet
  facet normal 0.167506 -0.000000 -0.985871
    outer loop
      vertex 0.975624 1.020000 0.510880
      vertex 0.991101 1.020000 0.513510
      vertex 0.975624 -1.020000 0.510880
    endloop
  endfacet
  facet normal -0.276836 0.000000 0.960917
    outer loop
      vertex 0.991101 -1.020000 0.513510
      vertex 1.006188 -1.020000 0.517856
      vertex 1.006188 1.020000 0.517856
    endloop
  endfacet
  facet normal 0.276836 -0.000000 -0.960917
    outer loop
      vertex 1.006188 1.020000 0.517856
      vertex 1.006188 -1.020000 0.517856
      vertex 0.991101 -1.020000 0.513510
    endloop
  endfacet
  facet normal -0.276836 0.000000 0.960917
    outer loop
      vertex 0.991101 -1.020000 0.513510
      vertex 1.006188 1.020000 0.517856
      vertex 0.991101 1.020000 0.513510
    endloop
  endfacet
  facet normal 0.276836 -0.000000 -0.960917
    outer loop
      vertex 0.991101 1.020000 0.513510
      vertex 1.006188 1.020000 0.517856
      vertex 0.991101 -1.020000 0.513510
    endloop
  endfacet
  facet normal -0.382683 0.000000 0.923880
    outer loop
      vertex 1.006188 -1.020000 0.517856
      vertex 1.020692 -1.020000 0.523864
      vertex 1.020692 1.020000 0.523864
    endloop
  endfacet
  facet normal 0.382683 -0.000000 -0.923880
    outer loop
      vertex 1.020692 1.020000 0.523864
      vertex 1.020692 -1.020000 0.523864
      vertex 1.006188 -1.020000 0.517856
    endloop
  endfacet
  facet normal -0.382683 0.000000 0.923880
    outer loop
      vertex 1.006188 -1.020000 0.517856
      vertex 1.020692 1.020000 0.523864
      vertex 1.006188 1.020000 0.517856
    endloop
  endfacet
  facet normal 0.382683 -0.000000 -0.923880
    outer loop
      vertex 1.006188 1.020000 0.517856
      vertex 1.020692 1.020000 0.523864
      vertex 1.006188 -1.020000 0.517856
    endloop
  endfacet
  facet normal -0.483719 0.000000 0.875223
    outer loop
      vertex 1.020692 -1.020000 0.523864
      vertex 1.031133 -1.020000 0.529635
      vertex 1.031133 1.020000 0.529635
    endloop
  endfacet
  facet normal 0.483719 -0.000000 -0.875223
    outer loop
      vertex 1.031133 1.020000 0.529635
      vertex 1.031133 -1.020000 0.529635
      vertex 1.020692 -1.020000 0.523864
    endloop
  endfacet
  facet normal -0.483719 0.000000 0.875223
    outer loop
      vertex 1.020692 -1.020000 0.523864
      vertex 1.031133 1.020000 0.529635
      vertex 1.020692 1.020000 0.523864
    endloop
  endfacet
  facet normal 0.483719 -0.000000 -0.875223
    outer loop
      vertex 1.020692 1.020000 0.523864
      vertex 1.031133 1.020000 0.529635
      vertex 1.020692 -1.020000 0.523864
    endloop
  endfacet
  facet normal 0.999141 0.000000 0.041434
    outer loop
      vertex 1.031133 -1.020000 0.529635
      vertex 1.048425 -1.020000 0.112662
      vertex 1.048425 1.020000 0.112662
    endloop
  endfacet
  facet normal -0.999141 -0.000000 -0.041434
    outer loop
      vertex 1.048425 1.020000 0.112662
      vertex 1.048425 -1.020000 0.112662
      vertex 1.031133 -1.020000 0.529635
    endloop
  endfacet
  facet normal 0.999141 -0.000000 0.041434
    outer loop
      vertex 1.031133 -1.020000 0.529635
      vertex 1.048425 1.020000 0.112662
      vertex 1.031133 1.020000 0.529635
    endloop
  endfacet
  facet normal -0.999141 0.000000 -0.041434
    outer loop
      vertex 1.031133 1.020000 0.529635
      vertex 1.048425 1.020000 0.112662
      vertex 1.031133 -1.020000 0.529635
    endloop
  endfacet
  facet normal 0.000000 0.000000 -1.000000
    outer loop
      vertex 1.048425 -1.020000 0.112662
      vertex 0.929948 -1.020000 0.112662
      vertex 0.929948 1.020000 0.112662
    endloop
  endfacet
  facet normal -0.000000 -0.000000 1.000000
    outer loop
      vertex 0.929948 1.020000 0.112662
      vertex 0.929948 -1.020000 0.112662
      vertex 1.048425 -1.020000 0.112662
    endloop
  endfacet
  facet normal 0.000000 0.000000 -1.000000
    outer loop
      vertex 1.048425 -1.020000 0.112662
      vertex 0.929948 1.020000 0.112662
      vertex 1.048425 1.020000 0.112662
    endloop
  endfacet
  facet normal -0.000000 -0.000000 1.000000
    outer loop
      vertex 1.048425 1.020000 0.112662
      vertex 0.929948 1.020000 0.112662
      vertex 1.048425 -1.020000 0.112662
    endloop
  endfacet
  facet normal -1.000000 0.000000 0.000000
    outer loop
      vertex 0.929948 -1.020000 0.112662
      vertex 0.929948 -1.020000 0.513314
      vertex 0.929948 1.020000 0.513314
    endloop
  endfacet
  facet normal 1.000000 -0.000000 -0.000000
    outer loop
      vertex 0.929948 1.020000 0.513314
      vertex 0.929948 -1.020000 0.513314
      vertex 0.929948 -1.020000 0.112662
    endloop
  endfacet
  facet normal -1.000000 0.000000 0.000000
    outer loop
      vertex 0.929948 -1.020000 0.112662
      vertex 0.929948 1.020000 0.513314
      vertex 0.929948 1.020000 0.112662
    endloop
  endfacet
  facet normal 1.000000 -0.000000 -0.000000
    outer loop
      vertex 0.929948 1.020000 0.112662
      vertex 0.929948 1.020000 0.513314
      vertex 0.929948 -1.020000 0.112662
    endloop
  endfacet
endsolid mesh
