solid mesh
  facet normal 0.000000 1.000000 0.000000
    outer loop
      vertex 0.829977 -1.020000 0.643314
      vertex 0.844302 -1.020000 0.640880
      vertex 0.829977 -1.020000 0.098079
    endloop
  endfacet
  facet normal -0.000000 -1.000000 -0.000000
    outer loop
      vertex 0.829977 -1.020000 0.098079
      vertex 0.844302 -1.020000 0.640880
      vertex 0.829977 -1.020000 0.643314
    endloop
  endfacet
  facet normal 0.000000 -1.000000 0.000000
    outer loop
      vertex 0.829977 1.020000 0.643314
      vertex 0.829977 1.020000 0.098079
      vertex 0.844302 1.020000 0.640880
    endloop
  endfacet
  facet normal -0.000000 1.000000 -0.000000
    outer loop
      vertex 0.844302 1.020000 0.640880
      vertex 0.829977 1.020000 0.098079
      vertex 0.829977 1.020000 0.643314
    endloop
  endfacet
  facet normal 0.000000 1.000000 0.000000
    outer loop
      vertex 0.936263 -1.020000 0.662737
      vertex 0.951875 -1.020000 0.098079
      vertex 0.934462 -1.020000 0.661459
    endloop
  endfacet
  facet normal -0.000000 -1.000000 -0.000000
    outer loop
      vertex 0.934462 -1.020000 0.661459
      vertex 0.951875 -1.020000 0.098079
      vertex 0.936263 -1.020000 0.662737
    endloop
  endfacet
  facet normal 0.000000 -1.000000 -0.000000
    outer loop
      vertex 0.936263 1.020000 0.662737
      vertex 0.934462 1.020000 0.661459
      vertex 0.951875 1.020000 0.098079
    endloop
  endfacet
  facet normal -0.000000 1.000000 0.000000
    outer loop
      vertex 0.951875 1.020000 0.098079
      vertex 0.934462 1.020000 0.661459
      vertex 0.936263 1.020000 0.662737
    endloop
  endfacet
  facet normal 0.000000 1.000000 0.000000
    outer loop
      vertex 0.951875 -1.020000 0.098079
      vertex 0.920721 -1.020000 0.653864
      vertex 0.934462 -1.020000 0.661459
    endloop
  endfacet
  facet normal -0.000000 -1.000000 -0.000000
    outer loop
      vertex 0.934462 -1.020000 0.661459
      vertex 0.920721 -1.020000 0.653864
      vertex 0.951875 -1.020000 0.098079
    endloop
  endfacet
  facet normal 0.000000 -1.000000 0.000000
    outer loop
      vertex 0.951875 1.020000 0.098079
      vertex 0.934462 1.020000 0.661459
      vertex 0.920721 1.020000 0.653864
    endloop
  endfacet
  facet normal -0.000000 1.000000 -0.000000
    outer loop
      vertex 0.920721 1.020000 0.653864
      vertex 0.934462 1.020000 0.661459
      vertex 0.951875 1.020000 0.098079
    endloop
  endfacet
  facet normal 0.000000 1.000000 0.000000
    outer loop
      vertex 0.951875 -1.020000 0.098079
      vertex 0.906216 -1.020000 0.647856
      vertex 0.920721 -1.020000 0.653864
    endloop
  endfacet
  facet normal -0.000000 -1.000000 -0.000000
    outer loop
      vertex 0.920721 -1.020000 0.653864
      vertex 0.906216 -1.020000 0.647856
      vertex 0.951875 -1.020000 0.098079
    endloop
  endfacet
  facet normal 0.000000 -1.000000 0.000000
    outer loop
      vertex 0.951875 1.020000 0.098079
      vertex 0.920721 1.020000 0.653864
      vertex 0.906216 1.020000 0.647856
    endloop
  endfacet
  facet normal -0.000000 1.000000 -0.000000
    outer loop
      vertex 0.906216 1.020000 0.647856
      vertex 0.920721 1.020000 0.653864
      vertex 0.951875 1.020000 0.098079
    endloop
  endfacet
  facet normal 0.000000 1.000000 0.000000
    outer loop
      vertex 0.951875 -1.020000 0.098079
      vertex 0.891130 -1.020000 0.643510
      vertex 0.906216 -1.020000 0.647856
    endloop
  endfacet
  facet normal -0.000000 -1.000000 -0.000000
    outer loop
      vertex 0.906216 -1.020000 0.647856
      vertex 0.891130 -1.020000 0.643510
      vertex 0.951875 -1.020000 0.098079
    endloop
  endfacet
  facet normal 0.000000 -1.000000 0.000000
    outer loop
      vertex 0.951875 1.020000 0.098079
      vertex 0.906216 1.020000 0.647856
      vertex 0.891130 1.020000 0.643510
    endloop
  endfacet
  facet normal -0.000000 1.000000 -0.000000
    outer loop
      vertex 0.891130 1.020000 0.643510
      vertex 0.906216 1.020000 0.647856
      vertex 0.951875 1.020000 0.098079
    endloop
  endfacet
  facet normal 0.000000 1.000000 0.000000
    outer loop
      vertex 0.951875 -1.020000 0.098079
      vertex 0.875652 -1.020000 0.640880
      vertex 0.891130 -1.020000 0.643510
    endloop
  endfacet
  facet normal -0.000000 -1.000000 -0.000000
    outer loop
      vertex 0.891130 -1.020000 0.643510
      vertex 0.875652 -1.020000 0.640880
      vertex 0.951875 -1.020000 0.098079
    endloop
  endfacet
  facet normal 0.000000 -1.000000 0.000000
    outer loop
      vertex 0.951875 1.020000 0.098079
      vertex 0.891130 1.020000 0.643510
      vertex 0.875652 1.020000 0.640880
    endloop
  endfacet
  facet normal -0.000000 1.000000 -0.000000
    outer loop
      vertex 0.875652 1.020000 0.640880
      vertex 0.891130 1.020000 0.643510
      vertex 0.951875 1.020000 0.098079
    endloop
  endfacet
  facet normal 0.000000 1.000000 0.000000
    outer loop
      vertex 0.951875 -1.020000 0.098079
      vertex 0.829977 -1.020000 0.098079
      vertex 0.875652 -1.020000 0.640880
    endloop
  endfacet
  facet normal -0.000000 -1.000000 -0.000000
    outer loop
      vertex 0.875652 -1.020000 0.640880
      vertex 0.829977 -1.020000 0.098079
      vertex 0.951875 -1.020000 0.098079
    endloop
  endfacet
  facet normal 0.000000 -1.000000 0.000000
    outer loop
      vertex 0.951875 1.020000 0.098079
      vertex 0.875652 1.020000 0.640880
      vertex 0.829977 1.020000 0.098079
    endloop
  endfacet
  facet normal -0.000000 1.000000 -0.000000
    outer loop
      vertex 0.829977 1.020000 0.098079
      vertex 0.875652 1.020000 0.640880
      vertex 0.951875 1.020000 0.098079
    endloop
  endfacet
  facet normal 0.000000 1.000000 0.000000
    outer loop
      vertex 0.829977 -1.020000 0.098079
      vertex 0.859977 -1.020000 0.640000
      vertex 0.875652 -1.020000 0.640880
    endloop
  endfacet
  facet normal -0.000000 -1.000000 -0.000000
    outer loop
      vertex 0.875652 -1.020000 0.640880
      vertex 0.859977 -1.020000 0.640000
      vertex 0.829977 -1.020000 0.098079
    endloop
  endfacet
  facet normal 0.000000 -1.000000 0.000000
    outer loop
      vertex 0.829977 1.020000 0.098079
      vertex 0.875652 1.020000 0.640880
      vertex 0.859977 1.020000 0.640000
    endloop
  endfacet
  facet normal -0.000000 1.000000 -0.000000
    outer loop
      vertex 0.859977 1.020000 0.640000
      vertex 0.875652 1.020000 0.640880
      vertex 0.829977 1.020000 0.098079
    endloop
  endfacet
  facet normal 0.000000 1.000000 0.000000
    outer loop
      vertex 0.829977 -1.020000 0.098079
      vertex 0.844302 -1.020000 0.640880
      vertex 0.859977 -1.020000 0.640000
    endloop
  endfacet
  facet normal -0.000000 -1.000000 -0.000000
    outer loop
      vertex 0.859977 -1.020000 0.640000
      vertex 0.844302 -1.020000 0.640880
      vertex 0.829977 -1.020000 0.098079
    endloop
  endfacet
  facet normal 0.000000 -1.000000 0.000000
    outer loop
      vertex 0.829977 1.020000 0.098079
      vertex 0.859977 1.020000 0.640000
      vertex 0.844302 1.020000 0.640880
    endloop
  endfacet
  facet normal -0.000000 1.000000 -0.000000
    outer loop
      vertex 0.844302 1.020000 0.640880
      vertex 0.859977 1.020000 0.640000
      vertex 0.829977 1.020000 0.098079
    endloop
  endfacet
  facet normal 0.167506 0.000000 0.985871
    outer loop
      vertex 0.829977 -1.020000 0.643314
      vertex 0.844302 -1.020000 0.640880
      vertex 0.844302 1.020000 0.640880
    endloop
  endfacet
  facet normal -0.167506 -0.000000 -0.985871
    outer loop
      vertex 0.844302 1.020000 0.640880
      vertex 0.844302 -1.020000 0.640880
      vertex 0.829977 -1.020000 0.643314
    endloop
  endfacet
  facet normal 0.167506 -0.000000 0.985871
    outer loop
      vertex 0.829977 -1.020000 0.643314
      vertex 0.844302 1.020000 0.640880
      vertex 0.829977 1.020000 0.643314
    endloop
  endfacet
  facet normal -0.167506 0.000000 -0.985871
    outer loop
      vertex 0.829977 1.020000 0.643314
      vertex 0.844302 1.020000 0.640880
      vertex 0.829977 -1.020000 0.643314
    endloop
  endfacet
  facet normal 0.056070 0.000000 0.998427
    outer loop
      vertex 0.844302 -1.020000 0.640880
      vertex 0.859977 -1.020000 0.640000
      vertex 0.859977 1.020000 0.640000
    endloop
  endfacet
  facet normal -0.056070 -0.000000 -0.998427
    outer loop
      vertex 0.859977 1.020000 0.640000
      vertex 0.859977 -1.020000 0.640000
      vertex 0.844302 -1.020000 0.640880
    endloop
  endfacet
  facet normal 0.056070 -0.000000 0.998427
    outer loop
      vertex 0.844302 -1.020000 0.640880
      vertex 0.859977 1.020000 0.640000
      vertex 0.844302 1.020000 0.640880
    endloop
  endfacet
  facet normal -0.056070 0.000000 -0.998427
    outer loop
      vertex 0.844302 1.020000 0.640880
      vertex 0.859977 1.020000 0.640000
      vertex 0.844302 -1.020000 0.640880
    endloop
  endfacet
  facet normal -0.056070 0.000000 0.998427
    outer loop
      vertex 0.859977 -1.020000 0.640000
      vertex 0.875652 -1.020000 0.640880
      vertex 0.875652 1.020000 0.640880
    endloop
  endfacet
  facet normal 0.056070 -0.000000 -0.998427
    outer loop
      vertex 0.875652 1.020000 0.640880
      vertex 0.875652 -1.020000 0.640880
      vertex 0.859977 -1.020000 0.640000
    endloop
  endfacet
  facet normal -0.056070 0.000000 0.998427
    outer loop
      vertex 0.859977 -1.020000 0.640000
      vertex 0.875652 1.020000 0.640880
      vertex 0.859977 1.020000 0.640000
    endloop
  endfacet
  facet normal 0.056070 -0.000000 -0.998427
    outer loop
      vertex 0.859977 1.020000 0.640000
      vertex 0.875652 1.020000 0.640880
      vertex 0.859977 -1.020000 0.640000
    endloop
  endfacet
  facet normal -0.167506 0.000000 0.985871
    outer loop
      vertex 0.875652 -1.020000 0.640880
      vertex 0.891130 -1.020000 0.643510
      vertex 0.891130 1.020000 0.643510
    endloop
  endfacet
  facet normal 0.167506 -0.000000 -0.985871
    outer loop
      vertex 0.891130 1.020000 0.643510
      vertex 0.891130 -1.020000 0.643510
      vertex 0.875652 -1.020000 0.640880
    endloop
  endfacet
  facet normal -0.167506 0.000000 0.985871
    outer loop
      vertex 0.875652 -1.020000 0.640880
      vertex 0.891130 1.020000 0.643510
      vertex 0.875652 1.020000 0.640880
    endloop
  endfacet
  facet normal 0.167506 -0.000000 -0.985871
    outer loop
      vertex 0.875652 1.020000 0.640880
      vertex 0.891130 1.020000 0.643510
      vertex 0.875652 -1.020000 0.640880
    endloop
  endfacet
  facet normal -0.276836 0.000000 0.960917
    outer loop
      vertex 0.891130 -1.020000 0.643510
      vertex 0.906216 -1.020000 0.647856
      vertex 0.906216 1.020000 0.647856
    endloop
  endfacet
  facet normal 0.276836 -0.000000 -0.960917
    outer loop
      vertex 0.906216 1.020000 0.647856
      vertex 0.906216 -1.020000 0.647856
      vertex 0.891130 -1.020000 0.643510
    endloop
  endfacet
  facet normal -0.276836 0.000000 0.960917
    outer loop
      vertex 0.891130 -1.020000 0.643510
      vertex 0.906216 1.020000 0.647856
      vertex 0.891130 1.020000 0.643510
    endloop
  endfacet
  facet normal 0.276836 -0.000000 -0.960917
    outer loop
      vertex 0.891130 1.020000 0.643510
      vertex 0.906216 1.020000 0.647856
      vertex 0.891130 -1.020000 0.643510
    endloop
  endfacet
  facet normal -0.382683 0.000000 0.923880
    outer loop
      vertex 0.906216 -1.020000 0.647856
      vertex 0.920721 -1.020000 0.653864
      vertex 0.920721 1.020000 0.653864
    endloop
  endfacet
  facet normal 0.382683 -0.000000 -0.923880
    outer loop
      vertex 0.920721 1.020000 0.653864
      vertex 0.920721 -1.020000 0.653864
      vertex 0.906216 -1.020000 0.647856
    endloop
  endfacet
  facet normal -0.382683 0.000000 0.923880
    outer loop
      vertex 0.906216 -1.020000 0.647856
      vertex 0.920721 1.020000 0.653864
      vertex 0.906216 1.020000 0.647856
    endloop
  endfacet
  facet normal 0.382683 -0.000000 -0.923880
    outer loop
      vertex 0.906216 1.020000 0.647856
      vertex 0.920721 1.020000 0.653864
      vertex 0.906216 -1.020000 0.647856
    endloop
  endfacet
  facet normal -0.483719 0.000000 0.875223
    outer loop
      vertex 0.920721 -1.020000 0.653864
      vertex 0.934462 -1.020000 0.661459
      vertex 0.934462 1.020000 0.661459
    endloop
  endfacet
  facet normal 0.483719 -0.000000 -0.875223
    outer loop
      vertex 0.934462 1.020000 0.661459
      vertex 0.934462 -1.020000 0.661459
      vertex 0.920721 -1.020000 0.653864
    endloop
  endfacet
  facet normal -0.483719 0.000000 0.875223
    outer loop
      vertex 0.920721 -1.020000 0.653864
      vertex 0.934462 1.020000 0.661459
      vertex 0.920721 1.020000 0.653864
    endloop
  endfacet
  facet normal 0.483719 -0.000000 -0.875223
    outer loop
      vertex 0.920721 1.020000 0.653864
      vertex 0.934462 1.020000 0.661459
      vertex 0.920721 -1.020000 0.653864
    endloop
  endfacet
  facet normal -0.578671 0.000000 0.815561
    outer loop
      vertex 0.934462 -1.020000 0.661459
      vertex 0.936263 -1.020000 0.662737
      vertex 0.936263 1.020000 0.662737
    endloop
  endfacet
  facet normal 0.578671 -0.000000 -0.815561
    outer loop
      vertex 0.936263 1.020000 0.662737
      vertex 0.936263 -1.020000 0.662737
      vertex 0.934462 -1.020000 0.661459
    endloop
  endfacet
  facet normal -0.578671 0.000000 0.815561
    outer loop
      vertex 0.934462 -1.020000 0.661459
      vertex 0.936263 1.020000 0.662737
      vertex 0.934462 1.020000 0.661459
    endloop
  endfacet
  facet normal 0.578671 -0.000000 -0.815561
    outer loop
      vertex 0.934462 1.020000 0.661459
      vertex 0.936263 1.020000 0.662737
      vertex 0.934462 -1.020000 0.661459
    endloop
  endfacet
  facet normal 0.999618 0.000000 0.027638
    outer loop
      vertex 0.936263 -1.020000 0.662737
      vertex 0.951875 -1.020000 0.098079
      vertex 0.951875 1.020000 0.098079
    endloop
  endfacet
  facet normal -0.999618 -0.000000 -0.027638
    outer loop
      vertex 0.951875 1.020000 0.098079
      vertex 0.951875 -1.020000 0.098079
      vertex 0.936263 -1.020000 0.662737
    endloop
  endfacet
  facet normal 0.999618 -0.000000 0.027638
    outer loop
      vertex 0.936263 -1.020000 0.662737
      vertex 0.951875 1.020000 0.098079
      vertex 0.936263 1.020000 0.662737
    endloop
  endfacet
  facet normal -0.999618 0.000000 -0.027638
    outer loop
      vertex 0.936263 1.020000 0.662737
      vertex 0.951875 1.020000 0.098079
      vertex 0.936263 -1.020000 0.662737
    endloop
  endfacet
  facet normal 0.000000 0.000000 -1.000000
    outer loop
      vertex 0.951875 -1.020000 0.098079
      vertex 0.829977 -1.020000 0.098079
      vertex 0.829977 1.020000 0.098079
    endloop
  endfacet
  facet normal -0.000000 -0.000000 1.000000
    outer loop
      vertex 0.829977 1.020000 0.098079
      vertex 0.829977 -1.020000 0.098079
      vertex 0.951875 -1.020000 0.098079
    endloop
  endfacet
  facet normal 0.000000 0.000000 -1.000000
    outer loop
      vertex 0.951875 -1.020000 0.098079
      vertex 0.829977 1.020000 0.098079
      vertex 0.951875 1.020000 0.098079
    endloop
  endfacet
  facet normal -0.000000 -0.000000 1.000000
    outer loop
      vertex 0.951875 1.020000 0.098079
      vertex 0.829977 1.020000 0.098079
      vertex 0.951875 -1.020000 0.098079
    endloop
  endfacet
  facet normal -1.000000 0.000000 0.000000
    outer loop
      vertex 0.829977 -1.020000 0.098079
      vertex 0.829977 -1.020000 0.643314
      vertex 0.829977 1.020000 0.643314
    endloop
  endfacet
  facet normal 1.000000 -0.000000 -0.000000
    outer loop
      vertex 0.829977 1.020000 0.643314
      vertex 0.829977 -1.020000 0.643314
      vertex 0.829977 -1.020000 0.098079
    endloop
  endfacet
  facet normal -1.000000 0.000000 0.000000
    outer loop
      vertex 0.829977 -1.020000 0.098079
      vertex 0.829977 1.020000 0.643314
      vertex 0.829977 1.020000 0.098079
    endloop
  endfacet
  facet normal 1.000000 -0.000000 -0.000000
    outer loop
      vertex 0.829977 1.020000 0.098079
      vertex 0.829977 1.020000 0.643314
      vertex 0.829977 -1.020000 0.098079
    endloop
  endfacet
endsolid mesh
