solid door1_wall
  facet normal 0.000000 1.000000 0.000000
    outer loop
      vertex -0.350000 0.000000 2.670000
      vertex 0.300000 0.000000 -0.020000
      vertex -0.350000 0.000000 -0.670000
    endloop
  endfacet
  facet normal 0.000000 -1.000000 0.000000
    outer loop
      vertex -0.350000 2.000000 2.670000
      vertex -0.350000 2.000000 -0.670000
      vertex 0.300000 2.000000 -0.020000
    endloop
  endfacet
  facet normal 0.000000 1.000000 0.000000
    outer loop
      vertex -0.350000 0.000000 2.670000
      vertex 0.300000 0.000000 2.020000
      vertex 0.300000 0.000000 -0.020000
    endloop
  endfacet
  facet normal 0.000000 -1.000000 0.000000
    outer loop
      vertex -0.350000 2.000000 2.670000
      vertex 0.300000 2.000000 -0.020000
      vertex 0.300000 2.000000 2.020000
    endloop
  endfacet
  facet normal 0.000000 1.000000 0.000000
    outer loop
      vertex -0.350000 0.000000 2.670000
      vertex 1.260000 0.000000 2.020000
      vertex 0.300000 0.000000 2.020000
    endloop
  endfacet
  facet normal 0.000000 -1.000000 0.000000
    outer loop
      vertex -0.350000 2.000000 2.670000
      vertex 0.300000 2.000000 2.020000
      vertex 1.260000 2.000000 2.020000
    endloop
  endfacet
  facet normal -0.000000 1.000000 0.000000
    outer loop
      vertex -0.350000 0.000000 2.670000
      vertex 1.910000 0.000000 2.670000
      vertex 1.260000 0.000000 2.020000
    endloop
  endfacet
  facet normal 0.000000 -1.000000 0.000000
    outer loop
      vertex -0.350000 2.000000 2.670000
      vertex 1.260000 2.000000 2.020000
      vertex 1.910000 2.000000 2.670000
    endloop
  endfacet
  facet normal 0.000000 1.000000 0.000000
    outer loop
      vertex 1.910000 0.000000 2.670000
      vertex 1.260000 0.000000 1.510000
      vertex 1.260000 0.000000 2.020000
    endloop
  endfacet
  facet normal 0.000000 -1.000000 0.000000
    outer loop
      vertex 1.910000 2.000000 2.670000
      vertex 1.260000 2.000000 2.020000
      vertex 1.260000 2.000000 1.510000
    endloop
  endfacet
  facet normal 0.000000 1.000000 0.000000
    outer loop
      vertex 1.910000 0.000000 2.670000
      vertex 1.260000 0.000000 0.490000
      vertex 1.260000 0.000000 1.510000
    endloop
  endfacet
  facet normal 0.000000 -1.000000 0.000000
    outer loop
      vertex 1.910000 2.000000 2.670000
      vertex 1.260000 2.000000 1.510000
      vertex 1.260000 2.000000 0.490000
    endloop
  endfacet
  facet normal 0.000000 1.000000 0.000000
    outer loop
      vertex 1.910000 0.000000 2.670000
      vertex 1.910000 0.000000 -0.670000
      vertex 1.260000 0.000000 0.490000
    endloop
  endfacet
  facet normal 0.000000 -1.000000 -0.000000
    outer loop
      vertex 1.910000 2.000000 2.670000
      vertex 1.260000 2.000000 0.490000
      vertex 1.910000 2.000000 -0.670000
    endloop
  endfacet
  facet normal 0.000000 1.000000 0.000000
    outer loop
      vertex 1.910000 0.000000 -0.670000
      vertex 1.260000 0.000000 -0.020000
      vertex 1.260000 0.000000 0.490000
    endloop
  endfacet
  facet normal 0.000000 -1.000000 0.000000
    outer loop
      vertex 1.910000 2.000000 -0.670000
      vertex 1.260000 2.000000 0.490000
      vertex 1.260000 2.000000 -0.020000
    endloop
  endfacet
  facet normal 0.000000 1.000000 0.000000
    outer loop
      vertex 1.910000 0.000000 -0.670000
      vertex -0.350000 0.000000 -0.670000
      vertex 1.260000 0.000000 -0.020000
    endloop
  endfacet
  facet normal 0.000000 -1.000000 0.000000
    outer loop
      vertex 1.910000 2.000000 -0.670000
      vertex 1.260000 2.000000 -0.020000
      vertex -0.350000 2.000000 -0.670000
    endloop
  endfacet
  facet normal 0.000000 1.000000 0.000000
    outer loop
      vertex -0.350000 0.000000 -0.670000
      vertex 0.300000 0.000000 -0.020000
      vertex 1.260000 0.000000 -0.020000
    endloop
  endfacet
  facet normal 0.000000 -1.000000 0.000000
    outer loop
      vertex -0.350000 2.000000 -0.670000
      vertex 1.260000 2.000000 -0.020000
      vertex 0.300000 2.000000 -0.020000
    endloop
  endfacet
  facet normal 0.000000 1.000000 0.000000
    outer loop
      vertex 1.260000 0.000000 1.510000
      vertex 1.260000 0.000000 0.490000
      vertex 0.780000 0.000000 1.510000
    endloop
  endfacet
  facet normal -0.000000 -1.000000 -0.000000
    outer loop
      vertex 1.260000 2.000000 1.510000
      vertex 0.780000 2.000000 1.510000
      vertex 1.260000 2.000000 0.490000
    endloop
  endfacet
  facet normal 0.000000 1.000000 0.000000
    outer loop
      vertex 1.260000 0.000000 0.490000
      vertex 0.780000 0.000000 0.490000
      vertex 0.780000 0.000000 1.510000
    endloop
  endfacet
  facet normal 0.000000 -1.000000 0.000000
    outer loop
      vertex 1.260000 2.000000 0.490000
      vertex 0.780000 2.000000 1.510000
      vertex 0.780000 2.000000 0.490000
    endloop
  endfacet
  facet normal 0.000000 0.000000 1.000000
    outer loop
      vertex -0.350000 0.000000 2.670000
      vertex 1.910000 0.000000 2.670000
      vertex 1.910000 2.000000 2.670000
    endloop
  endfacet
  facet normal 0.000000 0.000000 1.000000
    outer loop
      vertex -0.350000 0.000000 2.670000
      vertex 1.910000 2.000000 2.670000
      vertex -0.350000 2.000000 2.670000
    endloop
  endfacet
  facet normal 1.000000 0.000000 0.000000
    outer loop
      vertex 1.910000 0.000000 2.670000
      vertex 1.910000 0.000000 -0.670000
      vertex 1.910000 2.000000 -0.670000
    endloop
  endfacet
  facet normal 1.000000 -0.000000 0.000000
    outer loop
      vertex 1.910000 0.000000 2.670000
      vertex 1.910000 2.000000 -0.670000
      vertex 1.910000 2.000000 2.670000
    endloop
  endfacet
  facet normal 0.000000 0.000000 -1.000000
    outer loop
      vertex 1.910000 0.000000 -0.670000
      vertex -0.350000 0.000000 -0.670000
      vertex -0.350000 2.000000 -0.670000
    endloop
  endfacet
  facet normal 0.000000 0.000000 -1.000000
    outer loop
      vertex 1.910000 0.000000 -0.670000
      vertex -0.350000 2.000000 -0.670000
      vertex 1.910000 2.000000 -0.670000
    endloop
  endfacet
  facet normal -1.000000 0.000000 0.000000
    outer loop
      vertex -0.350000 0.000000 -0.670000
      vertex -0.350000 0.000000 2.670000
      vertex -0.350000 2.000000 2.670000
    endloop
  endfacet
  facet normal -1.000000 0.000000 0.000000
    outer loop
      vertex -0.350000 0.000000 -0.670000
      vertex -0.350000 2.000000 2.670000
      vertex -0.350000 2.000000 -0.670000
    endloop
  endfacet
  facet normal 1.000000 0.000000 0.000000
    outer loop
      vertex 1.260000 0.000000 -0.020000
      vertex 1.260000 2.000000 0.490000
      vertex 1.260000 0.000000 0.490000
    endloop
  endfacet
  facet normal 1.000000 0.000000 0.000000
    outer loop
      vertex 1.260000 0.000000 -0.020000
      vertex 1.260000 2.000000 -0.020000
      vertex 1.260000 2.000000 0.490000
    endloop
  endfacet
  facet normal 0.000000 0.000000 1.000000
    outer loop
      vertex 1.260000 0.000000 0.490000
      vertex 0.780000 2.000000 0.490000
      vertex 0.780000 0.000000 0.490000
    endloop
  endfacet
  facet normal 0.000000 -0.000000 1.000000
    outer loop
      vertex 1.260000 0.000000 0.490000
      vertex 1.260000 2.000000 0.490000
      vertex 0.780000 2.000000 0.490000
    endloop
  endfacet
  facet normal 1.000000 0.000000 0.000000
    outer loop
      vertex 0.780000 0.000000 0.490000
      vertex 0.780000 2.000000 1.510000
      vertex 0.780000 0.000000 1.510000
    endloop
  endfacet
  facet normal 1.000000 0.000000 0.000000
    outer loop
      vertex 0.780000 0.000000 0.490000
      vertex 0.780000 2.000000 0.490000
      vertex 0.780000 2.000000 1.510000
    endloop
  endfacet
  facet normal 0.000000 0.000000 -1.000000
    outer loop
      vertex 0.780000 0.000000 1.510000
      vertex 1.260000 2.000000 1.510000
      vertex 1.260000 0.000000 1.510000
    endloop
  endfacet
  facet normal 0.000000 0.000000 -1.000000
    outer loop
      vertex 0.780000 0.000000 1.510000
      vertex 0.780000 2.000000 1.510000
      vertex 1.260000 2.000000 1.510000
    endloop
  endfacet
  facet normal 1.000000 0.000000 0.000000
    outer loop
      vertex 1.260000 0.000000 1.510000
      vertex 1.260000 2.000000 2.020000
      vertex 1.260000 0.000000 2.020000
    endloop
  endfacet
  facet normal 1.000000 0.000000 0.000000
    outer loop
      vertex 1.260000 0.000000 1.510000
      vertex 1.260000 2.000000 1.510000
      vertex 1.260000 2.000000 2.020000
    endloop
  endfacet
  facet normal 0.000000 0.000000 1.000000
    outer loop
      vertex 1.260000 0.000000 2.020000
      vertex 0.300000 2.000000 2.020000
      vertex 0.300000 0.000000 2.020000
    endloop
  endfacet
  facet normal 0.000000 -0.000000 1.000000
    outer loop
      vertex 1.260000 0.000000 2.020000
      vertex 1.260000 2.000000 2.020000
      vertex 0.300000 2.000000 2.020000
    endloop
  endfacet
  facet normal -1.000000 0.000000 0.000000
    outer loop
      vertex 0.300000 0.000000 2.020000
      vertex 0.300000 2.000000 -0.020000
      vertex 0.300000 0.000000 -0.020000
    endloop
  endfacet
  facet normal -1.000000 0.000000 0.000000
    outer loop
      vertex 0.300000 0.000000 2.020000
      vertex 0.300000 2.000000 2.020000
      vertex 0.300000 2.000000 -0.020000
    endloop
  endfacet
  facet normal 0.000000 0.000000 -1.000000
    outer loop
      vertex 0.300000 0.000000 -0.020000
      vertex 1.260000 2.000000 -0.020000
      vertex 1.260000 0.000000 -0.020000
    endloop
  endfacet
  facet normal 0.000000 0.000000 -1.000000
    outer loop
      vertex 0.300000 0.000000 -0.020000
      vertex 0.300000 2.000000 -0.020000
      vertex 1.260000 2.000000 -0.020000
    endloop
  endfacet
endsolid door1_wall
