solid mesh
  facet normal 0.000000 1.000000 0.000000
    outer loop
      vertex -0.972272 -1.020000 0.801162
      vertex -0.962936 -1.020000 0.797295
      vertex -0.999488 -1.020000 0.110010
    endloop
  endfacet
  facet normal -0.000000 -1.000000 -0.000000
    outer loop
      vertex -0.999488 -1.020000 0.110010
      vertex -0.962936 -1.020000 0.797295
      vertex -0.972272 -1.020000 0.801162
    endloop
  endfacet
  facet normal 0.000000 -1.000000 -0.000000
    outer loop
      vertex -0.972272 1.020000 0.801162
      vertex -0.999488 1.020000 0.110010
      vertex -0.962936 1.020000 0.797295
    endloop
  endfacet
  facet normal -0.000000 1.000000 0.000000
    outer loop
      vertex -0.962936 1.020000 0.797295
      vertex -0.999488 1.020000 0.110010
      vertex -0.972272 1.020000 0.801162
    endloop
  endfacet
  facet normal 0.000000 1.000000 0.000000
    outer loop
      vertex -0.890000 -1.020000 0.793568
      vertex -0.890000 -1.020000 0.110010
      vertex -0.891072 -1.020000 0.793259
    endloop
  endfacet
  facet normal -0.000000 -1.000000 -0.000000
    outer loop
      vertex -0.891072 -1.020000 0.793259
      vertex -0.890000 -1.020000 0.110010
      vertex -0.890000 -1.020000 0.793568
    endloop
  endfacet
  facet normal 0.000000 -1.000000 -0.000000
    outer loop
      vertex -0.890000 1.020000 0.793568
      vertex -0.891072 1.020000 0.793259
      vertex -0.890000 1.020000 0.110010
    endloop
  endfacet
  facet normal -0.000000 1.000000 0.000000
    outer loop
      vertex -0.890000 1.020000 0.110010
      vertex -0.891072 1.020000 0.793259
      vertex -0.890000 1.020000 0.793568
    endloop
  endfacet
  facet normal 0.000000 1.000000 0.000000
    outer loop
      vertex -0.890000 -1.020000 0.110010
      vertex -0.905445 -1.020000 0.790817
      vertex -0.891072 -1.020000 0.793259
    endloop
  endfacet
  facet normal -0.000000 -1.000000 -0.000000
    outer loop
      vertex -0.891072 -1.020000 0.793259
      vertex -0.905445 -1.020000 0.790817
      vertex -0.890000 -1.020000 0.110010
    endloop
  endfacet
  facet normal 0.000000 -1.000000 0.000000
    outer loop
      vertex -0.890000 1.020000 0.110010
      vertex -0.891072 1.020000 0.793259
      vertex -0.905445 1.020000 0.790817
    endloop
  endfacet
  facet normal -0.000000 1.000000 -0.000000
    outer loop
      vertex -0.905445 1.020000 0.790817
      vertex -0.891072 1.020000 0.793259
      vertex -0.890000 1.020000 0.110010
    endloop
  endfacet
  facet normal 0.000000 1.000000 0.000000
    outer loop
      vertex -0.890000 -1.020000 0.110010
      vertex -0.920000 -1.020000 0.790000
      vertex -0.905445 -1.020000 0.790817
    endloop
  endfacet
  facet normal -0.000000 -1.000000 -0.000000
    outer loop
      vertex -0.905445 -1.020000 0.790817
      vertex -0.920000 -1.020000 0.790000
      vertex -0.890000 -1.020000 0.110010
    endloop
  endfacet
  facet normal 0.000000 -1.000000 0.000000
    outer loop
      vertex -0.890000 1.020000 0.110010
      vertex -0.905445 1.020000 0.790817
      vertex -0.920000 1.020000 0.790000
    endloop
  endfacet
  facet normal -0.000000 1.000000 -0.000000
    outer loop
      vertex -0.920000 1.020000 0.790000
      vertex -0.905445 1.020000 0.790817
      vertex -0.890000 1.020000 0.110010
    endloop
  endfacet
  facet normal 0.000000 1.000000 0.000000
    outer loop
      vertex -0.890000 -1.020000 0.110010
      vertex -0.999488 -1.020000 0.110010
      vertex -0.920000 -1.020000 0.790000
    endloop
  endfacet
  facet normal -0.000000 -1.000000 -0.000000
    outer loop
      vertex -0.920000 -1.020000 0.790000
      vertex -0.999488 -1.020000 0.110010
      vertex -0.890000 -1.020000 0.110010
    endloop
  endfacet
  facet normal 0.000000 -1.000000 0.000000
    outer loop
      vertex -0.890000 1.020000 0.110010
      vertex -0.920000 1.020000 0.790000
      vertex -0.999488 1.020000 0.110010
    endloop
  endfacet
  facet normal -0.000000 1.000000 -0.000000
    outer loop
      vertex -0.999488 1.020000 0.110010
      vertex -0.920000 1.020000 0.790000
      vertex -0.890000 1.020000 0.110010
    endloop
  endfacet
  facet normal 0.000000 1.000000 0.000000
    outer loop
      vertex -0.999488 -1.020000 0.110010
      vertex -0.934555 -1.020000 0.790817
      vertex -0.920000 -1.020000 0.790000
    endloop
  endfacet
  facet normal -0.000000 -1.000000 -0.000000
    outer loop
      vertex -0.920000 -1.020000 0.790000
      vertex -0.934555 -1.020000 0.790817
      vertex -0.999488 -1.020000 0.110010
    endloop
  endfacet
  facet normal 0.000000 -1.000000 0.000000
    outer loop
      vertex -0.999488 1.020000 0.110010
      vertex -0.920000 1.020000 0.790000
      vertex -0.934555 1.020000 0.790817
    endloop
  endfacet
  facet normal -0.000000 1.000000 -0.000000
    outer loop
      vertex -0.934555 1.020000 0.790817
      vertex -0.920000 1.020000 0.790000
      vertex -0.999488 1.020000 0.110010
    endloop
  endfacet
  facet normal 0.000000 1.000000 0.000000
    outer loop
      vertex -0.999488 -1.020000 0.110010
      vertex -0.948928 -1.020000 0.793259
      vertex -0.934555 -1.020000 0.790817
    endloop
  endfacet
  facet normal -0.000000 -1.000000 -0.000000
    outer loop
      vertex -0.934555 -1.020000 0.790817
      vertex -0.948928 -1.020000 0.793259
      vertex -0.999488 -1.020000 0.110010
    endloop
  endfacet
  facet normal 0.000000 -1.000000 0.000000
    outer loop
      vertex -0.999488 1.020000 0.110010
      vertex -0.934555 1.020000 0.790817
      vertex -0.948928 1.020000 0.793259
    endloop
  endfacet
  facet normal -0.000000 1.000000 -0.000000
    outer loop
      vertex -0.948928 1.020000 0.793259
      vertex -0.934555 1.020000 0.790817
      vertex -0.999488 1.020000 0.110010
    endloop
  endfacet
  facet normal 0.000000 1.000000 0.000000
    outer loop
      vertex -0.999488 -1.020000 0.110010
      vertex -0.962936 -1.020000 0.797295
      vertex -0.948928 -1.020000 0.793259
    endloop
  endfacet
  facet normal -0.000000 -1.000000 -0.000000
    outer loop
      vertex -0.948928 -1.020000 0.793259
      vertex -0.962936 -1.020000 0.797295
      vertex -0.999488 -1.020000 0.110010
    endloop
  endfacet
  facet normal 0.000000 -1.000000 0.000000
    outer loop
      vertex -0.999488 1.020000 0.110010
      vertex -0.948928 1.020000 0.793259
      vertex -0.962936 1.020000 0.797295
    endloop
  endfacet
  facet normal -0.000000 1.000000 -0.000000
    outer loop
      vertex -0.962936 1.020000 0.797295
      vertex -0.948928 1.020000 0.793259
      vertex -0.999488 1.020000 0.110010
    endloop
  endfacet
  facet normal 0.382683 0.000000 0.923880
    outer loop
      vertex -0.972272 -1.020000 0.801162
      vertex -0.962936 -1.020000 0.797295
      vertex -0.962936 1.020000 0.797295
    endloop
  endfacet
  facet normal -0.382683 -0.000000 -0.923880
    outer loop
      vertex -0.962936 1.020000 0.797295
      vertex -0.962936 -1.020000 0.797295
      vertex -0.972272 -1.020000 0.801162
    endloop
  endfacet
  facet normal 0.382683 -0.000000 0.923880
    outer loop
      vertex -0.972272 -1.020000 0.801162
      vertex -0.962936 1.020000 0.797295
      vertex -0.972272 1.020000 0.801162
    endloop
  endfacet
  facet normal -0.382683 0.000000 -0.923880
    outer loop
      vertex -0.972272 1.020000 0.801162
      vertex -0.962936 1.020000 0.797295
      vertex -0.972272 -1.020000 0.801162
    endloop
  endfacet
  facet normal 0.276836 0.000000 0.960917
    outer loop
      vertex -0.962936 -1.020000 0.797295
      vertex -0.948928 -1.020000 0.793259
      vertex -0.948928 1.020000 0.793259
    endloop
  endfacet
  facet normal -0.276836 -0.000000 -0.960917
    outer loop
      vertex -0.948928 1.020000 0.793259
      vertex -0.948928 -1.020000 0.793259
      vertex -0.962936 -1.020000 0.797295
    endloop
  endfacet
  facet normal 0.276836 -0.000000 0.960917
    outer loop
      vertex -0.962936 -1.020000 0.797295
      vertex -0.948928 1.020000 0.793259
      vertex -0.962936 1.020000 0.797295
    endloop
  endfacet
  facet normal -0.276836 0.000000 -0.960917
    outer loop
      vertex -0.962936 1.020000 0.797295
      vertex -0.948928 1.020000 0.793259
      vertex -0.962936 -1.020000 0.797295
    endloop
  endfacet
  facet normal 0.167506 0.000000 0.985871
    outer loop
      vertex -0.948928 -1.020000 0.793259
      vertex -0.934555 -1.020000 0.790817
      vertex -0.934555 1.020000 0.790817
    endloop
  endfacet
  facet normal -0.167506 -0.000000 -0.985871
    outer loop
      vertex -0.934555 1.020000 0.790817
      vertex -0.934555 -1.020000 0.790817
      vertex -0.948928 -1.020000 0.793259
    endloop
  endfacet
  facet normal 0.167506 -0.000000 0.985871
    outer loop
      vertex -0.948928 -1.020000 0.793259
      vertex -0.934555 1.020000 0.790817
      vertex -0.948928 1.020000 0.793259
    endloop
  endfacet
  facet normal -0.167506 0.000000 -0.985871
    outer loop
      vertex -0.948928 1.020000 0.793259
      vertex -0.934555 1.020000 0.790817
      vertex -0.948928 -1.020000 0.793259
    endloop
  endfacet
  facet normal 0.056070 0.000000 0.998427
    outer loop
      vertex -0.934555 -1.020000 0.790817
      vertex -0.920000 -1.020000 0.790000
      vertex -0.920000 1.020000 0.790000
    endloop
  endfacet
  facet normal -0.056070 -0.000000 -0.998427
    outer loop
      vertex -0.920000 1.020000 0.790000
      vertex -0.920000 -1.020000 0.790000
      vertex -0.934555 -1.020000 0.790817
    endloop
  endfacet
  facet normal 0.056070 -0.000000 0.998427
    outer loop
      vertex -0.934555 -1.020000 0.790817
      vertex -0.920000 1.020000 0.790000
      vertex -0.934555 1.020000 0.790817
    endloop
  endfacet
  facet normal -0.056070 0.000000 -0.998427
    outer loop
      vertex -0.934555 1.020000 0.790817
      vertex -0.920000 1.020000 0.790000
      vertex -0.934555 -1.020000 0.790817
    endloop
  endfacet
  facet normal -0.056070 0.000000 0.998427
    outer loop
      vertex -0.920000 -1.020000 0.790000
      vertex -0.905445 -1.020000 0.790817
      vertex -0.905445 1.020000 0.790817
    endloop
  endfacet
  facet normal 0.056070 -0.000000 -0.998427
    outer loop
      vertex -0.905445 1.020000 0.790817
      vertex -0.905445 -1.020000 0.790817
      vertex -0.920000 -1.020000 0.790000
    endloop
  endfacet
  facet normal -0.056070 0.000000 0.998427
    outer loop
      vertex -0.920000 -1.020000 0.790000
      vertex -0.905445 1.020000 0.790817
      vertex -0.920000 1.020000 0.790000
    endloop
  endfacet
  facet normal 0.056070 -0.000000 -0.998427
    outer loop
      vertex -0.920000 1.020000 0.790000
      vertex -0.905445 1.020000 0.790817
      vertex -0.920000 -1.020000 0.790000
    endloop
  endfacet
  facet normal -0.167506 0.000000 0.985871
    outer loop
      vertex -0.905445 -1.020000 0.790817
      vertex -0.891072 -1.020000 0.793259
      vertex -0.891072 1.020000 0.793259
    endloop
  endfacet
  facet normal 0.167506 -0.000000 -0.985871
    outer loop
      vertex -0.891072 1.020000 0.793259
      vertex -0.891072 -1.020000 0.793259
      vertex -0.905445 -1.020000 0.790817
    endloop
  endfacet
  facet normal -0.167506 0.000000 0.985871
    outer loop
      vertex -0.905445 -1.020000 0.790817
      vertex -0.891072 1.020000 0.793259
      vertex -0.905445 1.020000 0.790817
    endloop
  endfacet
  facet normal 0.167506 -0.000000 -0.985871
    outer loop
      vertex -0.905445 1.020000 0.790817
      vertex -0.891072 1.020000 0.793259
      vertex -0.905445 -1.020000 0.790817
    endloop
  endfacet
  facet normal -0.276836 0.000000 0.960917
    outer loop
      vertex -0.891072 -1.020000 0.793259
      vertex -0.890000 -1.020000 0.793568
      vertex -0.890000 1.020000 0.793568
    endloop
  endfacet
  facet normal 0.276836 -0.000000 -0.960917
    outer loop
      vertex -0.890000 1.020000 0.793568
      vertex -0.890000 -1.020000 0.793568
      vertex -0.891072 -1.020000 0.793259
    endloop
  endfacet
  facet normal -0.276836 0.000000 0.960917
    outer loop
      vertex -0.891072 -1.020000 0.793259
      vertex -0.890000 1.020000 0.793568
      vertex -0.891072 1.020000 0.793259
    endloop
  endfacet
  facet normal 0.276836 -0.000000 -0.960917
    outer loop
      vertex -0.891072 1.020000 0.793259
      vertex -0.890000 1.020000 0.793568
      vertex -0.891072 -1.020000 0.793259
    endloop
  endfacet
  facet normal 1.000000 0.000000 0.000000
    outer loop
      vertex -0.890000 -1.020000 0.793568
      vertex -0.890000 -1.020000 0.110010
      vertex -0.890000 1.020000 0.110010
    endloop
  endfacet
  facet normal -1.000000 -0.000000 -0.000000
    outer loop
      vertex -0.890000 1.020000 0.110010
      vertex -0.890000 -1.020000 0.110010
      vertex -0.890000 -1.020000 0.793568
    endloop
  endfacet
  facet normal 1.000000 -0.000000 0.000000
    outer loop
      vertex -0.890000 -1.020000 0.793568
      vertex -0.890000 1.020000 0.110010
      vertex -0.890000 1.020000 0.793568
    endloop
  endfacet
  facet normal -1.000000 0.000000 -0.000000
    outer loop
      vertex -0.890000 1.020000 0.793568
      vertex -0.890000 1.020000 0.110010
      vertex -0.890000 -1.020000 0.793568
    endloop
  endfacet
  facet normal 0.000000 0.000000 -1.000000
    outer loop
      vertex -0.890000 -1.020000 0.110010
      vertex -0.999488 -1.020000 0.110010
      vertex -0.999488 1.020000 0.110010
    endloop
  endfacet
  facet normal -0.000000 -0.000000 1.000000
    outer loop
      vertex -0.999488 1.020000 0.110010
      vertex -0.999488 -1.020000 0.110010
      vertex -0.890000 -1.020000 0.110010
    endloop
  endfacet
  facet normal 0.000000 0.000000 -1.000000
    outer loop
      vertex -0.890000 -1.020000 0.110010
      vertex -0.999488 1.020000 0.110010
      vertex -0.890000 1.020000 0.110010
    endloop
  endfacet
  facet normal -0.000000 -0.000000 1.000000
    outer loop
      vertex -0.890000 1.020000 0.110010
      vertex -0.999488 1.020000 0.110010
      vertex -0.890000 -1.020000 0.110010
    endloop
  endfacet
  facet normal -0.999226 0.000000 0.039346
    outer loop
      vertex -0.999488 -1.020000 0.110010
      vertex -0.972272 -1.020000 0.801162
      vertex -0.972272 1.020000 0.801162
    endloop
  endfacet
  facet normal 0.999226 -0.000000 -0.039346
    outer loop
      vertex -0.972272 1.020000 0.801162
      vertex -0.972272 -1.020000 0.801162
      vertex -0.999488 -1.020000 0.110010
    endloop
  endfacet
  facet normal -0.999226 0.000000 0.039346
    outer loop
      vertex -0.999488 -1.020000 0.110010
      vertex -0.972272 1.020000 0.801162
      vertex -0.999488 1.020000 0.110010
    endloop
  endfacet
  facet normal 0.999226 -0.000000 -0.039346
    outer loop
      vertex -0.999488 1.020000 0.110010
      vertex -0.972272 1.020000 0.801162
      vertex -0.999488 -1.020000 0.110010
    endloop
  endfacet
endsolid mesh
