solid mesh
  facet normal 0.000000 1.000000 0.000000
    outer loop
      vertex 0.709961 -1.020000 0.398314
      vertex 0.724286 -1.020000 0.395880
      vertex 0.709961 -1.020000 0.048929
    endloop
  endfacet
  facet normal -0.000000 -1.000000 -0.000000
    outer loop
      vertex 0.709961 -1.020000 0.048929
      vertex 0.724286 -1.020000 0.395880
      vertex 0.709961 -1.020000 0.398314
    endloop
  endfacet
  facet normal 0.000000 -1.000000 0.000000
    outer loop
      vertex 0.709961 1.020000 0.398314
      vertex 0.709961 1.020000 0.048929
      vertex 0.724286 1.020000 0.395880
    endloop
  endfacet
  facet normal -0.000000 1.000000 -0.000000
    outer loop
      vertex 0.724286 1.020000 0.395880
      vertex 0.709961 1.020000 0.048929
      vertex 0.709961 1.020000 0.398314
    endloop
  endfacet
  facet normal 0.000000 1.000000 0.000000
    outer loop
      vertex 0.820384 -1.020000 0.420672
      vertex 0.833838 -1.020000 0.048929
      vertex 0.814445 -1.020000 0.416459
    endloop
  endfacet
  facet normal -0.000000 -1.000000 -0.000000
    outer loop
      vertex 0.814445 -1.020000 0.416459
      vertex 0.833838 -1.020000 0.048929
      vertex 0.820384 -1.020000 0.420672
    endloop
  endfacet
  facet normal 0.000000 -1.000000 -0.000000
    outer loop
      vertex 0.820384 1.020000 0.420672
      vertex 0.814445 1.020000 0.416459
      vertex 0.833838 1.020000 0.048929
    endloop
  endfacet
  facet normal -0.000000 1.000000 0.000000
    outer loop
      vertex 0.833838 1.020000 0.048929
      vertex 0.814445 1.020000 0.416459
      vertex 0.820384 1.020000 0.420672
    endloop
  endfacet
  facet normal 0.000000 1.000000 0.000000
    outer loop
      vertex 0.833838 -1.020000 0.048929
      vertex 0.800704 -1.020000 0.408864
      vertex 0.814445 -1.020000 0.416459
    endloop
  endfacet
  facet normal -0.000000 -1.000000 -0.000000
    outer loop
      vertex 0.814445 -1.020000 0.416459
      vertex 0.800704 -1.020000 0.408864
      vertex 0.833838 -1.020000 0.048929
    endloop
  endfacet
  facet normal 0.000000 -1.000000 0.000000
    outer loop
      vertex 0.833838 1.020000 0.048929
      vertex 0.814445 1.020000 0.416459
      vertex 0.800704 1.020000 0.408864
    endloop
  endfacet
  facet normal -0.000000 1.000000 -0.000000
    outer loop
      vertex 0.800704 1.020000 0.408864
      vertex 0.814445 1.020000 0.416459
      vertex 0.833838 1.020000 0.048929
    endloop
  endfacet
  facet normal 0.000000 1.000000 0.000000
    outer loop
      vertex 0.833838 -1.020000 0.048929
      vertex 0.786200 -1.020000 0.402856
      vertex 0.800704 -1.020000 0.408864
    endloop
  endfacet
  facet normal -0.000000 -1.000000 -0.000000
    outer loop
      vertex 0.800704 -1.020000 0.408864
      vertex 0.786200 -1.020000 0.402856
      vertex 0.833838 -1.020000 0.048929
    endloop
  endfacet
  facet normal 0.000000 -1.000000 0.000000
    outer loop
      vertex 0.833838 1.020000 0.048929
      vertex 0.800704 1.020000 0.408864
      vertex 0.786200 1.020000 0.402856
    endloop
  endfacet
  facet normal -0.000000 1.000000 -0.000000
    outer loop
      vertex 0.786200 1.020000 0.402856
      vertex 0.800704 1.020000 0.408864
      vertex 0.833838 1.020000 0.048929
    endloop
  endfacet
  facet normal 0.000000 1.000000 0.000000
    outer loop
      vertex 0.833838 -1.020000 0.048929
      vertex 0.771114 -1.020000 0.398510
      vertex 0.786200 -1.020000 0.402856
    endloop
  endfacet
  facet normal -0.000000 -1.000000 -0.000000
    outer loop
      vertex 0.786200 -1.020000 0.402856
      vertex 0.771114 -1.020000 0.398510
      vertex 0.833838 -1.020000 0.048929
    endloop
  endfacet
  facet normal 0.000000 -1.000000 0.000000
    outer loop
      vertex 0.833838 1.020000 0.048929
      vertex 0.786200 1.020000 0.402856
      vertex 0.771114 1.020000 0.398510
    endloop
  endfacet
  facet normal -0.000000 1.000000 -0.000000
    outer loop
      vertex 0.771114 1.020000 0.398510
      vertex 0.786200 1.020000 0.402856
      vertex 0.833838 1.020000 0.048929
    endloop
  endfacet
  facet normal 0.000000 1.000000 0.000000
    outer loop
      vertex 0.833838 -1.020000 0.048929
      vertex 0.755636 -1.020000 0.395880
      vertex 0.771114 -1.020000 0.398510
    endloop
  endfacet
  facet normal -0.000000 -1.000000 -0.000000
    outer loop
      vertex 0.771114 -1.020000 0.398510
      vertex 0.755636 -1.020000 0.395880
      vertex 0.833838 -1.020000 0.048929
    endloop
  endfacet
  facet normal 0.000000 -1.000000 0.000000
    outer loop
      vertex 0.833838 1.020000 0.048929
      vertex 0.771114 1.020000 0.398510
      vertex 0.755636 1.020000 0.395880
    endloop
  endfacet
  facet normal -0.000000 1.000000 -0.000000
    outer loop
      vertex 0.755636 1.020000 0.395880
      vertex 0.771114 1.020000 0.398510
      vertex 0.833838 1.020000 0.048929
    endloop
  endfacet
  facet normal 0.000000 1.000000 0.000000
    outer loop
      vertex 0.833838 -1.020000 0.048929
      vertex 0.709961 -1.020000 0.048929
      vertex 0.755636 -1.020000 0.395880
    endloop
  endfacet
  facet normal -0.000000 -1.000000 -0.000000
    outer loop
      vertex 0.755636 -1.020000 0.395880
      vertex 0.709961 -1.020000 0.048929
      vertex 0.833838 -1.020000 0.048929
    endloop
  endfacet
  facet normal 0.000000 -1.000000 0.000000
    outer loop
      vertex 0.833838 1.020000 0.048929
      vertex 0.755636 1.020000 0.395880
      vertex 0.709961 1.020000 0.048929
    endloop
  endfacet
  facet normal -0.000000 1.000000 -0.000000
    outer loop
      vertex 0.709961 1.020000 0.048929
      vertex 0.755636 1.020000 0.395880
      vertex 0.833838 1.020000 0.048929
    endloop
  endfacet
  facet normal 0.000000 1.000000 0.000000
    outer loop
      vertex 0.709961 -1.020000 0.048929
      vertex 0.739961 -1.020000 0.395000
      vertex 0.755636 -1.020000 0.395880
    endloop
  endfacet
  facet normal -0.000000 -1.000000 -0.000000
    outer loop
      vertex 0.755636 -1.020000 0.395880
      vertex 0.739961 -1.020000 0.395000
      vertex 0.709961 -1.020000 0.048929
    endloop
  endfacet
  facet normal 0.000000 -1.000000 0.000000
    outer loop
      vertex 0.709961 1.020000 0.048929
      vertex 0.755636 1.020000 0.395880
      vertex 0.739961 1.020000 0.395000
    endloop
  endfacet
  facet normal -0.000000 1.000000 -0.000000
    outer loop
      vertex 0.739961 1.020000 0.395000
      vertex 0.755636 1.020000 0.395880
      vertex 0.709961 1.020000 0.048929
    endloop
  endfacet
  facet normal 0.000000 1.000000 0.000000
    outer loop
      vertex 0.709961 -1.020000 0.048929
      vertex 0.724286 -1.020000 0.395880
      vertex 0.739961 -1.020000 0.395000
    endloop
  endfacet
  facet normal -0.000000 -1.000000 -0.000000
    outer loop
      vertex 0.739961 -1.020000 0.395000
      vertex 0.724286 -1.020000 0.395880
      vertex 0.709961 -1.020000 0.048929
    endloop
  endfacet
  facet normal 0.000000 -1.000000 0.000000
    outer loop
      vertex 0.709961 1.020000 0.048929
      vertex 0.739961 1.020000 0.395000
      vertex 0.724286 1.020000 0.395880
    endloop
  endfacet
  facet normal -0.000000 1.000000 -0.000000
    outer loop
      vertex 0.724286 1.020000 0.395880
      vertex 0.739961 1.020000 0.395000
      vertex 0.709961 1.020000 0.048929
    endloop
  endfacet
  facet normal 0.167506 0.000000 0.985871
    outer loop
      vertex 0.709961 -1.020000 0.398314
      vertex 0.724286 -1.020000 0.395880
      vertex 0.724286 1.020000 0.395880
    endloop
  endfacet
  facet normal -0.167506 -0.000000 -0.985871
    outer loop
      vertex 0.724286 1.020000 0.395880
      vertex 0.724286 -1.020000 0.395880
      vertex 0.709961 -1.020000 0.398314
    endloop
  endfacet
  facet normal 0.167506 -0.000000 0.985871
    outer loop
      vertex 0.709961 -1.020000 0.398314
      vertex 0.724286 1.020000 0.395880
      vertex 0.709961 1.020000 0.398314
    endloop
  endfacet
  facet normal -0.167506 0.000000 -0.985871
    outer loop
      vertex 0.709961 1.020000 0.398314
      vertex 0.724286 1.020000 0.395880
      vertex 0.709961 -1.020000 0.398314
    endloop
  endfacet
  facet normal 0.056070 0.000000 0.998427
    outer loop
      vertex 0.724286 -1.020000 0.395880
      vertex 0.739961 -1.020000 0.395000
      vertex 0.739961 1.020000 0.395000
    endloop
  endfacet
  facet normal -0.056070 -0.000000 -0.998427
    outer loop
      vertex 0.739961 1.020000 0.395000
      vertex 0.739961 -1.020000 0.395000
      vertex 0.724286 -1.020000 0.395880
    endloop
  endfacet
  facet normal 0.056070 -0.000000 0.998427
    outer loop
      vertex 0.724286 -1.020000 0.395880
      vertex 0.739961 1.020000 0.395000
      vertex 0.724286 1.020000 0.395880
    endloop
  endfacet
  facet normal -0.056070 0.000000 -0.998427
    outer loop
      vertex 0.724286 1.020000 0.395880
      vertex 0.739961 1.020000 0.395000
      vertex 0.724286 -1.020000 0.395880
    endloop
  endfacet
  facet normal -0.056070 0.000000 0.998427
    outer loop
      vertex 0.739961 -1.020000 0.395000
      vertex 0.755636 -1.020000 0.395880
      vertex 0.755636 1.020000 0.395880
    endloop
  endfacet
  facet normal 0.056070 -0.000000 -0.998427
    outer loop
      vertex 0.755636 1.020000 0.395880
      vertex 0.755636 -1.020000 0.395880
      vertex 0.739961 -1.020000 0.395000
    endloop
  endfacet
  facet normal -0.056070 0.000000 0.998427
    outer loop
      vertex 0.739961 -1.020000 0.395000
      vertex 0.755636 1.020000 0.395880
      vertex 0.739961 1.020000 0.395000
    endloop
  endfacet
  facet normal 0.056070 -0.000000 -0.998427
    outer loop
      vertex 0.739961 1.020000 0.395000
      vertex 0.755636 1.020000 0.395880
      vertex 0.739961 -1.020000 0.395000
    endloop
  endfacet
  facet normal -0.167506 0.000000 0.985871
    outer loop
      vertex 0.755636 -1.020000 0.395880
      vertex 0.771114 -1.020000 0.398510
      vertex 0.771114 1.020000 0.398510
    endloop
  endfacet
  facet normal 0.167506 -0.000000 -0.985871
    outer loop
      vertex 0.771114 1.020000 0.398510
      vertex 0.771114 -1.020000 0.398510
      vertex 0.755636 -1.020000 0.395880
    endloop
  endfacet
  facet normal -0.167506 0.000000 0.985871
    outer loop
      vertex 0.755636 -1.020000 0.395880
      vertex 0.771114 1.020000 0.398510
      vertex 0.755636 1.020000 0.395880
    endloop
  endfacet
  facet normal 0.167506 -0.000000 -0.985871
    outer loop
      vertex 0.755636 1.020000 0.395880
      vertex 0.771114 1.020000 0.398510
      vertex 0.755636 -1.020000 0.395880
    endloop
  endfacet
  facet normal -0.276836 0.000000 0.960917
    outer loop
      vertex 0.771114 -1.020000 0.398510
      vertex 0.786200 -1.020000 0.402856
      vertex 0.786200 1.020000 0.402856
    endloop
  endfacet
  facet normal 0.276836 -0.000000 -0.960917
    outer loop
      vertex 0.786200 1.020000 0.402856
      vertex 0.786200 -1.020000 0.402856
      vertex 0.771114 -1.020000 0.398510
    endloop
  endfacet
  facet normal -0.276836 0.000000 0.960917
    outer loop
      vertex 0.771114 -1.020000 0.398510
      vertex 0.786200 1.020000 0.402856
      vertex 0.771114 1.020000 0.398510
    endloop
  endfacet
  facet normal 0.276836 -0.000000 -0.960917
    outer loop
      vertex 0.771114 1.020000 0.398510
      vertex 0.786200 1.020000 0.402856
      vertex 0.771114 -1.020000 0.398510
    endloop
  endfacet
  facet normal -0.382683 0.000000 0.923880
    outer loop
      vertex 0.786200 -1.020000 0.402856
      vertex 0.800704 -1.020000 0.408864
      vertex 0.800704 1.020000 0.408864
    endloop
  endfacet
  facet normal 0.382683 -0.000000 -0.923880
    outer loop
      vertex 0.800704 1.020000 0.408864
      vertex 0.800704 -1.020000 0.408864
      vertex 0.786200 -1.020000 0.402856
    endloop
  endfacet
  facet normal -0.382683 0.000000 0.923880
    outer loop
      vertex 0.786200 -1.020000 0.402856
      vertex 0.800704 1.020000 0.408864
      vertex 0.786200 1.020000 0.402856
    endloop
  endfacet
  facet normal 0.382683 -0.000000 -0.923880
    outer loop
      vertex 0.786200 1.020000 0.402856
      vertex 0.800704 1.020000 0.408864
      vertex 0.786200 -1.020000 0.402856
    endloop
  endfacet
  facet normal -0.483719 0.000000 0.875223
    outer loop
      vertex 0.800704 -1.020000 0.408864
      vertex 0.814445 -1.020000 0.416459
      vertex 0.814445 1.020000 0.416459
    endloop
  endfacet
  facet normal 0.483719 -0.000000 -0.875223
    outer loop
      vertex 0.814445 1.020000 0.416459
      vertex 0.814445 -1.020000 0.416459
      vertex 0.800704 -1.020000 0.408864
    endloop
  endfacet
  facet normal -0.483719 0.000000 0.875223
    outer loop
      vertex 0.800704 -1.020000 0.408864
      vertex 0.814445 1.020000 0.416459
      vertex 0.800704 1.020000 0.408864
    endloop
  endfacet
  facet normal 0.483719 -0.000000 -0.875223
    outer loop
      vertex 0.800704 1.020000 0.408864
      vertex 0.814445 1.020000 0.416459
      vertex 0.800704 -1.020000 0.408864
    endloop
  endfacet
  facet normal -0.578671 0.000000 0.815561
    outer loop
      vertex 0.814445 -1.020000 0.416459
      vertex 0.820384 -1.020000 0.420672
      vertex 0.820384 1.020000 0.420672
    endloop
  endfacet
  facet normal 0.578671 -0.000000 -0.815561
    outer loop
      vertex 0.820384 1.020000 0.420672
      vertex 0.820384 -1.020000 0.420672
      vertex 0.814445 -1.020000 0.416459
    endloop
  endfacet
  facet normal -0.578671 0.000000 0.815561
    outer loop
      vertex 0.814445 -1.020000 0.416459
      vertex 0.820384 1.020000 0.420672
      vertex 0.814445 1.020000 0.416459
    endloop
  endfacet
  facet normal 0.578671 -0.000000 -0.815561
    outer loop
      vertex 0.814445 1.020000 0.416459
      vertex 0.820384 1.020000 0.420672
      vertex 0.814445 -1.020000 0.416459
    endloop
  endfacet
  facet normal 0.999346 0.000000 0.036169
    outer loop
      vertex 0.820384 -1.020000 0.420672
      vertex 0.833838 -1.020000 0.048929
      vertex 0.833838 1.020000 0.048929
    endloop
  endfacet
  facet normal -0.999346 -0.000000 -0.036169
    outer loop
      vertex 0.833838 1.020000 0.048929
      vertex 0.833838 -1.020000 0.048929
      vertex 0.820384 -1.020000 0.420672
    endloop
  endfacet
  facet normal 0.999346 -0.000000 0.036169
    outer loop
      vertex 0.820384 -1.020000 0.420672
      vertex 0.833838 1.020000 0.048929
      vertex 0.820384 1.020000 0.420672
    endloop
  endfacet
  facet normal -0.999346 0.000000 -0.036169
    outer loop
      vertex 0.820384 1.020000 0.420672
      vertex 0.833838 1.020000 0.048929
      vertex 0.820384 -1.020000 0.420672
    endloop
  endfacet
  facet normal 0.000000 0.000000 -1.000000
    outer loop
      vertex 0.833838 -1.020000 0.048929
      vertex 0.709961 -1.020000 0.048929
      vertex 0.709961 1.020000 0.048929
    endloop
  endfacet
  facet normal -0.000000 -0.000000 1.000000
    outer loop
      vertex 0.709961 1.020000 0.048929
      vertex 0.709961 -1.020000 0.048929
      vertex 0.833838 -1.020000 0.048929
    endloop
  endfacet
  facet normal 0.000000 0.000000 -1.000000
    outer loop
      vertex 0.833838 -1.020000 0.048929
      vertex 0.709961 1.020000 0.048929
      vertex 0.833838 1.020000 0.048929
    endloop
  endfacet
  facet normal -0.000000 -0.000000 1.000000
    outer loop
      vertex 0.833838 1.020000 0.048929
      vertex 0.709961 1.020000 0.048929
      vertex 0.833838 -1.020000 0.048929
    endloop
  endfacet
  facet normal -1.000000 0.000000 0.000000
    outer loop
      vertex 0.709961 -1.020000 0.048929
      vertex 0.709961 -1.020000 0.398314
      vertex 0.709961 1.020000 0.398314
    endloop
  endfacet
  facet normal 1.000000 -0.000000 -0.000000
    outer loop
      vertex 0.709961 1.020000 0.398314
      vertex 0.709961 -1.020000 0.398314
      vertex 0.709961 -1.020000 0.048929
    endloop
  endfacet
  facet normal -1.000000 0.000000 0.000000
    outer loop
      vertex 0.709961 -1.020000 0.048929
      vertex 0.709961 1.020000 0.398314
      vertex 0.709961 1.020000 0.048929
    endloop
  endfacet
  facet normal 1.000000 -0.000000 -0.000000
    outer loop
      vertex 0.709961 1.020000 0.048929
      vertex 0.709961 1.020000 0.398314
      vertex 0.709961 -1.020000 0.048929
    endloop
  endfacet
endsolid mesh
