solid mesh
  facet normal 0.000000 1.000000 0.000000
    outer loop
      vertex 0.090000 -1.020000 1.516869
      vertex 0.121221 -1.020000 1.460902
      vertex 0.090000 -1.020000 1.447000
    endloop
  endfacet
  facet normal -0.000000 -1.000000 -0.000000
    outer loop
      vertex 0.090000 -1.020000 1.447000
      vertex 0.121221 -1.020000 1.460902
      vertex 0.090000 -1.020000 1.516869
    endloop
  endfacet
  facet normal 0.000000 -1.000000 0.000000
    outer loop
      vertex 0.090000 1.020000 1.516869
      vertex 0.090000 1.020000 1.447000
      vertex 0.121221 1.020000 1.460902
    endloop
  endfacet
  facet normal -0.000000 1.000000 -0.000000
    outer loop
      vertex 0.121221 1.020000 1.460902
      vertex 0.090000 1.020000 1.447000
      vertex 0.090000 1.020000 1.516869
    endloop
  endfacet
  facet normal 0.000000 1.000000 0.000000
    outer loop
      vertex 0.090000 -1.020000 1.516869
      vertex 0.134601 -1.020000 1.469101
      vertex 0.121221 -1.020000 1.460902
    endloop
  endfacet
  facet normal -0.000000 -1.000000 -0.000000
    outer loop
      vertex 0.121221 -1.020000 1.460902
      vertex 0.134601 -1.020000 1.469101
      vertex 0.090000 -1.020000 1.516869
    endloop
  endfacet
  facet normal 0.000000 -1.000000 0.000000
    outer loop
      vertex 0.090000 1.020000 1.516869
      vertex 0.121221 1.020000 1.460902
      vertex 0.134601 1.020000 1.469101
    endloop
  endfacet
  facet normal -0.000000 1.000000 -0.000000
    outer loop
      vertex 0.134601 1.020000 1.469101
      vertex 0.121221 1.020000 1.460902
      vertex 0.090000 1.020000 1.516869
    endloop
  endfacet
  facet normal 0.000000 1.000000 0.000000
    outer loop
      vertex 0.090000 -1.020000 1.516869
      vertex 0.149098 -1.020000 1.475106
      vertex 0.134601 -1.020000 1.469101
    endloop
  endfacet
  facet normal -0.000000 -1.000000 -0.000000
    outer loop
      vertex 0.134601 -1.020000 1.469101
      vertex 0.149098 -1.020000 1.475106
      vertex 0.090000 -1.020000 1.516869
    endloop
  endfacet
  facet normal 0.000000 -1.000000 0.000000
    outer loop
      vertex 0.090000 1.020000 1.516869
      vertex 0.134601 1.020000 1.469101
      vertex 0.149098 1.020000 1.475106
    endloop
  endfacet
  facet normal -0.000000 1.000000 -0.000000
    outer loop
      vertex 0.149098 1.020000 1.475106
      vertex 0.134601 1.020000 1.469101
      vertex 0.090000 1.020000 1.516869
    endloop
  endfacet
  facet normal 0.000000 1.000000 0.000000
    outer loop
      vertex 0.090000 -1.020000 1.516869
      vertex 0.164357 -1.020000 1.478769
      vertex 0.149098 -1.020000 1.475106
    endloop
  endfacet
  facet normal -0.000000 -1.000000 -0.000000
    outer loop
      vertex 0.149098 -1.020000 1.475106
      vertex 0.164357 -1.020000 1.478769
      vertex 0.090000 -1.020000 1.516869
    endloop
  endfacet
  facet normal 0.000000 -1.000000 0.000000
    outer loop
      vertex 0.090000 1.020000 1.516869
      vertex 0.149098 1.020000 1.475106
      vertex 0.164357 1.020000 1.478769
    endloop
  endfacet
  facet normal -0.000000 1.000000 -0.000000
    outer loop
      vertex 0.164357 1.020000 1.478769
      vertex 0.149098 1.020000 1.475106
      vertex 0.090000 1.020000 1.516869
    endloop
  endfacet
  facet normal 0.000000 1.000000 0.000000
    outer loop
      vertex 0.090000 -1.020000 1.516869
      vertex 0.180000 -1.020000 1.480000
      vertex 0.164357 -1.020000 1.478769
    endloop
  endfacet
  facet normal -0.000000 -1.000000 -0.000000
    outer loop
      vertex 0.164357 -1.020000 1.478769
      vertex 0.180000 -1.020000 1.480000
      vertex 0.090000 -1.020000 1.516869
    endloop
  endfacet
  facet normal 0.000000 -1.000000 0.000000
    outer loop
      vertex 0.090000 1.020000 1.516869
      vertex 0.164357 1.020000 1.478769
      vertex 0.180000 1.020000 1.480000
    endloop
  endfacet
  facet normal -0.000000 1.000000 -0.000000
    outer loop
      vertex 0.180000 1.020000 1.480000
      vertex 0.164357 1.020000 1.478769
      vertex 0.090000 1.020000 1.516869
    endloop
  endfacet
  facet normal 0.000000 1.000000 0.000000
    outer loop
      vertex 0.090000 -1.020000 1.516869
      vertex 0.195643 -1.020000 1.478769
      vertex 0.180000 -1.020000 1.480000
    endloop
  endfacet
  facet normal -0.000000 -1.000000 -0.000000
    outer loop
      vertex 0.180000 -1.020000 1.480000
      vertex 0.195643 -1.020000 1.478769
      vertex 0.090000 -1.020000 1.516869
    endloop
  endfacet
  facet normal 0.000000 -1.000000 0.000000
    outer loop
      vertex 0.090000 1.020000 1.516869
      vertex 0.180000 1.020000 1.480000
      vertex 0.195643 1.020000 1.478769
    endloop
  endfacet
  facet normal -0.000000 1.000000 -0.000000
    outer loop
      vertex 0.195643 1.020000 1.478769
      vertex 0.180000 1.020000 1.480000
      vertex 0.090000 1.020000 1.516869
    endloop
  endfacet
  facet normal 0.000000 1.000000 0.000000
    outer loop
      vertex 0.090000 -1.020000 1.516869
      vertex 0.210902 -1.020000 1.475106
      vertex 0.195643 -1.020000 1.478769
    endloop
  endfacet
  facet normal -0.000000 -1.000000 -0.000000
    outer loop
      vertex 0.195643 -1.020000 1.478769
      vertex 0.210902 -1.020000 1.475106
      vertex 0.090000 -1.020000 1.516869
    endloop
  endfacet
  facet normal 0.000000 -1.000000 0.000000
    outer loop
      vertex 0.090000 1.020000 1.516869
      vertex 0.195643 1.020000 1.478769
      vertex 0.210902 1.020000 1.475106
    endloop
  endfacet
  facet normal -0.000000 1.000000 -0.000000
    outer loop
      vertex 0.210902 1.020000 1.475106
      vertex 0.195643 1.020000 1.478769
      vertex 0.090000 1.020000 1.516869
    endloop
  endfacet
  facet normal 0.000000 1.000000 0.000000
    outer loop
      vertex 0.090000 -1.020000 1.516869
      vertex 0.780000 -1.020000 1.384176
      vertex 0.210902 -1.020000 1.475106
    endloop
  endfacet
  facet normal -0.000000 -1.000000 -0.000000
    outer loop
      vertex 0.210902 -1.020000 1.475106
      vertex 0.780000 -1.020000 1.384176
      vertex 0.090000 -1.020000 1.516869
    endloop
  endfacet
  facet normal 0.000000 -1.000000 0.000000
    outer loop
      vertex 0.090000 1.020000 1.516869
      vertex 0.210902 1.020000 1.475106
      vertex 0.780000 1.020000 1.384176
    endloop
  endfacet
  facet normal -0.000000 1.000000 -0.000000
    outer loop
      vertex 0.780000 1.020000 1.384176
      vertex 0.210902 1.020000 1.475106
      vertex 0.090000 1.020000 1.516869
    endloop
  endfacet
  facet normal 0.000000 1.000000 0.000000
    outer loop
      vertex 0.780000 -1.020000 1.384176
      vertex 0.225399 -1.020000 1.469101
      vertex 0.210902 -1.020000 1.475106
    endloop
  endfacet
  facet normal -0.000000 -1.000000 -0.000000
    outer loop
      vertex 0.210902 -1.020000 1.475106
      vertex 0.225399 -1.020000 1.469101
      vertex 0.780000 -1.020000 1.384176
    endloop
  endfacet
  facet normal 0.000000 -1.000000 0.000000
    outer loop
      vertex 0.780000 1.020000 1.384176
      vertex 0.210902 1.020000 1.475106
      vertex 0.225399 1.020000 1.469101
    endloop
  endfacet
  facet normal -0.000000 1.000000 -0.000000
    outer loop
      vertex 0.225399 1.020000 1.469101
      vertex 0.210902 1.020000 1.475106
      vertex 0.780000 1.020000 1.384176
    endloop
  endfacet
  facet normal 0.000000 1.000000 0.000000
    outer loop
      vertex 0.780000 -1.020000 1.384176
      vertex 0.238779 -1.020000 1.460902
      vertex 0.225399 -1.020000 1.469101
    endloop
  endfacet
  facet normal -0.000000 -1.000000 -0.000000
    outer loop
      vertex 0.225399 -1.020000 1.469101
      vertex 0.238779 -1.020000 1.460902
      vertex 0.780000 -1.020000 1.384176
    endloop
  endfacet
  facet normal 0.000000 -1.000000 0.000000
    outer loop
      vertex 0.780000 1.020000 1.384176
      vertex 0.225399 1.020000 1.469101
      vertex 0.238779 1.020000 1.460902
    endloop
  endfacet
  facet normal -0.000000 1.000000 -0.000000
    outer loop
      vertex 0.238779 1.020000 1.460902
      vertex 0.225399 1.020000 1.469101
      vertex 0.780000 1.020000 1.384176
    endloop
  endfacet
  facet normal 0.000000 1.000000 0.000000
    outer loop
      vertex 0.780000 -1.020000 1.384176
      vertex 0.250711 -1.020000 1.450711
      vertex 0.238779 -1.020000 1.460902
    endloop
  endfacet
  facet normal -0.000000 -1.000000 -0.000000
    outer loop
      vertex 0.238779 -1.020000 1.460902
      vertex 0.250711 -1.020000 1.450711
      vertex 0.780000 -1.020000 1.384176
    endloop
  endfacet
  facet normal 0.000000 -1.000000 0.000000
    outer loop
      vertex 0.780000 1.020000 1.384176
      vertex 0.238779 1.020000 1.460902
      vertex 0.250711 1.020000 1.450711
    endloop
  endfacet
  facet normal -0.000000 1.000000 -0.000000
    outer loop
      vertex 0.250711 1.020000 1.450711
      vertex 0.238779 1.020000 1.460902
      vertex 0.780000 1.020000 1.384176
    endloop
  endfacet
  facet normal 0.000000 1.000000 0.000000
    outer loop
      vertex 0.780000 -1.020000 1.384176
      vertex 0.260902 -1.020000 1.438779
      vertex 0.250711 -1.020000 1.450711
    endloop
  endfacet
  facet normal -0.000000 -1.000000 -0.000000
    outer loop
      vertex 0.250711 -1.020000 1.450711
      vertex 0.260902 -1.020000 1.438779
      vertex 0.780000 -1.020000 1.384176
    endloop
  endfacet
  facet normal 0.000000 -1.000000 0.000000
    outer loop
      vertex 0.780000 1.020000 1.384176
      vertex 0.250711 1.020000 1.450711
      vertex 0.260902 1.020000 1.438779
    endloop
  endfacet
  facet normal -0.000000 1.000000 -0.000000
    outer loop
      vertex 0.260902 1.020000 1.438779
      vertex 0.250711 1.020000 1.450711
      vertex 0.780000 1.020000 1.384176
    endloop
  endfacet
  facet normal 0.000000 1.000000 0.000000
    outer loop
      vertex 0.780000 -1.020000 1.384176
      vertex 0.269101 -1.020000 1.425399
      vertex 0.260902 -1.020000 1.438779
    endloop
  endfacet
  facet normal -0.000000 -1.000000 -0.000000
    outer loop
      vertex 0.260902 -1.020000 1.438779
      vertex 0.269101 -1.020000 1.425399
      vertex 0.780000 -1.020000 1.384176
    endloop
  endfacet
  facet normal 0.000000 -1.000000 0.000000
    outer loop
      vertex 0.780000 1.020000 1.384176
      vertex 0.260902 1.020000 1.438779
      vertex 0.269101 1.020000 1.425399
    endloop
  endfacet
  facet normal -0.000000 1.000000 -0.000000
    outer loop
      vertex 0.269101 1.020000 1.425399
      vertex 0.260902 1.020000 1.438779
      vertex 0.780000 1.020000 1.384176
    endloop
  endfacet
  facet normal 0.000000 1.000000 0.000000
    outer loop
      vertex 0.780000 -1.020000 1.384176
      vertex 0.275106 -1.020000 1.410902
      vertex 0.269101 -1.020000 1.425399
    endloop
  endfacet
  facet normal -0.000000 -1.000000 -0.000000
    outer loop
      vertex 0.269101 -1.020000 1.425399
      vertex 0.275106 -1.020000 1.410902
      vertex 0.780000 -1.020000 1.384176
    endloop
  endfacet
  facet normal 0.000000 -1.000000 0.000000
    outer loop
      vertex 0.780000 1.020000 1.384176
      vertex 0.269101 1.020000 1.425399
      vertex 0.275106 1.020000 1.410902
    endloop
  endfacet
  facet normal -0.000000 1.000000 -0.000000
    outer loop
      vertex 0.275106 1.020000 1.410902
      vertex 0.269101 1.020000 1.425399
      vertex 0.780000 1.020000 1.384176
    endloop
  endfacet
  facet normal 0.000000 1.000000 0.000000
    outer loop
      vertex 0.780000 -1.020000 1.384176
      vertex 0.278769 -1.020000 1.395643
      vertex 0.275106 -1.020000 1.410902
    endloop
  endfacet
  facet normal -0.000000 -1.000000 -0.000000
    outer loop
      vertex 0.275106 -1.020000 1.410902
      vertex 0.278769 -1.020000 1.395643
      vertex 0.780000 -1.020000 1.384176
    endloop
  endfacet
  facet normal 0.000000 -1.000000 0.000000
    outer loop
      vertex 0.780000 1.020000 1.384176
      vertex 0.275106 1.020000 1.410902
      vertex 0.278769 1.020000 1.395643
    endloop
  endfacet
  facet normal -0.000000 1.000000 -0.000000
    outer loop
      vertex 0.278769 1.020000 1.395643
      vertex 0.275106 1.020000 1.410902
      vertex 0.780000 1.020000 1.384176
    endloop
  endfacet
  facet normal 0.000000 1.000000 0.000000
    outer loop
      vertex 0.780000 -1.020000 1.384176
      vertex 0.280000 -1.020000 1.380000
      vertex 0.278769 -1.020000 1.395643
    endloop
  endfacet
  facet normal -0.000000 -1.000000 -0.000000
    outer loop
      vertex 0.278769 -1.020000 1.395643
      vertex 0.280000 -1.020000 1.380000
      vertex 0.780000 -1.020000 1.384176
    endloop
  endfacet
  facet normal -0.000000 -1.000000 0.000000
    outer loop
      vertex 0.780000 1.020000 1.384176
      vertex 0.278769 1.020000 1.395643
      vertex 0.280000 1.020000 1.380000
    endloop
  endfacet
  facet normal 0.000000 1.000000 -0.000000
    outer loop
      vertex 0.280000 1.020000 1.380000
      vertex 0.278769 1.020000 1.395643
      vertex 0.780000 1.020000 1.384176
    endloop
  endfacet
  facet normal 0.000000 1.000000 0.000000
    outer loop
      vertex 0.780000 -1.020000 1.384176
      vertex 0.278769 -1.020000 1.364357
      vertex 0.280000 -1.020000 1.380000
    endloop
  endfacet
  facet normal -0.000000 -1.000000 -0.000000
    outer loop
      vertex 0.280000 -1.020000 1.380000
      vertex 0.278769 -1.020000 1.364357
      vertex 0.780000 -1.020000 1.384176
    endloop
  endfacet
  facet normal 0.000000 -1.000000 0.000000
    outer loop
      vertex 0.780000 1.020000 1.384176
      vertex 0.280000 1.020000 1.380000
      vertex 0.278769 1.020000 1.364357
    endloop
  endfacet
  facet normal -0.000000 1.000000 -0.000000
    outer loop
      vertex 0.278769 1.020000 1.364357
      vertex 0.280000 1.020000 1.380000
      vertex 0.780000 1.020000 1.384176
    endloop
  endfacet
  facet normal 0.000000 1.000000 0.000000
    outer loop
      vertex 0.780000 -1.020000 1.384176
      vertex 0.275106 -1.020000 1.349098
      vertex 0.278769 -1.020000 1.364357
    endloop
  endfacet
  facet normal -0.000000 -1.000000 -0.000000
    outer loop
      vertex 0.278769 -1.020000 1.364357
      vertex 0.275106 -1.020000 1.349098
      vertex 0.780000 -1.020000 1.384176
    endloop
  endfacet
  facet normal 0.000000 -1.000000 0.000000
    outer loop
      vertex 0.780000 1.020000 1.384176
      vertex 0.278769 1.020000 1.364357
      vertex 0.275106 1.020000 1.349098
    endloop
  endfacet
  facet normal -0.000000 1.000000 -0.000000
    outer loop
      vertex 0.275106 1.020000 1.349098
      vertex 0.278769 1.020000 1.364357
      vertex 0.780000 1.020000 1.384176
    endloop
  endfacet
  facet normal 0.000000 1.000000 0.000000
    outer loop
      vertex 0.780000 -1.020000 1.384176
      vertex 0.480000 -1.020000 1.020000
      vertex 0.275106 -1.020000 1.349098
    endloop
  endfacet
  facet normal -0.000000 -1.000000 -0.000000
    outer loop
      vertex 0.275106 -1.020000 1.349098
      vertex 0.480000 -1.020000 1.020000
      vertex 0.780000 -1.020000 1.384176
    endloop
  endfacet
  facet normal 0.000000 -1.000000 0.000000
    outer loop
      vertex 0.780000 1.020000 1.384176
      vertex 0.275106 1.020000 1.349098
      vertex 0.480000 1.020000 1.020000
    endloop
  endfacet
  facet normal -0.000000 1.000000 -0.000000
    outer loop
      vertex 0.480000 1.020000 1.020000
      vertex 0.275106 1.020000 1.349098
      vertex 0.780000 1.020000 1.384176
    endloop
  endfacet
  facet normal 0.000000 1.000000 0.000000
    outer loop
      vertex 0.780000 -1.020000 1.384176
      vertex 0.780000 -1.020000 0.970000
      vertex 0.480000 -1.020000 1.020000
    endloop
  endfacet
  facet normal -0.000000 -1.000000 -0.000000
    outer loop
      vertex 0.480000 -1.020000 1.020000
      vertex 0.780000 -1.020000 0.970000
      vertex 0.780000 -1.020000 1.384176
    endloop
  endfacet
  facet normal 0.000000 -1.000000 -0.000000
    outer loop
      vertex 0.780000 1.020000 1.384176
      vertex 0.480000 1.020000 1.020000
      vertex 0.780000 1.020000 0.970000
    endloop
  endfacet
  facet normal -0.000000 1.000000 0.000000
    outer loop
      vertex 0.780000 1.020000 0.970000
      vertex 0.480000 1.020000 1.020000
      vertex 0.780000 1.020000 1.384176
    endloop
  endfacet
  facet normal 0.000000 1.000000 0.000000
    outer loop
      vertex 0.780000 -1.020000 0.970000
      vertex 0.480000 -1.020000 0.970000
      vertex 0.480000 -1.020000 1.020000
    endloop
  endfacet
  facet normal -0.000000 -1.000000 -0.000000
    outer loop
      vertex 0.480000 -1.020000 1.020000
      vertex 0.480000 -1.020000 0.970000
      vertex 0.780000 -1.020000 0.970000
    endloop
  endfacet
  facet normal 0.000000 -1.000000 0.000000
    outer loop
      vertex 0.780000 1.020000 0.970000
      vertex 0.480000 1.020000 1.020000
      vertex 0.480000 1.020000 0.970000
    endloop
  endfacet
  facet normal -0.000000 1.000000 -0.000000
    outer loop
      vertex 0.480000 1.020000 0.970000
      vertex 0.480000 1.020000 1.020000
      vertex 0.780000 1.020000 0.970000
    endloop
  endfacet
  facet normal 0.000000 1.000000 -0.000000
    outer loop
      vertex 0.480000 -1.020000 0.970000
      vertex 0.090000 -1.020000 1.080000
      vertex 0.480000 -1.020000 1.020000
    endloop
  endfacet
  facet normal -0.000000 -1.000000 0.000000
    outer loop
      vertex 0.480000 -1.020000 1.020000
      vertex 0.090000 -1.020000 1.080000
      vertex 0.480000 -1.020000 0.970000
    endloop
  endfacet
  facet normal 0.000000 -1.000000 0.000000
    outer loop
      vertex 0.480000 1.020000 0.970000
      vertex 0.480000 1.020000 1.020000
      vertex 0.090000 1.020000 1.080000
    endloop
  endfacet
  facet normal -0.000000 1.000000 -0.000000
    outer loop
      vertex 0.090000 1.020000 1.080000
      vertex 0.480000 1.020000 1.020000
      vertex 0.480000 1.020000 0.970000
    endloop
  endfacet
  facet normal 0.000000 1.000000 0.000000
    outer loop
      vertex 0.480000 -1.020000 0.970000
      vertex 0.050000 -1.020000 1.020000
      vertex 0.090000 -1.020000 1.080000
    endloop
  endfacet
  facet normal -0.000000 -1.000000 -0.000000
    outer loop
      vertex 0.090000 -1.020000 1.080000
      vertex 0.050000 -1.020000 1.020000
      vertex 0.480000 -1.020000 0.970000
    endloop
  endfacet
  facet normal 0.000000 -1.000000 0.000000
    outer loop
      vertex 0.480000 1.020000 0.970000
      vertex 0.090000 1.020000 1.080000
      vertex 0.050000 1.020000 1.020000
    endloop
  endfacet
  facet normal -0.000000 1.000000 -0.000000
    outer loop
      vertex 0.050000 1.020000 1.020000
      vertex 0.090000 1.020000 1.080000
      vertex 0.480000 1.020000 0.970000
    endloop
  endfacet
  facet normal 0.000000 1.000000 0.000000
    outer loop
      vertex 0.050000 -1.020000 1.020000
      vertex 0.050000 -1.020000 1.080000
      vertex 0.090000 -1.020000 1.080000
    endloop
  endfacet
  facet normal -0.000000 -1.000000 -0.000000
    outer loop
      vertex 0.090000 -1.020000 1.080000
      vertex 0.050000 -1.020000 1.080000
      vertex 0.050000 -1.020000 1.020000
    endloop
  endfacet
  facet normal 0.000000 -1.000000 0.000000
    outer loop
      vertex 0.050000 1.020000 1.020000
      vertex 0.090000 1.020000 1.080000
      vertex 0.050000 1.020000 1.080000
    endloop
  endfacet
  facet normal -0.000000 1.000000 -0.000000
    outer loop
      vertex 0.050000 1.020000 1.080000
      vertex 0.090000 1.020000 1.080000
      vertex 0.050000 1.020000 1.020000
    endloop
  endfacet
  facet normal -0.000000 1.000000 0.000000
    outer loop
      vertex 0.090000 -1.020000 1.447000
      vertex 0.109289 -1.020000 1.450711
      vertex 0.104852 -1.020000 1.445515
    endloop
  endfacet
  facet normal 0.000000 -1.000000 -0.000000
    outer loop
      vertex 0.104852 -1.020000 1.445515
      vertex 0.109289 -1.020000 1.450711
      vertex 0.090000 -1.020000 1.447000
    endloop
  endfacet
  facet normal 0.000000 -1.000000 0.000000
    outer loop
      vertex 0.090000 1.020000 1.447000
      vertex 0.104852 1.020000 1.445515
      vertex 0.109289 1.020000 1.450711
    endloop
  endfacet
  facet normal -0.000000 1.000000 -0.000000
    outer loop
      vertex 0.109289 1.020000 1.450711
      vertex 0.104852 1.020000 1.445515
      vertex 0.090000 1.020000 1.447000
    endloop
  endfacet
  facet normal 0.000000 1.000000 0.000000
    outer loop
      vertex 0.090000 -1.020000 1.447000
      vertex 0.121221 -1.020000 1.460902
      vertex 0.109289 -1.020000 1.450711
    endloop
  endfacet
  facet normal -0.000000 -1.000000 -0.000000
    outer loop
      vertex 0.109289 -1.020000 1.450711
      vertex 0.121221 -1.020000 1.460902
      vertex 0.090000 -1.020000 1.447000
    endloop
  endfacet
  facet normal 0.000000 -1.000000 0.000000
    outer loop
      vertex 0.090000 1.020000 1.447000
      vertex 0.109289 1.020000 1.450711
      vertex 0.121221 1.020000 1.460902
    endloop
  endfacet
  facet normal -0.000000 1.000000 -0.000000
    outer loop
      vertex 0.121221 1.020000 1.460902
      vertex 0.109289 1.020000 1.450711
      vertex 0.090000 1.020000 1.447000
    endloop
  endfacet
  facet normal 0.000000 1.000000 0.000000
    outer loop
      vertex 0.275106 -1.020000 1.349098
      vertex 0.480000 -1.020000 1.020000
      vertex 0.269101 -1.020000 1.334601
    endloop
  endfacet
  facet normal -0.000000 -1.000000 -0.000000
    outer loop
      vertex 0.269101 -1.020000 1.334601
      vertex 0.480000 -1.020000 1.020000
      vertex 0.275106 -1.020000 1.349098
    endloop
  endfacet
  facet normal 0.000000 -1.000000 -0.000000
    outer loop
      vertex 0.275106 1.020000 1.349098
      vertex 0.269101 1.020000 1.334601
      vertex 0.480000 1.020000 1.020000
    endloop
  endfacet
  facet normal -0.000000 1.000000 0.000000
    outer loop
      vertex 0.480000 1.020000 1.020000
      vertex 0.269101 1.020000 1.334601
      vertex 0.275106 1.020000 1.349098
    endloop
  endfacet
  facet normal 0.000000 1.000000 0.000000
    outer loop
      vertex 0.480000 -1.020000 1.020000
      vertex 0.260902 -1.020000 1.321221
      vertex 0.269101 -1.020000 1.334601
    endloop
  endfacet
  facet normal -0.000000 -1.000000 -0.000000
    outer loop
      vertex 0.269101 -1.020000 1.334601
      vertex 0.260902 -1.020000 1.321221
      vertex 0.480000 -1.020000 1.020000
    endloop
  endfacet
  facet normal 0.000000 -1.000000 0.000000
    outer loop
      vertex 0.480000 1.020000 1.020000
      vertex 0.269101 1.020000 1.334601
      vertex 0.260902 1.020000 1.321221
    endloop
  endfacet
  facet normal -0.000000 1.000000 -0.000000
    outer loop
      vertex 0.260902 1.020000 1.321221
      vertex 0.269101 1.020000 1.334601
      vertex 0.480000 1.020000 1.020000
    endloop
  endfacet
  facet normal 0.000000 1.000000 0.000000
    outer loop
      vertex 0.480000 -1.020000 1.020000
      vertex 0.250711 -1.020000 1.309289
      vertex 0.260902 -1.020000 1.321221
    endloop
  endfacet
  facet normal -0.000000 -1.000000 -0.000000
    outer loop
      vertex 0.260902 -1.020000 1.321221
      vertex 0.250711 -1.020000 1.309289
      vertex 0.480000 -1.020000 1.020000
    endloop
  endfacet
  facet normal 0.000000 -1.000000 0.000000
    outer loop
      vertex 0.480000 1.020000 1.020000
      vertex 0.260902 1.020000 1.321221
      vertex 0.250711 1.020000 1.309289
    endloop
  endfacet
  facet normal -0.000000 1.000000 -0.000000
    outer loop
      vertex 0.250711 1.020000 1.309289
      vertex 0.260902 1.020000 1.321221
      vertex 0.480000 1.020000 1.020000
    endloop
  endfacet
  facet normal 0.000000 1.000000 0.000000
    outer loop
      vertex 0.480000 -1.020000 1.020000
      vertex 0.238779 -1.020000 1.299098
      vertex 0.250711 -1.020000 1.309289
    endloop
  endfacet
  facet normal -0.000000 -1.000000 -0.000000
    outer loop
      vertex 0.250711 -1.020000 1.309289
      vertex 0.238779 -1.020000 1.299098
      vertex 0.480000 -1.020000 1.020000
    endloop
  endfacet
  facet normal 0.000000 -1.000000 0.000000
    outer loop
      vertex 0.480000 1.020000 1.020000
      vertex 0.250711 1.020000 1.309289
      vertex 0.238779 1.020000 1.299098
    endloop
  endfacet
  facet normal -0.000000 1.000000 -0.000000
    outer loop
      vertex 0.238779 1.020000 1.299098
      vertex 0.250711 1.020000 1.309289
      vertex 0.480000 1.020000 1.020000
    endloop
  endfacet
  facet normal 0.000000 1.000000 0.000000
    outer loop
      vertex 0.480000 -1.020000 1.020000
      vertex 0.225399 -1.020000 1.290899
      vertex 0.238779 -1.020000 1.299098
    endloop
  endfacet
  facet normal -0.000000 -1.000000 -0.000000
    outer loop
      vertex 0.238779 -1.020000 1.299098
      vertex 0.225399 -1.020000 1.290899
      vertex 0.480000 -1.020000 1.020000
    endloop
  endfacet
  facet normal 0.000000 -1.000000 0.000000
    outer loop
      vertex 0.480000 1.020000 1.020000
      vertex 0.238779 1.020000 1.299098
      vertex 0.225399 1.020000 1.290899
    endloop
  endfacet
  facet normal -0.000000 1.000000 -0.000000
    outer loop
      vertex 0.225399 1.020000 1.290899
      vertex 0.238779 1.020000 1.299098
      vertex 0.480000 1.020000 1.020000
    endloop
  endfacet
  facet normal 0.000000 1.000000 0.000000
    outer loop
      vertex 0.480000 -1.020000 1.020000
      vertex 0.140000 -1.020000 1.180000
      vertex 0.225399 -1.020000 1.290899
    endloop
  endfacet
  facet normal -0.000000 -1.000000 -0.000000
    outer loop
      vertex 0.225399 -1.020000 1.290899
      vertex 0.140000 -1.020000 1.180000
      vertex 0.480000 -1.020000 1.020000
    endloop
  endfacet
  facet normal 0.000000 -1.000000 0.000000
    outer loop
      vertex 0.480000 1.020000 1.020000
      vertex 0.225399 1.020000 1.290899
      vertex 0.140000 1.020000 1.180000
    endloop
  endfacet
  facet normal -0.000000 1.000000 -0.000000
    outer loop
      vertex 0.140000 1.020000 1.180000
      vertex 0.225399 1.020000 1.290899
      vertex 0.480000 1.020000 1.020000
    endloop
  endfacet
  facet normal 0.000000 1.000000 0.000000
    outer loop
      vertex 0.480000 -1.020000 1.020000
      vertex 0.090000 -1.020000 1.080000
      vertex 0.140000 -1.020000 1.180000
    endloop
  endfacet
  facet normal -0.000000 -1.000000 -0.000000
    outer loop
      vertex 0.140000 -1.020000 1.180000
      vertex 0.090000 -1.020000 1.080000
      vertex 0.480000 -1.020000 1.020000
    endloop
  endfacet
  facet normal 0.000000 -1.000000 0.000000
    outer loop
      vertex 0.480000 1.020000 1.020000
      vertex 0.140000 1.020000 1.180000
      vertex 0.090000 1.020000 1.080000
    endloop
  endfacet
  facet normal -0.000000 1.000000 -0.000000
    outer loop
      vertex 0.090000 1.020000 1.080000
      vertex 0.140000 1.020000 1.180000
      vertex 0.480000 1.020000 1.020000
    endloop
  endfacet
  facet normal 0.000000 1.000000 0.000000
    outer loop
      vertex 0.090000 -1.020000 1.080000
      vertex 0.090000 -1.020000 1.182778
      vertex 0.140000 -1.020000 1.180000
    endloop
  endfacet
  facet normal -0.000000 -1.000000 -0.000000
    outer loop
      vertex 0.140000 -1.020000 1.180000
      vertex 0.090000 -1.020000 1.182778
      vertex 0.090000 -1.020000 1.080000
    endloop
  endfacet
  facet normal 0.000000 -1.000000 0.000000
    outer loop
      vertex 0.090000 1.020000 1.080000
      vertex 0.140000 1.020000 1.180000
      vertex 0.090000 1.020000 1.182778
    endloop
  endfacet
  facet normal -0.000000 1.000000 -0.000000
    outer loop
      vertex 0.090000 1.020000 1.182778
      vertex 0.140000 1.020000 1.180000
      vertex 0.090000 1.020000 1.080000
    endloop
  endfacet
  facet normal 0.000000 1.000000 0.000000
    outer loop
      vertex 0.148101 -1.020000 1.285308
      vertex 0.149098 -1.020000 1.284894
      vertex 0.140000 -1.020000 1.180000
    endloop
  endfacet
  facet normal -0.000000 -1.000000 -0.000000
    outer loop
      vertex 0.140000 -1.020000 1.180000
      vertex 0.149098 -1.020000 1.284894
      vertex 0.148101 -1.020000 1.285308
    endloop
  endfacet
  facet normal 0.000000 -1.000000 -0.000000
    outer loop
      vertex 0.148101 1.020000 1.285308
      vertex 0.140000 1.020000 1.180000
      vertex 0.149098 1.020000 1.284894
    endloop
  endfacet
  facet normal -0.000000 1.000000 0.000000
    outer loop
      vertex 0.149098 1.020000 1.284894
      vertex 0.140000 1.020000 1.180000
      vertex 0.148101 1.020000 1.285308
    endloop
  endfacet
  facet normal 0.000000 1.000000 0.000000
    outer loop
      vertex 0.225399 -1.020000 1.290899
      vertex 0.140000 -1.020000 1.180000
      vertex 0.210902 -1.020000 1.284894
    endloop
  endfacet
  facet normal -0.000000 -1.000000 -0.000000
    outer loop
      vertex 0.210902 -1.020000 1.284894
      vertex 0.140000 -1.020000 1.180000
      vertex 0.225399 -1.020000 1.290899
    endloop
  endfacet
  facet normal 0.000000 -1.000000 0.000000
    outer loop
      vertex 0.225399 1.020000 1.290899
      vertex 0.210902 1.020000 1.284894
      vertex 0.140000 1.020000 1.180000
    endloop
  endfacet
  facet normal -0.000000 1.000000 -0.000000
    outer loop
      vertex 0.140000 1.020000 1.180000
      vertex 0.210902 1.020000 1.284894
      vertex 0.225399 1.020000 1.290899
    endloop
  endfacet
  facet normal 0.000000 1.000000 0.000000
    outer loop
      vertex 0.140000 -1.020000 1.180000
      vertex 0.195643 -1.020000 1.281231
      vertex 0.210902 -1.020000 1.284894
    endloop
  endfacet
  facet normal -0.000000 -1.000000 -0.000000
    outer loop
      vertex 0.210902 -1.020000 1.284894
      vertex 0.195643 -1.020000 1.281231
      vertex 0.140000 -1.020000 1.180000
    endloop
  endfacet
  facet normal 0.000000 -1.000000 0.000000
    outer loop
      vertex 0.140000 1.020000 1.180000
      vertex 0.210902 1.020000 1.284894
      vertex 0.195643 1.020000 1.281231
    endloop
  endfacet
  facet normal -0.000000 1.000000 -0.000000
    outer loop
      vertex 0.195643 1.020000 1.281231
      vertex 0.210902 1.020000 1.284894
      vertex 0.140000 1.020000 1.180000
    endloop
  endfacet
  facet normal 0.000000 1.000000 0.000000
    outer loop
      vertex 0.140000 -1.020000 1.180000
      vertex 0.180000 -1.020000 1.280000
      vertex 0.195643 -1.020000 1.281231
    endloop
  endfacet
  facet normal -0.000000 -1.000000 -0.000000
    outer loop
      vertex 0.195643 -1.020000 1.281231
      vertex 0.180000 -1.020000 1.280000
      vertex 0.140000 -1.020000 1.180000
    endloop
  endfacet
  facet normal 0.000000 -1.000000 0.000000
    outer loop
      vertex 0.140000 1.020000 1.180000
      vertex 0.195643 1.020000 1.281231
      vertex 0.180000 1.020000 1.280000
    endloop
  endfacet
  facet normal -0.000000 1.000000 -0.000000
    outer loop
      vertex 0.180000 1.020000 1.280000
      vertex 0.195643 1.020000 1.281231
      vertex 0.140000 1.020000 1.180000
    endloop
  endfacet
  facet normal 0.000000 1.000000 0.000000
    outer loop
      vertex 0.140000 -1.020000 1.180000
      vertex 0.164357 -1.020000 1.281231
      vertex 0.180000 -1.020000 1.280000
    endloop
  endfacet
  facet normal -0.000000 -1.000000 -0.000000
    outer loop
      vertex 0.180000 -1.020000 1.280000
      vertex 0.164357 -1.020000 1.281231
      vertex 0.140000 -1.020000 1.180000
    endloop
  endfacet
  facet normal 0.000000 -1.000000 0.000000
    outer loop
      vertex 0.140000 1.020000 1.180000
      vertex 0.180000 1.020000 1.280000
      vertex 0.164357 1.020000 1.281231
    endloop
  endfacet
  facet normal -0.000000 1.000000 -0.000000
    outer loop
      vertex 0.164357 1.020000 1.281231
      vertex 0.180000 1.020000 1.280000
      vertex 0.140000 1.020000 1.180000
    endloop
  endfacet
  facet normal 0.000000 1.000000 0.000000
    outer loop
      vertex 0.140000 -1.020000 1.180000
      vertex 0.149098 -1.020000 1.284894
      vertex 0.164357 -1.020000 1.281231
    endloop
  endfacet
  facet normal -0.000000 -1.000000 -0.000000
    outer loop
      vertex 0.164357 -1.020000 1.281231
      vertex 0.149098 -1.020000 1.284894
      vertex 0.140000 -1.020000 1.180000
    endloop
  endfacet
  facet normal 0.000000 -1.000000 0.000000
    outer loop
      vertex 0.140000 1.020000 1.180000
      vertex 0.164357 1.020000 1.281231
      vertex 0.149098 1.020000 1.284894
    endloop
  endfacet
  facet normal -0.000000 1.000000 -0.000000
    outer loop
      vertex 0.149098 1.020000 1.284894
      vertex 0.164357 1.020000 1.281231
      vertex 0.140000 1.020000 1.180000
    endloop
  endfacet
  facet normal -1.000000 0.000000 0.000000
    outer loop
      vertex 0.090000 -1.020000 1.080000
      vertex 0.090000 -1.020000 1.182778
      vertex 0.090000 1.020000 1.182778
    endloop
  endfacet
  facet normal 1.000000 -0.000000 -0.000000
    outer loop
      vertex 0.090000 1.020000 1.182778
      vertex 0.090000 -1.020000 1.182778
      vertex 0.090000 -1.020000 1.080000
    endloop
  endfacet
  facet normal -1.000000 0.000000 0.000000
    outer loop
      vertex 0.090000 -1.020000 1.080000
      vertex 0.090000 1.020000 1.182778
      vertex 0.090000 1.020000 1.080000
    endloop
  endfacet
  facet normal 1.000000 -0.000000 -0.000000
    outer loop
      vertex 0.090000 1.020000 1.080000
      vertex 0.090000 1.020000 1.182778
      vertex 0.090000 -1.020000 1.080000
    endloop
  endfacet
  facet normal 0.055470 0.000000 0.998460
    outer loop
      vertex 0.090000 -1.020000 1.182778
      vertex 0.140000 -1.020000 1.180000
      vertex 0.140000 1.020000 1.180000
    endloop
  endfacet
  facet normal -0.055470 -0.000000 -0.998460
    outer loop
      vertex 0.140000 1.020000 1.180000
      vertex 0.140000 -1.020000 1.180000
      vertex 0.090000 -1.020000 1.182778
    endloop
  endfacet
  facet normal 0.055470 -0.000000 0.998460
    outer loop
      vertex 0.090000 -1.020000 1.182778
      vertex 0.140000 1.020000 1.180000
      vertex 0.090000 1.020000 1.182778
    endloop
  endfacet
  facet normal -0.055470 0.000000 -0.998460
    outer loop
      vertex 0.090000 1.020000 1.182778
      vertex 0.140000 1.020000 1.180000
      vertex 0.090000 -1.020000 1.182778
    endloop
  endfacet
  facet normal -0.997054 0.000000 0.076696
    outer loop
      vertex 0.140000 -1.020000 1.180000
      vertex 0.148101 -1.020000 1.285308
      vertex 0.148101 1.020000 1.285308
    endloop
  endfacet
  facet normal 0.997054 -0.000000 -0.076696
    outer loop
      vertex 0.148101 1.020000 1.285308
      vertex 0.148101 -1.020000 1.285308
      vertex 0.140000 -1.020000 1.180000
    endloop
  endfacet
  facet normal -0.997054 0.000000 0.076696
    outer loop
      vertex 0.140000 -1.020000 1.180000
      vertex 0.148101 1.020000 1.285308
      vertex 0.140000 1.020000 1.180000
    endloop
  endfacet
  facet normal 0.997054 -0.000000 -0.076696
    outer loop
      vertex 0.140000 1.020000 1.180000
      vertex 0.148101 1.020000 1.285308
      vertex 0.140000 -1.020000 1.180000
    endloop
  endfacet
  facet normal 0.382683 0.000000 0.923880
    outer loop
      vertex 0.148101 -1.020000 1.285308
      vertex 0.149098 -1.020000 1.284894
      vertex 0.149098 1.020000 1.284894
    endloop
  endfacet
  facet normal -0.382683 -0.000000 -0.923880
    outer loop
      vertex 0.149098 1.020000 1.284894
      vertex 0.149098 -1.020000 1.284894
      vertex 0.148101 -1.020000 1.285308
    endloop
  endfacet
  facet normal 0.382683 -0.000000 0.923880
    outer loop
      vertex 0.148101 -1.020000 1.285308
      vertex 0.149098 1.020000 1.284894
      vertex 0.148101 1.020000 1.285308
    endloop
  endfacet
  facet normal -0.382683 0.000000 -0.923880
    outer loop
      vertex 0.148101 1.020000 1.285308
      vertex 0.149098 1.020000 1.284894
      vertex 0.148101 -1.020000 1.285308
    endloop
  endfacet
  facet normal 0.233445 0.000000 0.972370
    outer loop
      vertex 0.149098 -1.020000 1.284894
      vertex 0.164357 -1.020000 1.281231
      vertex 0.164357 1.020000 1.281231
    endloop
  endfacet
  facet normal -0.233445 -0.000000 -0.972370
    outer loop
      vertex 0.164357 1.020000 1.281231
      vertex 0.164357 -1.020000 1.281231
      vertex 0.149098 -1.020000 1.284894
    endloop
  endfacet
  facet normal 0.233445 -0.000000 0.972370
    outer loop
      vertex 0.149098 -1.020000 1.284894
      vertex 0.164357 1.020000 1.281231
      vertex 0.149098 1.020000 1.284894
    endloop
  endfacet
  facet normal -0.233445 0.000000 -0.972370
    outer loop
      vertex 0.149098 1.020000 1.284894
      vertex 0.164357 1.020000 1.281231
      vertex 0.149098 -1.020000 1.284894
    endloop
  endfacet
  facet normal 0.078459 0.000000 0.996917
    outer loop
      vertex 0.164357 -1.020000 1.281231
      vertex 0.180000 -1.020000 1.280000
      vertex 0.180000 1.020000 1.280000
    endloop
  endfacet
  facet normal -0.078459 -0.000000 -0.996917
    outer loop
      vertex 0.180000 1.020000 1.280000
      vertex 0.180000 -1.020000 1.280000
      vertex 0.164357 -1.020000 1.281231
    endloop
  endfacet
  facet normal 0.078459 -0.000000 0.996917
    outer loop
      vertex 0.164357 -1.020000 1.281231
      vertex 0.180000 1.020000 1.280000
      vertex 0.164357 1.020000 1.281231
    endloop
  endfacet
  facet normal -0.078459 0.000000 -0.996917
    outer loop
      vertex 0.164357 1.020000 1.281231
      vertex 0.180000 1.020000 1.280000
      vertex 0.164357 -1.020000 1.281231
    endloop
  endfacet
  facet normal -0.078459 0.000000 0.996917
    outer loop
      vertex 0.180000 -1.020000 1.280000
      vertex 0.195643 -1.020000 1.281231
      vertex 0.195643 1.020000 1.281231
    endloop
  endfacet
  facet normal 0.078459 -0.000000 -0.996917
    outer loop
      vertex 0.195643 1.020000 1.281231
      vertex 0.195643 -1.020000 1.281231
      vertex 0.180000 -1.020000 1.280000
    endloop
  endfacet
  facet normal -0.078459 0.000000 0.996917
    outer loop
      vertex 0.180000 -1.020000 1.280000
      vertex 0.195643 1.020000 1.281231
      vertex 0.180000 1.020000 1.280000
    endloop
  endfacet
  facet normal 0.078459 -0.000000 -0.996917
    outer loop
      vertex 0.180000 1.020000 1.280000
      vertex 0.195643 1.020000 1.281231
      vertex 0.180000 -1.020000 1.280000
    endloop
  endfacet
  facet normal -0.233445 0.000000 0.972370
    outer loop
      vertex 0.195643 -1.020000 1.281231
      vertex 0.210902 -1.020000 1.284894
      vertex 0.210902 1.020000 1.284894
    endloop
  endfacet
  facet normal 0.233445 -0.000000 -0.972370
    outer loop
      vertex 0.210902 1.020000 1.284894
      vertex 0.210902 -1.020000 1.284894
      vertex 0.195643 -1.020000 1.281231
    endloop
  endfacet
  facet normal -0.233445 0.000000 0.972370
    outer loop
      vertex 0.195643 -1.020000 1.281231
      vertex 0.210902 1.020000 1.284894
      vertex 0.195643 1.020000 1.281231
    endloop
  endfacet
  facet normal 0.233445 -0.000000 -0.972370
    outer loop
      vertex 0.195643 1.020000 1.281231
      vertex 0.210902 1.020000 1.284894
      vertex 0.195643 -1.020000 1.281231
    endloop
  endfacet
  facet normal -0.382683 0.000000 0.923880
    outer loop
      vertex 0.210902 -1.020000 1.284894
      vertex 0.225399 -1.020000 1.290899
      vertex 0.225399 1.020000 1.290899
    endloop
  endfacet
  facet normal 0.382683 -0.000000 -0.923880
    outer loop
      vertex 0.225399 1.020000 1.290899
      vertex 0.225399 -1.020000 1.290899
      vertex 0.210902 -1.020000 1.284894
    endloop
  endfacet
  facet normal -0.382683 0.000000 0.923880
    outer loop
      vertex 0.210902 -1.020000 1.284894
      vertex 0.225399 1.020000 1.290899
      vertex 0.210902 1.020000 1.284894
    endloop
  endfacet
  facet normal 0.382683 -0.000000 -0.923880
    outer loop
      vertex 0.210902 1.020000 1.284894
      vertex 0.225399 1.020000 1.290899
      vertex 0.210902 -1.020000 1.284894
    endloop
  endfacet
  facet normal -0.522499 0.000000 0.852640
    outer loop
      vertex 0.225399 -1.020000 1.290899
      vertex 0.238779 -1.020000 1.299098
      vertex 0.238779 1.020000 1.299098
    endloop
  endfacet
  facet normal 0.522499 -0.000000 -0.852640
    outer loop
      vertex 0.238779 1.020000 1.299098
      vertex 0.238779 -1.020000 1.299098
      vertex 0.225399 -1.020000 1.290899
    endloop
  endfacet
  facet normal -0.522499 0.000000 0.852640
    outer loop
      vertex 0.225399 -1.020000 1.290899
      vertex 0.238779 1.020000 1.299098
      vertex 0.225399 1.020000 1.290899
    endloop
  endfacet
  facet normal 0.522499 -0.000000 -0.852640
    outer loop
      vertex 0.225399 1.020000 1.290899
      vertex 0.238779 1.020000 1.299098
      vertex 0.225399 -1.020000 1.290899
    endloop
  endfacet
  facet normal -0.649448 0.000000 0.760406
    outer loop
      vertex 0.238779 -1.020000 1.299098
      vertex 0.250711 -1.020000 1.309289
      vertex 0.250711 1.020000 1.309289
    endloop
  endfacet
  facet normal 0.649448 -0.000000 -0.760406
    outer loop
      vertex 0.250711 1.020000 1.309289
      vertex 0.250711 -1.020000 1.309289
      vertex 0.238779 -1.020000 1.299098
    endloop
  endfacet
  facet normal -0.649448 0.000000 0.760406
    outer loop
      vertex 0.238779 -1.020000 1.299098
      vertex 0.250711 1.020000 1.309289
      vertex 0.238779 1.020000 1.299098
    endloop
  endfacet
  facet normal 0.649448 -0.000000 -0.760406
    outer loop
      vertex 0.238779 1.020000 1.299098
      vertex 0.250711 1.020000 1.309289
      vertex 0.238779 -1.020000 1.299098
    endloop
  endfacet
  facet normal -0.760406 0.000000 0.649448
    outer loop
      vertex 0.250711 -1.020000 1.309289
      vertex 0.260902 -1.020000 1.321221
      vertex 0.260902 1.020000 1.321221
    endloop
  endfacet
  facet normal 0.760406 -0.000000 -0.649448
    outer loop
      vertex 0.260902 1.020000 1.321221
      vertex 0.260902 -1.020000 1.321221
      vertex 0.250711 -1.020000 1.309289
    endloop
  endfacet
  facet normal -0.760406 0.000000 0.649448
    outer loop
      vertex 0.250711 -1.020000 1.309289
      vertex 0.260902 1.020000 1.321221
      vertex 0.250711 1.020000 1.309289
    endloop
  endfacet
  facet normal 0.760406 -0.000000 -0.649448
    outer loop
      vertex 0.250711 1.020000 1.309289
      vertex 0.260902 1.020000 1.321221
      vertex 0.250711 -1.020000 1.309289
    endloop
  endfacet
  facet normal -0.852640 0.000000 0.522499
    outer loop
      vertex 0.260902 -1.020000 1.321221
      vertex 0.269101 -1.020000 1.334601
      vertex 0.269101 1.020000 1.334601
    endloop
  endfacet
  facet normal 0.852640 -0.000000 -0.522499
    outer loop
      vertex 0.269101 1.020000 1.334601
      vertex 0.269101 -1.020000 1.334601
      vertex 0.260902 -1.020000 1.321221
    endloop
  endfacet
  facet normal -0.852640 0.000000 0.522499
    outer loop
      vertex 0.260902 -1.020000 1.321221
      vertex 0.269101 1.020000 1.334601
      vertex 0.260902 1.020000 1.321221
    endloop
  endfacet
  facet normal 0.852640 -0.000000 -0.522499
    outer loop
      vertex 0.260902 1.020000 1.321221
      vertex 0.269101 1.020000 1.334601
      vertex 0.260902 -1.020000 1.321221
    endloop
  endfacet
  facet normal -0.923880 0.000000 0.382683
    outer loop
      vertex 0.269101 -1.020000 1.334601
      vertex 0.275106 -1.020000 1.349098
      vertex 0.275106 1.020000 1.349098
    endloop
  endfacet
  facet normal 0.923880 -0.000000 -0.382683
    outer loop
      vertex 0.275106 1.020000 1.349098
      vertex 0.275106 -1.020000 1.349098
      vertex 0.269101 -1.020000 1.334601
    endloop
  endfacet
  facet normal -0.923880 0.000000 0.382683
    outer loop
      vertex 0.269101 -1.020000 1.334601
      vertex 0.275106 1.020000 1.349098
      vertex 0.269101 1.020000 1.334601
    endloop
  endfacet
  facet normal 0.923880 -0.000000 -0.382683
    outer loop
      vertex 0.269101 1.020000 1.334601
      vertex 0.275106 1.020000 1.349098
      vertex 0.269101 -1.020000 1.334601
    endloop
  endfacet
  facet normal -0.972370 0.000000 0.233445
    outer loop
      vertex 0.275106 -1.020000 1.349098
      vertex 0.278769 -1.020000 1.364357
      vertex 0.278769 1.020000 1.364357
    endloop
  endfacet
  facet normal 0.972370 -0.000000 -0.233445
    outer loop
      vertex 0.278769 1.020000 1.364357
      vertex 0.278769 -1.020000 1.364357
      vertex 0.275106 -1.020000 1.349098
    endloop
  endfacet
  facet normal -0.972370 0.000000 0.233445
    outer loop
      vertex 0.275106 -1.020000 1.349098
      vertex 0.278769 1.020000 1.364357
      vertex 0.275106 1.020000 1.349098
    endloop
  endfacet
  facet normal 0.972370 -0.000000 -0.233445
    outer loop
      vertex 0.275106 1.020000 1.349098
      vertex 0.278769 1.020000 1.364357
      vertex 0.275106 -1.020000 1.349098
    endloop
  endfacet
  facet normal -0.996917 0.000000 0.078459
    outer loop
      vertex 0.278769 -1.020000 1.364357
      vertex 0.280000 -1.020000 1.380000
      vertex 0.280000 1.020000 1.380000
    endloop
  endfacet
  facet normal 0.996917 -0.000000 -0.078459
    outer loop
      vertex 0.280000 1.020000 1.380000
      vertex 0.280000 -1.020000 1.380000
      vertex 0.278769 -1.020000 1.364357
    endloop
  endfacet
  facet normal -0.996917 0.000000 0.078459
    outer loop
      vertex 0.278769 -1.020000 1.364357
      vertex 0.280000 1.020000 1.380000
      vertex 0.278769 1.020000 1.364357
    endloop
  endfacet
  facet normal 0.996917 -0.000000 -0.078459
    outer loop
      vertex 0.278769 1.020000 1.364357
      vertex 0.280000 1.020000 1.380000
      vertex 0.278769 -1.020000 1.364357
    endloop
  endfacet
  facet normal -0.996917 0.000000 -0.078459
    outer loop
      vertex 0.280000 -1.020000 1.380000
      vertex 0.278769 -1.020000 1.395643
      vertex 0.278769 1.020000 1.395643
    endloop
  endfacet
  facet normal 0.996917 -0.000000 0.078459
    outer loop
      vertex 0.278769 1.020000 1.395643
      vertex 0.278769 -1.020000 1.395643
      vertex 0.280000 -1.020000 1.380000
    endloop
  endfacet
  facet normal -0.996917 0.000000 -0.078459
    outer loop
      vertex 0.280000 -1.020000 1.380000
      vertex 0.278769 1.020000 1.395643
      vertex 0.280000 1.020000 1.380000
    endloop
  endfacet
  facet normal 0.996917 -0.000000 0.078459
    outer loop
      vertex 0.280000 1.020000 1.380000
      vertex 0.278769 1.020000 1.395643
      vertex 0.280000 -1.020000 1.380000
    endloop
  endfacet
  facet normal -0.972370 0.000000 -0.233445
    outer loop
      vertex 0.278769 -1.020000 1.395643
      vertex 0.275106 -1.020000 1.410902
      vertex 0.275106 1.020000 1.410902
    endloop
  endfacet
  facet normal 0.972370 -0.000000 0.233445
    outer loop
      vertex 0.275106 1.020000 1.410902
      vertex 0.275106 -1.020000 1.410902
      vertex 0.278769 -1.020000 1.395643
    endloop
  endfacet
  facet normal -0.972370 0.000000 -0.233445
    outer loop
      vertex 0.278769 -1.020000 1.395643
      vertex 0.275106 1.020000 1.410902
      vertex 0.278769 1.020000 1.395643
    endloop
  endfacet
  facet normal 0.972370 -0.000000 0.233445
    outer loop
      vertex 0.278769 1.020000 1.395643
      vertex 0.275106 1.020000 1.410902
      vertex 0.278769 -1.020000 1.395643
    endloop
  endfacet
  facet normal -0.923880 0.000000 -0.382683
    outer loop
      vertex 0.275106 -1.020000 1.410902
      vertex 0.269101 -1.020000 1.425399
      vertex 0.269101 1.020000 1.425399
    endloop
  endfacet
  facet normal 0.923880 -0.000000 0.382683
    outer loop
      vertex 0.269101 1.020000 1.425399
      vertex 0.269101 -1.020000 1.425399
      vertex 0.275106 -1.020000 1.410902
    endloop
  endfacet
  facet normal -0.923880 0.000000 -0.382683
    outer loop
      vertex 0.275106 -1.020000 1.410902
      vertex 0.269101 1.020000 1.425399
      vertex 0.275106 1.020000 1.410902
    endloop
  endfacet
  facet normal 0.923880 -0.000000 0.382683
    outer loop
      vertex 0.275106 1.020000 1.410902
      vertex 0.269101 1.020000 1.425399
      vertex 0.275106 -1.020000 1.410902
    endloop
  endfacet
  facet normal -0.852640 0.000000 -0.522499
    outer loop
      vertex 0.269101 -1.020000 1.425399
      vertex 0.260902 -1.020000 1.438779
      vertex 0.260902 1.020000 1.438779
    endloop
  endfacet
  facet normal 0.852640 -0.000000 0.522499
    outer loop
      vertex 0.260902 1.020000 1.438779
      vertex 0.260902 -1.020000 1.438779
      vertex 0.269101 -1.020000 1.425399
    endloop
  endfacet
  facet normal -0.852640 0.000000 -0.522499
    outer loop
      vertex 0.269101 -1.020000 1.425399
      vertex 0.260902 1.020000 1.438779
      vertex 0.269101 1.020000 1.425399
    endloop
  endfacet
  facet normal 0.852640 -0.000000 0.522499
    outer loop
      vertex 0.269101 1.020000 1.425399
      vertex 0.260902 1.020000 1.438779
      vertex 0.269101 -1.020000 1.425399
    endloop
  endfacet
  facet normal -0.760406 0.000000 -0.649448
    outer loop
      vertex 0.260902 -1.020000 1.438779
      vertex 0.250711 -1.020000 1.450711
      vertex 0.250711 1.020000 1.450711
    endloop
  endfacet
  facet normal 0.760406 -0.000000 0.649448
    outer loop
      vertex 0.250711 1.020000 1.450711
      vertex 0.250711 -1.020000 1.450711
      vertex 0.260902 -1.020000 1.438779
    endloop
  endfacet
  facet normal -0.760406 0.000000 -0.649448
    outer loop
      vertex 0.260902 -1.020000 1.438779
      vertex 0.250711 1.020000 1.450711
      vertex 0.260902 1.020000 1.438779
    endloop
  endfacet
  facet normal 0.760406 -0.000000 0.649448
    outer loop
      vertex 0.260902 1.020000 1.438779
      vertex 0.250711 1.020000 1.450711
      vertex 0.260902 -1.020000 1.438779
    endloop
  endfacet
  facet normal -0.649448 0.000000 -0.760406
    outer loop
      vertex 0.250711 -1.020000 1.450711
      vertex 0.238779 -1.020000 1.460902
      vertex 0.238779 1.020000 1.460902
    endloop
  endfacet
  facet normal 0.649448 -0.000000 0.760406
    outer loop
      vertex 0.238779 1.020000 1.460902
      vertex 0.238779 -1.020000 1.460902
      vertex 0.250711 -1.020000 1.450711
    endloop
  endfacet
  facet normal -0.649448 0.000000 -0.760406
    outer loop
      vertex 0.250711 -1.020000 1.450711
      vertex 0.238779 1.020000 1.460902
      vertex 0.250711 1.020000 1.450711
    endloop
  endfacet
  facet normal 0.649448 -0.000000 0.760406
    outer loop
      vertex 0.250711 1.020000 1.450711
      vertex 0.238779 1.020000 1.460902
      vertex 0.250711 -1.020000 1.450711
    endloop
  endfacet
  facet normal -0.522499 0.000000 -0.852640
    outer loop
      vertex 0.238779 -1.020000 1.460902
      vertex 0.225399 -1.020000 1.469101
      vertex 0.225399 1.020000 1.469101
    endloop
  endfacet
  facet normal 0.522499 -0.000000 0.852640
    outer loop
      vertex 0.225399 1.020000 1.469101
      vertex 0.225399 -1.020000 1.469101
      vertex 0.238779 -1.020000 1.460902
    endloop
  endfacet
  facet normal -0.522499 0.000000 -0.852640
    outer loop
      vertex 0.238779 -1.020000 1.460902
      vertex 0.225399 1.020000 1.469101
      vertex 0.238779 1.020000 1.460902
    endloop
  endfacet
  facet normal 0.522499 -0.000000 0.852640
    outer loop
      vertex 0.238779 1.020000 1.460902
      vertex 0.225399 1.020000 1.469101
      vertex 0.238779 -1.020000 1.460902
    endloop
  endfacet
  facet normal -0.382683 0.000000 -0.923880
    outer loop
      vertex 0.225399 -1.020000 1.469101
      vertex 0.210902 -1.020000 1.475106
      vertex 0.210902 1.020000 1.475106
    endloop
  endfacet
  facet normal 0.382683 -0.000000 0.923880
    outer loop
      vertex 0.210902 1.020000 1.475106
      vertex 0.210902 -1.020000 1.475106
      vertex 0.225399 -1.020000 1.469101
    endloop
  endfacet
  facet normal -0.382683 0.000000 -0.923880
    outer loop
      vertex 0.225399 -1.020000 1.469101
      vertex 0.210902 1.020000 1.475106
      vertex 0.225399 1.020000 1.469101
    endloop
  endfacet
  facet normal 0.382683 -0.000000 0.923880
    outer loop
      vertex 0.225399 1.020000 1.469101
      vertex 0.210902 1.020000 1.475106
      vertex 0.225399 -1.020000 1.469101
    endloop
  endfacet
  facet normal -0.233445 0.000000 -0.972370
    outer loop
      vertex 0.210902 -1.020000 1.475106
      vertex 0.195643 -1.020000 1.478769
      vertex 0.195643 1.020000 1.478769
    endloop
  endfacet
  facet normal 0.233445 -0.000000 0.972370
    outer loop
      vertex 0.195643 1.020000 1.478769
      vertex 0.195643 -1.020000 1.478769
      vertex 0.210902 -1.020000 1.475106
    endloop
  endfacet
  facet normal -0.233445 0.000000 -0.972370
    outer loop
      vertex 0.210902 -1.020000 1.475106
      vertex 0.195643 1.020000 1.478769
      vertex 0.210902 1.020000 1.475106
    endloop
  endfacet
  facet normal 0.233445 -0.000000 0.972370
    outer loop
      vertex 0.210902 1.020000 1.475106
      vertex 0.195643 1.020000 1.478769
      vertex 0.210902 -1.020000 1.475106
    endloop
  endfacet
  facet normal -0.078459 0.000000 -0.996917
    outer loop
      vertex 0.195643 -1.020000 1.478769
      vertex 0.180000 -1.020000 1.480000
      vertex 0.180000 1.020000 1.480000
    endloop
  endfacet
  facet normal 0.078459 -0.000000 0.996917
    outer loop
      vertex 0.180000 1.020000 1.480000
      vertex 0.180000 -1.020000 1.480000
      vertex 0.195643 -1.020000 1.478769
    endloop
  endfacet
  facet normal -0.078459 0.000000 -0.996917
    outer loop
      vertex 0.195643 -1.020000 1.478769
      vertex 0.180000 1.020000 1.480000
      vertex 0.195643 1.020000 1.478769
    endloop
  endfacet
  facet normal 0.078459 -0.000000 0.996917
    outer loop
      vertex 0.195643 1.020000 1.478769
      vertex 0.180000 1.020000 1.480000
      vertex 0.195643 -1.020000 1.478769
    endloop
  endfacet
  facet normal 0.078459 0.000000 -0.996917
    outer loop
      vertex 0.180000 -1.020000 1.480000
      vertex 0.164357 -1.020000 1.478769
      vertex 0.164357 1.020000 1.478769
    endloop
  endfacet
  facet normal -0.078459 -0.000000 0.996917
    outer loop
      vertex 0.164357 1.020000 1.478769
      vertex 0.164357 -1.020000 1.478769
      vertex 0.180000 -1.020000 1.480000
    endloop
  endfacet
  facet normal 0.078459 0.000000 -0.996917
    outer loop
      vertex 0.180000 -1.020000 1.480000
      vertex 0.164357 1.020000 1.478769
      vertex 0.180000 1.020000 1.480000
    endloop
  endfacet
  facet normal -0.078459 -0.000000 0.996917
    outer loop
      vertex 0.180000 1.020000 1.480000
      vertex 0.164357 1.020000 1.478769
      vertex 0.180000 -1.020000 1.480000
    endloop
  endfacet
  facet normal 0.233445 0.000000 -0.972370
    outer loop
      vertex 0.164357 -1.020000 1.478769
      vertex 0.149098 -1.020000 1.475106
      vertex 0.149098 1.020000 1.475106
    endloop
  endfacet
  facet normal -0.233445 -0.000000 0.972370
    outer loop
      vertex 0.149098 1.020000 1.475106
      vertex 0.149098 -1.020000 1.475106
      vertex 0.164357 -1.020000 1.478769
    endloop
  endfacet
  facet normal 0.233445 0.000000 -0.972370
    outer loop
      vertex 0.164357 -1.020000 1.478769
      vertex 0.149098 1.020000 1.475106
      vertex 0.164357 1.020000 1.478769
    endloop
  endfacet
  facet normal -0.233445 -0.000000 0.972370
    outer loop
      vertex 0.164357 1.020000 1.478769
      vertex 0.149098 1.020000 1.475106
      vertex 0.164357 -1.020000 1.478769
    endloop
  endfacet
  facet normal 0.382683 0.000000 -0.923880
    outer loop
      vertex 0.149098 -1.020000 1.475106
      vertex 0.134601 -1.020000 1.469101
      vertex 0.134601 1.020000 1.469101
    endloop
  endfacet
  facet normal -0.382683 -0.000000 0.923880
    outer loop
      vertex 0.134601 1.020000 1.469101
      vertex 0.134601 -1.020000 1.469101
      vertex 0.149098 -1.020000 1.475106
    endloop
  endfacet
  facet normal 0.382683 0.000000 -0.923880
    outer loop
      vertex 0.149098 -1.020000 1.475106
      vertex 0.134601 1.020000 1.469101
      vertex 0.149098 1.020000 1.475106
    endloop
  endfacet
  facet normal -0.382683 -0.000000 0.923880
    outer loop
      vertex 0.149098 1.020000 1.475106
      vertex 0.134601 1.020000 1.469101
      vertex 0.149098 -1.020000 1.475106
    endloop
  endfacet
  facet normal 0.522499 0.000000 -0.852640
    outer loop
      vertex 0.134601 -1.020000 1.469101
      vertex 0.121221 -1.020000 1.460902
      vertex 0.121221 1.020000 1.460902
    endloop
  endfacet
  facet normal -0.522499 -0.000000 0.852640
    outer loop
      vertex 0.121221 1.020000 1.460902
      vertex 0.121221 -1.020000 1.460902
      vertex 0.134601 -1.020000 1.469101
    endloop
  endfacet
  facet normal 0.522499 0.000000 -0.852640
    outer loop
      vertex 0.134601 -1.020000 1.469101
      vertex 0.121221 1.020000 1.460902
      vertex 0.134601 1.020000 1.469101
    endloop
  endfacet
  facet normal -0.522499 -0.000000 0.852640
    outer loop
      vertex 0.134601 1.020000 1.469101
      vertex 0.121221 1.020000 1.460902
      vertex 0.134601 -1.020000 1.469101
    endloop
  endfacet
  facet normal 0.649448 0.000000 -0.760406
    outer loop
      vertex 0.121221 -1.020000 1.460902
      vertex 0.109289 -1.020000 1.450711
      vertex 0.109289 1.020000 1.450711
    endloop
  endfacet
  facet normal -0.649448 -0.000000 0.760406
    outer loop
      vertex 0.109289 1.020000 1.450711
      vertex 0.109289 -1.020000 1.450711
      vertex 0.121221 -1.020000 1.460902
    endloop
  endfacet
  facet normal 0.649448 0.000000 -0.760406
    outer loop
      vertex 0.121221 -1.020000 1.460902
      vertex 0.109289 1.020000 1.450711
      vertex 0.121221 1.020000 1.460902
    endloop
  endfacet
  facet normal -0.649448 -0.000000 0.760406
    outer loop
      vertex 0.121221 1.020000 1.460902
      vertex 0.109289 1.020000 1.450711
      vertex 0.121221 -1.020000 1.460902
    endloop
  endfacet
  facet normal 0.760406 0.000000 -0.649448
    outer loop
      vertex 0.109289 -1.020000 1.450711
      vertex 0.104852 -1.020000 1.445515
      vertex 0.104852 1.020000 1.445515
    endloop
  endfacet
  facet normal -0.760406 -0.000000 0.649448
    outer loop
      vertex 0.104852 1.020000 1.445515
      vertex 0.104852 -1.020000 1.445515
      vertex 0.109289 -1.020000 1.450711
    endloop
  endfacet
  facet normal 0.760406 0.000000 -0.649448
    outer loop
      vertex 0.109289 -1.020000 1.450711
      vertex 0.104852 1.020000 1.445515
      vertex 0.109289 1.020000 1.450711
    endloop
  endfacet
  facet normal -0.760406 -0.000000 0.649448
    outer loop
      vertex 0.109289 1.020000 1.450711
      vertex 0.104852 1.020000 1.445515
      vertex 0.109289 -1.020000 1.450711
    endloop
  endfacet
  facet normal -0.099504 0.000000 -0.995037
    outer loop
      vertex 0.104852 -1.020000 1.445515
      vertex 0.090000 -1.020000 1.447000
      vertex 0.090000 1.020000 1.447000
    endloop
  endfacet
  facet normal 0.099504 -0.000000 0.995037
    outer loop
      vertex 0.090000 1.020000 1.447000
      vertex 0.090000 -1.020000 1.447000
      vertex 0.104852 -1.020000 1.445515
    endloop
  endfacet
  facet normal -0.099504 0.000000 -0.995037
    outer loop
      vertex 0.104852 -1.020000 1.445515
      vertex 0.090000 1.020000 1.447000
      vertex 0.104852 1.020000 1.445515
    endloop
  endfacet
  facet normal 0.099504 -0.000000 0.995037
    outer loop
      vertex 0.104852 1.020000 1.445515
      vertex 0.090000 1.020000 1.447000
      vertex 0.104852 -1.020000 1.445515
    endloop
  endfacet
  facet normal -1.000000 0.000000 0.000000
    outer loop
      vertex 0.090000 -1.020000 1.447000
      vertex 0.090000 -1.020000 1.516869
      vertex 0.090000 1.020000 1.516869
    endloop
  endfacet
  facet normal 1.000000 -0.000000 -0.000000
    outer loop
      vertex 0.090000 1.020000 1.516869
      vertex 0.090000 -1.020000 1.516869
      vertex 0.090000 -1.020000 1.447000
    endloop
  endfacet
  facet normal -1.000000 0.000000 0.000000
    outer loop
      vertex 0.090000 -1.020000 1.447000
      vertex 0.090000 1.020000 1.516869
      vertex 0.090000 1.020000 1.447000
    endloop
  endfacet
  facet normal 1.000000 -0.000000 -0.000000
    outer loop
      vertex 0.090000 1.020000 1.447000
      vertex 0.090000 1.020000 1.516869
      vertex 0.090000 -1.020000 1.447000
    endloop
  endfacet
  facet normal 0.188847 0.000000 0.982006
    outer loop
      vertex 0.090000 -1.020000 1.516869
      vertex 0.780000 -1.020000 1.384176
      vertex 0.780000 1.020000 1.384176
    endloop
  endfacet
  facet normal -0.188847 -0.000000 -0.982006
    outer loop
      vertex 0.780000 1.020000 1.384176
      vertex 0.780000 -1.020000 1.384176
      vertex 0.090000 -1.020000 1.516869
    endloop
  endfacet
  facet normal 0.188847 -0.000000 0.982006
    outer loop
      vertex 0.090000 -1.020000 1.516869
      vertex 0.780000 1.020000 1.384176
      vertex 0.090000 1.020000 1.516869
    endloop
  endfacet
  facet normal -0.188847 0.000000 -0.982006
    outer loop
      vertex 0.090000 1.020000 1.516869
      vertex 0.780000 1.020000 1.384176
      vertex 0.090000 -1.020000 1.516869
    endloop
  endfacet
  facet normal 1.000000 0.000000 0.000000
    outer loop
      vertex 0.780000 -1.020000 1.384176
      vertex 0.780000 -1.020000 0.970000
      vertex 0.780000 1.020000 0.970000
    endloop
  endfacet
  facet normal -1.000000 -0.000000 -0.000000
    outer loop
      vertex 0.780000 1.020000 0.970000
      vertex 0.780000 -1.020000 0.970000
      vertex 0.780000 -1.020000 1.384176
    endloop
  endfacet
  facet normal 1.000000 -0.000000 0.000000
    outer loop
      vertex 0.780000 -1.020000 1.384176
      vertex 0.780000 1.020000 0.970000
      vertex 0.780000 1.020000 1.384176
    endloop
  endfacet
  facet normal -1.000000 0.000000 -0.000000
    outer loop
      vertex 0.780000 1.020000 1.384176
      vertex 0.780000 1.020000 0.970000
      vertex 0.780000 -1.020000 1.384176
    endloop
  endfacet
  facet normal 0.000000 0.000000 -1.000000
    outer loop
      vertex 0.780000 -1.020000 0.970000
      vertex 0.480000 -1.020000 0.970000
      vertex 0.480000 1.020000 0.970000
    endloop
  endfacet
  facet normal -0.000000 -0.000000 1.000000
    outer loop
      vertex 0.480000 1.020000 0.970000
      vertex 0.480000 -1.020000 0.970000
      vertex 0.780000 -1.020000 0.970000
    endloop
  endfacet
  facet normal 0.000000 0.000000 -1.000000
    outer loop
      vertex 0.780000 -1.020000 0.970000
      vertex 0.480000 1.020000 0.970000
      vertex 0.780000 1.020000 0.970000
    endloop
  endfacet
  facet normal -0.000000 -0.000000 1.000000
    outer loop
      vertex 0.780000 1.020000 0.970000
      vertex 0.480000 1.020000 0.970000
      vertex 0.780000 -1.020000 0.970000
    endloop
  endfacet
  facet normal -1.000000 0.000000 0.000000
    outer loop
      vertex 0.480000 -1.020000 0.970000
      vertex 0.480000 -1.020000 1.020000
      vertex 0.480000 1.020000 1.020000
    endloop
  endfacet
  facet normal 1.000000 -0.000000 -0.000000
    outer loop
      vertex 0.480000 1.020000 1.020000
      vertex 0.480000 -1.020000 1.020000
      vertex 0.480000 -1.020000 0.970000
    endloop
  endfacet
  facet normal -1.000000 0.000000 0.000000
    outer loop
      vertex 0.480000 -1.020000 0.970000
      vertex 0.480000 1.020000 1.020000
      vertex 0.480000 1.020000 0.970000
    endloop
  endfacet
  facet normal 1.000000 -0.000000 -0.000000
    outer loop
      vertex 0.480000 1.020000 0.970000
      vertex 0.480000 1.020000 1.020000
      vertex 0.480000 -1.020000 0.970000
    endloop
  endfacet
  facet normal 0.000000 0.000000 -1.000000
    outer loop
      vertex 0.480000 -1.020000 1.020000
      vertex 0.050000 -1.020000 1.020000
      vertex 0.050000 1.020000 1.020000
    endloop
  endfacet
  facet normal -0.000000 -0.000000 1.000000
    outer loop
      vertex 0.050000 1.020000 1.020000
      vertex 0.050000 -1.020000 1.020000
      vertex 0.480000 -1.020000 1.020000
    endloop
  endfacet
  facet normal 0.000000 0.000000 -1.000000
    outer loop
      vertex 0.480000 -1.020000 1.020000
      vertex 0.050000 1.020000 1.020000
      vertex 0.480000 1.020000 1.020000
    endloop
  endfacet
  facet normal -0.000000 -0.000000 1.000000
    outer loop
      vertex 0.480000 1.020000 1.020000
      vertex 0.050000 1.020000 1.020000
      vertex 0.480000 -1.020000 1.020000
    endloop
  endfacet
  facet normal -1.000000 0.000000 0.000000
    outer loop
      vertex 0.050000 -1.020000 1.020000
      vertex 0.050000 -1.020000 1.080000
      vertex 0.050000 1.020000 1.080000
    endloop
  endfacet
  facet normal 1.000000 -0.000000 -0.000000
    outer loop
      vertex 0.050000 1.020000 1.080000
      vertex 0.050000 -1.020000 1.080000
      vertex 0.050000 -1.020000 1.020000
    endloop
  endfacet
  facet normal -1.000000 0.000000 0.000000
    outer loop
      vertex 0.050000 -1.020000 1.020000
      vertex 0.050000 1.020000 1.080000
      vertex 0.050000 1.020000 1.020000
    endloop
  endfacet
  facet normal 1.000000 -0.000000 -0.000000
    outer loop
      vertex 0.050000 1.020000 1.020000
      vertex 0.050000 1.020000 1.080000
      vertex 0.050000 -1.020000 1.020000
    endloop
  endfacet
  facet normal 0.000000 0.000000 1.000000
    outer loop
      vertex 0.050000 -1.020000 1.080000
      vertex 0.090000 -1.020000 1.080000
      vertex 0.090000 1.020000 1.080000
    endloop
  endfacet
  facet normal -0.000000 -0.000000 -1.000000
    outer loop
      vertex 0.090000 1.020000 1.080000
      vertex 0.090000 -1.020000 1.080000
      vertex 0.050000 -1.020000 1.080000
    endloop
  endfacet
  facet normal 0.000000 0.000000 1.000000
    outer loop
      vertex 0.050000 -1.020000 1.080000
      vertex 0.090000 1.020000 1.080000
      vertex 0.050000 1.020000 1.080000
    endloop
  endfacet
  facet normal -0.000000 -0.000000 -1.000000
    outer loop
      vertex 0.050000 1.020000 1.080000
      vertex 0.090000 1.020000 1.080000
      vertex 0.050000 -1.020000 1.080000
    endloop
  endfacet
endsolid mesh
